<?xml version="1.0" encoding="utf-8"?>
<!-- Generator: Adobe Illustrator 18.1.1, SVG Export Plug-In . SVG Version: 6.00 Build 0)  -->
<svg version="1.1" id="Layer_1" xmlns="http://www.w3.org/2000/svg" xmlns:xlink="http://www.w3.org/1999/xlink" x="0px" y="0px"
	 viewBox="0 0 225 124.7" enable-background="new 0 0 225 124.7" xml:space="preserve">
<path fill="#FFFFFF" stroke="#000000" stroke-width="6" stroke-miterlimit="10" d="M118-48.3"/>
<path fill="#198B00" stroke="#000000" stroke-width="10" stroke-miterlimit="10" d="M169,81.7"/>
<path fill="#FFFFFF" stroke="#000000" stroke-width="6" stroke-miterlimit="10" d="M176,312.7"/>
<path fill="#FFFFFF" stroke="#000000" stroke-width="10" stroke-miterlimit="10" d="M642-48.3"/>
<polygon fill="#302E2E" stroke="#F2F2F2" stroke-width="10" stroke-miterlimit="10" points="88.6,112.1 11.7,112.2 50,16.2 "/>
<path fill="#198B00" stroke="#000000" stroke-width="10" stroke-miterlimit="10" d="M88.6,112.1"/>
<path fill="#198B00" stroke="#000000" stroke-width="10" stroke-miterlimit="10" d="M163.7,105"/>
<polyline fill="#302E2E" stroke="#F2F2F2" stroke-width="10" stroke-miterlimit="10" points="90.5,115.4 131.4,8.7 172,8.7 "/>
<line fill="#198B00" stroke="#F2F2F2" stroke-width="10" stroke-miterlimit="10" x1="90.1" y1="5.7" x2="130.3" y2="115.4"/>
<path fill="#198B00" stroke="#000000" stroke-width="10" stroke-miterlimit="10" d="M126.3,20"/>
<polyline fill="#302E2E" stroke="#F2F2F2" stroke-width="10" stroke-miterlimit="10" points="125.9,112.4 171.5,112.4 215,112.1 
	215,4.7 "/>
<line fill="#198B00" stroke="#F2F2F2" stroke-width="10" stroke-miterlimit="10" x1="130" y1="62.7" x2="149" y2="62.7"/>
<path fill="#198B00" stroke="#F2F2F2" stroke-width="10" stroke-miterlimit="10" d="M31.5,62c2.4-2.5,5.9-5.4,10.1-5.3
	c4.7,0,6.7,3.7,11.8,4.3c2.8,0.4,7-0.2,12.5-4.3"/>
</svg>
