<?xml version="1.0" encoding="utf-8"?>
<!-- Generator: Adobe Illustrator 18.1.1, SVG Export Plug-In . SVG Version: 6.00 Build 0)  -->
<svg version="1.1" id="Layer_1" xmlns="http://www.w3.org/2000/svg" xmlns:xlink="http://www.w3.org/1999/xlink" x="0px" y="0px"
	 viewBox="0 0 966.5 319.5" enable-background="new 0 0 966.5 319.5" xml:space="preserve">
<g>
	<g>
		<path fill="#454545" d="M966.5,319.5c-322.2,0-644.3,0-966.5,0c0-14.3,0-28.6,0-43.1c2.1,0,4.2,0.1,6.2,0c1.4-0.1,2.9-0.2,4.3-0.6
			c5.9-1.9,12.1-2.3,18.3-2.4c0.4,0,0.9,0,1.3,0c2.6,0.3,4.9-0.4,6.7-2.2c0.9-0.9,2.1-1.2,3.5-1.1c1.8,0.1,3.6,0,5.4,0
			c0.2-0.7,0.4-1.3,0.6-2.1c1.2-0.1,2.5-0.1,4.1-0.2c0-2.8,0-5.5,0-8.3c1-0.2,1.7-0.4,2.7-0.6c0.1-0.5,0.2-1.1,0.2-1.7
			c0-1.8,0.1-3.6,0-5.4c-0.3-6.5,1.1-12.6,5-18.2c0.5-0.8,0.5-1.9,0.5-2.9c0.1-2.1-0.7-4.2,0.3-6.2c0.1-0.3-0.1-1-0.4-1.2
			c-1.3-1-1-2.3-0.4-3.4c0.6-1,0.5-1.9,0.4-2.9c-0.2-1.9-0.4-3.9-0.5-5.8c-0.1-1.4,0.1-2.6,1-3.8c0.2-0.3,0.4-0.7,0.5-1.1
			c0.4-2.9,0.8-5.9,0.9-8.8c0-0.8-0.8-1.6-1.1-2.2c1-1.4,2-2.7,3-4.2c0.2,0.3,0.8,0.7,0.8,1.1c0,1.1,0.2,2.1,1.4,2.4
			c0,0.4,0,0.5,0,0.5c-3.1,4.8-2.8,6-2.7,11.6c1.5-0.1,1.5-0.1,2.2-1.4c0.2,0.2,0.4,0.4,0.6,0.7c0.6-0.4,0.9-0.7,1.4-1.1
			c0,0.5,0.1,0.8,0.1,1.2c0.4-0.1,0.8-0.2,1-0.2c0.2,0.5,0.5,1,0.7,1.5c0.4,1.5-0.8,2.4-1.5,3.6c-0.6,1.1-0.5,2,0.4,2.7
			c1.5,1.1,2.1,2.6,2.3,4.4c2.5-1.1,4.3-0.1,5.8,1.6c-0.2,1.9-1.2,3.4-2.7,4.7c-1.1,0.9-1.4,2-1,3.4c0.8,3,1,5.9-0.3,8.9
			c-0.7,1.5-0.6,3.4-0.7,5.1c-0.1,2.2,0.1,2.4,2.9,2.9c0,4.7,0,9.4,0,14.3c1.8,0.2,2.1,1.1,2,2.4c-0.1,2.2,0,4.5,0,7
			c1.9,0.1,3.7,0.2,5.6,0.2c0.2,0.6,0.4,1.2,0.6,1.9c3.5,0,6.9,0,10.5,0c0.1,1.3,0.2,2.4,0.3,3.7c0.7,0.1,1.4,0.2,2,0.2
			c3.3,0,6.5,0,9.8,0c1.2,0,2.1,0.1,2.9,1.1c1.1,1.3,2.8,1.8,4.6,1.9c5.7,0.3,11.3,0.6,17,0.9c0.7,0,1.4,0.1,2.3,0.1
			c0.1,1.3,0.2,2.6,0.3,4.3c5.8,0.2,11.6,0,17.7,0.1c0-7.3,0-14.3,0-21.7c4.4,0,8.6,0,13,0c0-4.6,0-9,0-13.4c1-0.1,1.9-0.3,2.9-0.4
			c0-3,0-5.9,0-9c1.7-0.1,3.2-0.2,5-0.3c0-2.7,0-5.3,0-8.1c1.6-0.1,2.9-0.2,4.6-0.2c0-2.4,0-4.8,0-7.4c5.1,0,9.9,0,15,0
			c0-13.2,0-26.2,0-39.3c4.5,0,8.8,0,13.2,0c0.1,1,0.3,2.1,0.5,3.4c4.2,0,8.4,0,12.9,0c0,14.5,0,28.8,0,43.4
			c1.6,0.1,2.9,0.2,4.6,0.2c0,3.3,0,6.6,0,10c5.5,0,10.6,0,15.9,0c0.1-1.2,0.2-2.3,0.3-3.6c4.8,0,9.5,0,14.4,0
			c0.1-1.6,0.2-3,0.3-4.4c1-0.1,1.9-0.2,3-0.4c0-3.6,0-7.1,0-10.9c2.1-0.1,1.8-1.3,1.8-2.5c0-12.5,0-25,0-37.4c0-2.8,0-5.6,0-8.4
			c0.9-0.2,1.6-0.4,2.4-0.6c0.1-0.9,0.1-1.8,0.2-2.6c1.9-0.5,9.4-0.6,12.9-0.2c0,1.6-0.5,3.5,0.1,4.9c0.6,1.3,1.1,3.1,3.1,3.7
			c0,14.1,0,28.2,0,42.4c0.7,0.2,1.3,0.4,2,0.6c0.1,0.2,0.2,0.4,0.2,0.7c0,2.9,0,5.8,0,8.7c0,0.7-0.2,1.5,1,1.9
			c0.4,0.2,0.6,1.3,0.6,2c0,7.8,0,15.6,0,23.4c0,0.9,0,1.7,0,2.9c3.4,0.2,6.7,0.1,10.3,0c0-1.1,0-2.1,0-3.1c0-29.9,0-59.9,0-89.8
			c0-1.8,0.4-3.2,1.9-4.3c2.8-2.1,3.9-4.8,3.3-8c-0.2-1-0.4-2.1-0.9-3.1c-0.9-1.7-2-3.4-3.2-5.3c1.5-0.1,2.7-0.2,4-0.3
			c0.2-0.6,0.4-1.3,0.6-1.9c0.1-0.1,0.3-0.2,0.4-0.2c4.1,0,8.3-0.1,12.4-0.1c0.3,0,0.6-0.1,0.8,0.1c1.7,1.3,3.8,1,5.9,1.1
			c0,2.4,0,4.5,0,6.9c-1.1,0.1-2.1,0.2-3.3,0.4c0,3.4,0,6.7,0,10.2c0.6,0.2,1.2,0.4,2,0.6c0,7,0,14.1,0,21.3c1.3,0,2.3,0,3.6,0
			c2.1-7.7,4.3-15.4,6.5-23.3c0.9,0,1.7,0,2.8,0c0,2.5,0.1,4.9,0,7.3c-0.1,1.5,0.3,2.7,1.3,3.9c1,1.2,1.9,2.5,2.8,3.8
			c0.2,0,0.3-0.1,0.5-0.1c0-15.9,0-31.8,0-47.9c1-0.1,1.7-0.2,2.7-0.3c0.1-1.5,0.2-2.9,0.3-4.5c2.1,0,4,0,6.2,0c0,1.8,0,3.5,0,5.5
			c4.3,0.4,8.3,0,12.6,0.3c0,0.9,0.1,1.8,0.1,2.7c0,16.9,0,33.8,0,50.8c0,10.4,0,20.7,0,31.1c0,1.3,0.2,2.4,1.1,3.5
			c0.6,0.7,0.8,1.9,0.8,2.8c0,12.5,0,25,0,37.4c0,0.8,0,1.7,0,2.7c2.1,0,3.9,0,6.1,0c0-2.8,0-5.7,0-8.6c0.9-0.3,1.7-0.5,2.6-0.7
			c0-19.7,0-39.4,0-59.2c0.9-0.1,1.6-0.2,2.5-0.4c0-4.7,0-9.3,0-13.9c0.8-0.2,1.5-0.3,2.2-0.5c0-2.9,0-5.8,0-8.8
			c0.8-0.2,1.5-0.4,2.3-0.6c0.1-1.4,0.1-2.7,0.2-4.2c0.9-0.1,1.8-0.2,2.9-0.3c0-6.6,0-13.3,0-20c1.2-0.1,2-0.2,3.2-0.3
			c0.1-8.9,0-17.9,0-27.3c0.8,0.5,1.3,0.7,1.4,1c0.2,0.6,0.1,1.2,0.1,1.9c0,7.2,0,14.3,0,21.5c0,0.9,0,1.7,0,2.7
			c0.8,0.2,1.5,0.3,2.5,0.5c0,6.5,0,13.1,0,19.9c1,0.1,1.8,0.3,2.8,0.4c0.1,1.4,0.2,2.8,0.3,4.3c1,0.1,1.9,0.2,3.1,0.3
			c0.1,0.5,0.2,1.1,0.2,1.7c0,1.9,0,3.7,0,5.6c0,0.9-0.4,2,1.3,2.4c0.3,0.1,0.4,1.1,0.4,1.7c0,3.5,0,7,0,10.5c0,0.8,0,1.5,0.3,2.4
			c2.3-2.1,4.3-4.2,5.8-6.7c0.3-0.4,0.2-1,0.2-1.6c0-7.1,0-14.2,0-21.3c0-1.6,0-3.1,0-4.7c0-1.1,0-2.2,0-3.3c1.2-0.1,2-0.2,3.2-0.3
			c0.2-3.4,0.1-6.8,0.1-10.2c0-3.4,0-6.9,0-10.3c0-3.4,0-6.7,0-10.1c0-3.4,0-6.9,0-10.6c3.4,0,6.7,0,10.3,0c0-1.2,0-2,0-2.8
			c0-5.5,0-11.1,0-16.6c0-1.3,0.3-2.2,1.3-3.1c1.4-1.3,2.7-2.9,4.1-4.2c1.4-1.3,1.9-2.7,1.7-4.4c-0.1-0.7,0-1.4,0-2.2
			c0.8-0.1,1.4-0.2,2.1-0.2c1.1,0,2-0.1,2.8-0.8c0.6-0.5,1.7-0.6,2.7-0.9c0.1-0.8,0.1-1.7,0.2-2.8c0.7,0,1.3-0.1,2.2-0.2
			c0.1,1,0.3,1.9,0.4,3c1.5,0.1,2.9,0.2,4.4,0.3c0.1,0.7,0.2,1.4,0.4,2.2c0.8,0.1,1.7,0.3,2.6,0.4c0.1,0.2,0.3,0.3,0.3,0.4
			c-0.6,3.3,1.2,5.7,3.5,7.9c1.9,1.9,2.6,4,2.5,6.6c-0.2,4.8-0.1,9.7-0.1,14.5c0,0.8,0,1.7,0,2.8c3.4,0.4,6.7,0,10.2,0.3
			c0.3,2.6,0.1,5.2,0.1,7.8c0,2.7,0,5.5,0,8.2c0,2.7,0,5.3,0,8c0,2.7,0,5.3,0,8c0,2.7,0,5.5,0,8.2c0,2.6,0,5.3,0,8.1
			c1.8,0,3.4,0,5.3,0c0-10.5,0-21.1,0-31.8c0.9,0,1.6,0,2.4,0c0,5.6,0,11.1,0,16.8c0.9,0.1,1.7,0.1,2.6,0.2c0.1-1,0.3-1.9,0.4-2.9
			c0.9-0.1,1.8-0.3,3-0.4c0-6,0-12,0-18.2c3.3,0,6.3,0,9.6,0c0-10.9,0-21.6,0-32.4c1.9,0,3.6,0,5.5,0c0,10.7,0,21.3,0,32.2
			c3.3,0,6.4,0,9.8,0c0.3,6.1,0,12,0.2,17.9c1,0.1,1.7,0.2,2.6,0.4c0.2,0.6,0.4,1.2,0.7,1.9c0.6,0,1.1,0,2,0.1c0-5.1,0-10.1,0-15.3
			c1-0.1,1.7-0.1,2.8-0.2c0,33.1,0,66,0,99.1c2.6,0,4.9,0,7.4,0c0-9,0-18,0-27.2c2.2-0.1,4.2-0.2,6.6-0.3c0.1-7,0-13.9,0-20.8
			c0-7,0-14,0-21.1c0-6.9,0-13.9,0-20.8c0-6.9,0-13.9,0-20.9c0.6-0.3,1.2-0.5,2-0.8c0.1-1.1,0.1-2.2,0.2-3.5
			c0.8-0.2,1.6-0.3,2.5-0.5c0.1-0.4,0.2-0.9,0.2-1.3c-0.2-1.3,0.5-2.3,1.4-3.3c1.8-2,3.3-4.2,4.8-6.3c0.4-0.6,0.4-1.5,0.4-2.3
			c0-4.3,0-8.6,0-12.9c0-0.8,0-1.5,0-2.3c0.2-0.1,0.4-0.1,0.6-0.2c0.3,0.3,0.8,0.6,0.9,1c0.1,0.8,0.1,1.7,0.1,2.6
			c0,4.1,0,8.1,0,12.2c0,1.1,0.2,2.1,1,3.1c1.6,2,3.4,3.9,4.8,6.1c0.7,1,0.8,2.3,1.2,3.7c0.5,0.1,1.3,0.3,2.2,0.5
			c0.1,1.2,0.2,2.4,0.2,3.8c1,0.1,1.9,0.2,3.1,0.3c0,28.2,0,56.3,0,84.6c1.7,0.1,3.2,0.2,5,0.3c0,8,0,15.9,0,24c1.5,0,2.8,0,4.4,0
			c0.3-2.4,0.1-4.9,0.1-7.4c0-2.4,0-4.8,0-7.3c0-2.5,0-5,0-7.4c3-0.8,3.2-0.8,4.8,1.4c0.6,0.8,1.3,1.7,1.9,2.5c6.4,0,12.7,0,19.4,0
			c0-14.3,0-28.4,0-42.7c1.3-0.1,2.3-0.2,3.6-0.3c0-0.8,0.1-1.6,0.1-2.4c0-6.6,0-13.3,0-19.9c0-1.1,0.4-2.3,0.9-3.3
			c0.6-1.4,1.5-2.8,2.3-4.2c1-1.7,2-3.4,1.7-5.5c0.6-0.3,1.2-0.5,1.9-0.8c0-2.3,0-4.6,0-7.1c0.8,0,1.5,0,2.1,0
			c0.1,0.2,0.3,0.5,0.3,0.7c0,1.6,0,3.1,0.1,4.7c0,1.2-0.4,2.4,1.1,3.3c0.4,0.2,0.3,1.1,0.5,1.8c0.9,0.1,1.8,0.2,2.7,0.2
			c0.1,0.1,0.3,0.3,0.3,0.4c-0.3,2.4,0.8,4.2,2.9,5.6c1.1,0.7,1.2,1.7,1.2,2.9c0,7.3,0,14.5,0,21.8c0,0.9-0.4,1.9,1.1,2.2
			c0.2,0,0.3,0.7,0.4,1c0.1,0.6,0,1.2,0,1.9c0,14.3,0,28.5,0,42.8c0,0.9,0,1.8,0,2.9c1.2,0,2.2,0,3.5,0c0-0.8,0.1-1.6,0.1-2.4
			c0-10.5,0.1-21.1,0-31.6c0-1.7,0.5-2.9,1.9-4.1c2-1.7,4-3.4,5.8-5.3c1.1-1.1,2.3-1.5,3.9-1.4c3,0.1,6,0,9,0c0.8,0,1.7,0,2.9,0
			c0.2-3.1,0.1-6,0.1-9c0-3,0-5.9,0-8.9c0-3,0-6.1,0-9.1c0-3,0-5.9,0-8.9c0-3,0-5.9,0-8.9c0-3,0-5.9,0-8.9c0-3,0-5.9,0-8.9
			c0-3,0-6.1,0-9.1c0-3,0-5.9,0-8.9c0-2.9,0-5.9,0-8.9c0.9-0.2,1.5-0.3,2.4-0.4c0-5.6,0-11.2,0-17.1c3,0,5.7,0,8.8,0
			c0-4.3,0-8.4,0-12.4c0.9-0.2,1.5-0.4,2.3-0.6c0-0.8,0-1.4,0-2.1c-0.1-2,0.6-3.7,2.5-4.9c0.4-0.3,0.7-0.8,0.9-1.3
			c1.1-3.6,1.6-4.3,5.2-6.2c0-11.3,0-22.8,0-34.3c0.7-0.1,1.3-0.1,2-0.2c0,11.6,0,23,0,34.5c3.3,1.4,4.8,3.8,5.2,6.9
			c0.1,0.4,0.2,1,0.6,1.3c1.4,1.3,1.6,2.8,1.6,4.5c0,0.8-0.5,1.9,1.1,2.3c0.3,0.1,0.5,1.1,0.5,1.6c0.1,2.3,0,4.7,0,7.1
			c1.3,0.1,2.3,0.2,3.7,0.4c0,2.3,0,4.6,0,7c2.1,0,3.8,0,5.9,0c0-1.9,0-3.8,0-5.8c1-0.1,1.7-0.1,2.5-0.2c0.2,0.5,0.4,1,0.4,1.4
			c0,3.7,0,7.5,0,11.2c0,2,0,4,0,6.1c1,0.2,1.8,0.3,2.9,0.5c0,29.9,0,59.8,0,90c5.5,0.1,10.8,0,16.5,0.1c0,8.4,0,16.7,0,25
			c0,8.3,0,16.5,0,25c0.9,0.1,1.6,0.1,2.5,0.2c0-3.9,0-7.6,0-11.4c0.7-0.2,1.4-0.4,2.1-0.6c0-1.6,0-3.2,0-5
			c-0.5-0.2-1.1-0.3-1.9-0.5c0-0.6,0-1.1,0-1.9c1.1-0.1,2.1-0.2,3.5-0.3c0.1-7.3,0-14.5,0.1-21.8c0-7.3,0-14.7,0-22
			c0-7.3,0-14.7,0-22c0-7.3,0-14.6,0-22c0.9-0.2,1.6-0.4,2.6-0.6c0.3-7.8,0-15.6,0.2-23.5c0.6-0.2,1.2-0.4,1.9-0.6
			c0.1-1.1,0.1-2.3,0.2-3.6c1.5-0.3,1.8-1.4,1.7-2.7c-0.1-2.8,0-5.6,0-8.5c0.8-0.2,1.4-0.3,2.3-0.5c0-1.8,0-3.6,0-5.6
			c0.8-0.3,1.4-0.5,1.9-0.7c0.6-2.2,1-4.4,1.7-6.5c0.3-1,0.9-2.2,1.7-2.8c1.2-0.9,1.3-1.9,1.3-3.1c0-7,0-14,0-21.1
			c0-0.8,0-1.7,0-2.6c0.7,0,1.2,0,1.8,0c0.1,0.5,0.2,0.9,0.2,1.4c0,7.5,0,15,0,22.5c0,1.3,0.1,2.6,1.1,3.7c0.6,0.6,0.8,1.5,1.1,2.3
			c0.7,2.4,1.5,4.7,1.9,7.1c0.3,1.7,0.1,3.4,0.1,5.2c0.7,0.2,1.3,0.4,2.1,0.6c0,3.5,0,6.9,0,10.5c0.8,0.2,1.5,0.4,2.2,0.5
			c0.1,1.3,0.2,2.5,0.2,3.8c0.8,0.1,1.5,0.3,2.5,0.5c0,0.9,0,1.7,0,2.6c0,6.3,0,12.6,0,18.9c0,1-0.4,2.1,1.2,2.5
			c0.2,0.1,0.4,0.6,0.5,1c0.1,0.7,0,1.4,0,2.1c0,27.3,0,54.6,0,81.9c0,0.9,0,1.9,0,3.1c1.6,0,3.1,0,4.7,0c0.1,0.8,0.1,1.4,0.2,2.2
			c-1,0.1-1.8,0.2-2.7,0.4c0,1.7,0,3.4,0,5.2c1.1,0.1,2.1,0.2,3.3,0.3c0,3.2,0,6.3,0,9.5c0.9,0.2,1.6,0.3,2.6,0.5c0,7.6,0,15.2,0,23
			c1.6,0.1,3,0.2,4.6,0.3c0,13.6,0,27.2,0,40.9c1.4,0,2.7,0,4.1,0c0-13.7,0-27.5,0-41.4c0.8-0.2,1.4-0.4,2.1-0.7
			c0.1-0.6,0.2-1.3,0.3-2c0.6-0.2,1.2-0.3,1.9-0.5c0-7.4,0-14.8,0-22.3c0.7-0.2,1.4-0.4,2-0.6c0.1-0.3,0.2-0.5,0.2-0.7
			c0-3.7,0-7.3,0-11c0-0.7-0.2-1.6,0.9-2c0.3-0.1,0.4-0.8,0.4-1.2c0.1-0.9,0-1.9,0-2.8c0.7-0.2,1.2-0.4,1.8-0.7
			c0.1-1.3,0.2-2.6,0.2-4c1-0.1,1.8-0.3,2.7-0.4c0.1-1.2,0.1-2.4,0.2-3.7c1.1,0,2.1,0,3.2,0c0.1,0.8,0.2,1.6,0.3,2.6
			c1.4,0,2.9,0,4.3,0c2,0,4,0,5.9,0c4.4,0.2,7.1,2.7,7.2,6.7c0.1,1.6,0,3.2,0,4.9c1.2,0.1,2.1,0.2,3.4,0.3c0.3,2.1,0.1,4.3,0.1,6.4
			c0,2.2,0,4.3,0,6.5c1.2,0.1,2.1,0.2,3.4,0.3c0,7.6,0,15.2,0,22.9c4.3,0,8.4,0,12.7,0c0-0.7,0.1-1.4,0.1-2.2c0-5.3,0-10.6,0-15.9
			c0-1.1-0.4-2.3,0.9-3.2c1.5-1,3.2-1.7,5-1.4c1.5,0.3,3,0.8,4.3,1.5c2.6,1.7,5.1,3.7,7.6,5.6c1.5,1.1,2.3,2.5,2,4.3
			c-0.1,0.4,0.1,0.8,0.1,1.2c0.6,0.2,1.3,0.3,2.1,0.5c0.1,17.4,0.3,34.9,0.4,52.5c1.3,0,2.4,0,3.8,0c0-18,0-36,0-54.2
			c1.4-0.1,2.7-0.3,4.2-0.4c0-3.6,0-7.2,0-10.9c1.1,0,1.9-0.1,2.8-0.1c5.5,0,11,0,16.5,0c1,0,2.2-0.3,2.8,1c0.2,0.3,1.4,0.4,2.1,0.4
			c6.8,0,13.6,0,20.4,0c0.9,0,1.8,0,2.9,0c0.1,0.9,0.1,1.5,0.1,2.1c0,0.3-0.1,0.8,0.1,0.9c2.4,1.8,0.8,4.2,1.5,6.5
			c0.4,0.2,1,0.4,1.7,0.7c0,11.2,0,22.4,0,33.9c1.5,0,2.8,0,4.3,0c0.1-0.5,0.2-1.1,0.2-1.7c0-2.6,0-5.1,0-7.7c0-1-0.3-2.1,0.8-3
			c0.3-0.3,0.2-1,0.2-1.6c0-1.4,0-2.8,0-4.2c0.9-0.2,1.5-0.3,2.3-0.4c0.7-2.6,2.5-4.4,5.7-4.4c3.2,0,5,1.8,5.8,4.5
			c0.8,0.1,1.6,0.2,2.5,0.4c0,1.1-0.1,2.1,0,3.1c0.1,1.2-0.6,2.6,1.1,3.5c0.4,0.2,0.2,1.3,0.2,2c0,6.9,0,13.7,0,20.6
			c0,0.9,0,1.7,0,2.7c4.5,0,8.9,0,13.4,0c0.1-0.5,0.3-1,0.4-1.8c0.7-0.1,1.4-0.3,2.3-0.4c0.2-0.4,0.4-1,0.7-1.6c0.7,0,1.4,0,1.7,0
			c0.9,0.9,1.7,1.5,2.4,2.2c0.1-0.1,0.3-0.1,0.4-0.2c0,2.4,0,4.8,0,7.3c1.9,0,3.6,0,5.5,0c0-2.5,0-5,0-7.7c1-0.1,1.8-0.1,2.5-0.2
			c0.6-0.1,1.2-0.2,1.6-0.5c1.3-1,2.8-0.6,4.1-0.3c1,0.2,1.9,0.8,2.9,1.1c1.3,0.8-1,3.3,2.3,3.4c0-0.8,0.1-1.6,0.1-2.3
			c0-4,0-8,0-11.9c0-0.9-0.3-1.9,1.2-2.2c0.3-0.1,0.5-1.2,0.5-1.9c0-3.6,0-7.2,0-10.8c0-0.6,0-1.2,0-1.9c0.8-0.2,1.4-0.3,2.2-0.5
			c0.1-1,0.1-2.1,1.8-2.3c0.3,0,0.4-0.9,0.7-1.5c2.4,0,4.8,0,7.3,0c0.2,0.5,0.4,1,0.6,1.6c0.7,0.1,1.3,0.2,2,0.3
			c0.1,0.7,0.2,1.2,0.4,1.9c0.6,0.2,1.2,0.3,1.9,0.5c0,4.8,0,9.6,0,14.5c0.8,0.2,1.5,0.3,2.2,0.4c0.1,0.3,0.2,0.7,0.2,1.1
			c0,4.1,0,8.3,0,12.4c0,1-0.7,2.4,1.2,2.9c0.2,0.1,0.3,0.8,0.3,1.3c0,0.9,0,1.9,0,3c1.7,0.1,3.3,0.2,5.1,0.3
			C966.5,294.1,966.5,306.6,966.5,319.5z"/>
	</g>
</g>
</svg>
