<?xml version="1.0" encoding="utf-8"?>
<!-- Generator: Adobe Illustrator 18.1.1, SVG Export Plug-In . SVG Version: 6.00 Build 0)  -->
<svg version="1.1" id="Layer_1" xmlns="http://www.w3.org/2000/svg" xmlns:xlink="http://www.w3.org/1999/xlink" x="0px" y="0px"
	 viewBox="0 0 960 560" enable-background="new 0 0 960 560" xml:space="preserve">
<image overflow="visible" opacity="0" width="268" height="104" xlink:href="../../../../Desktop/tilraun.jpg"  transform="matrix(2.291 0 0 3.1923 173 113.5)">
</image>
<g>
	<path d="M342.8,222.3l1.3-1.6c1.2,1,2.4,1.6,4,1.6c1.4,0,2.2-0.6,2.2-1.6v0c0-0.9-0.5-1.4-2.8-1.9c-2.7-0.6-4.2-1.4-4.2-3.8v0
		c0-2.2,1.8-3.7,4.3-3.7c1.8,0,3.3,0.6,4.6,1.6l-1.2,1.7c-1.1-0.8-2.3-1.3-3.4-1.3c-1.3,0-2.1,0.7-2.1,1.5v0c0,1,0.6,1.4,3,2
		c2.7,0.6,4,1.6,4,3.7v0c0,2.4-1.9,3.8-4.5,3.8C346.1,224.3,344.3,223.7,342.8,222.3z"/>
	<path d="M343.8,243.1v-5h-1.2v-1.9h1.2v-2.6h2.2v2.6h2.6v1.9H346v4.7c0,0.8,0.4,1.2,1.2,1.2c0.5,0,0.9-0.1,1.4-0.3v1.8
		c-0.5,0.3-1.1,0.5-2,0.5C345,245.9,343.8,245.2,343.8,243.1z"/>
	<path d="M343.4,257.8h2.2v2.1c0.6-1.4,1.7-2.4,3.4-2.3v2.3h-0.1c-1.9,0-3.2,1.2-3.2,3.8v3.6h-2.2V257.8z"/>
	<path d="M342.8,284.2L342.8,284.2c0-2.8,2.2-5,5.1-5s5.1,2.2,5.1,4.9v0c0,2.7-2.2,5-5.1,5C345,289.2,342.8,286.9,342.8,284.2z
		 M350.8,284.2L350.8,284.2c0-1.7-1.2-3.1-2.9-3.1c-1.7,0-2.9,1.4-2.9,3v0c0,1.7,1.2,3,2.9,3C349.7,287.2,350.8,285.9,350.8,284.2z"
		/>
	<path d="M343.4,301h2.2v1.5c0.6-0.9,1.5-1.7,3-1.7c2.1,0,3.4,1.4,3.4,3.6v6.1h-2.2v-5.4c0-1.5-0.7-2.3-2-2.3
		c-1.3,0-2.1,0.9-2.1,2.4v5.4h-2.2V301z"/>
	<path d="M343.4,333.9l0.8-1.6c1,0.6,2.1,1,3.4,1c1.9,0,3-1,3-2.9v-0.7c-0.8,1-1.8,1.7-3.3,1.7c-2.2,0-4.3-1.7-4.3-4.4v0
		c0-2.8,2.1-4.5,4.3-4.5c1.6,0,2.6,0.7,3.3,1.6v-1.4h2.2v7.6c0,1.6-0.4,2.8-1.2,3.6c-0.9,0.9-2.2,1.3-3.9,1.3
		C346,335.1,344.6,334.7,343.4,333.9z M350.6,326.9L350.6,326.9c0-1.6-1.3-2.6-2.8-2.6c-1.5,0-2.7,1-2.7,2.6v0
		c0,1.5,1.2,2.6,2.7,2.6C349.3,329.5,350.6,328.5,350.6,326.9z"/>
</g>
<g>
	<path d="M358.4,210.5h0.3l9.6,12v-12h0.4v12.6h-0.3l-9.6-12v12h-0.4V210.5z"/>
	<path d="M358.4,232.1h8.8v0.4h-8.4v5.7h7.6v0.4h-7.6v5.8h8.5v0.4h-8.9V232.1z"/>
	<path d="M363.2,253.6h0.3l6.1,12.7h-0.4l-1.8-3.8h-8l-1.8,3.8h-0.4L363.2,253.6z M367.2,262.2l-3.8-8l-3.8,8H367.2z"/>
	<path d="M358.2,282.4v-7h0.4v7c0,3.6,1.9,5.4,4.7,5.4c2.8,0,4.7-1.8,4.7-5.4v-7h0.4v7c0,3.9-2.1,5.8-5.1,5.8
		C360.3,288.1,358.2,286.2,358.2,282.4z"/>
	<path d="M361.5,297.3H357v-0.4h9.5v0.4h-4.6v12.2h-0.4V297.3z"/>
	<path d="M358.4,318.5h5.1c1.6,0,2.8,0.4,3.6,1.2c0.6,0.6,0.9,1.4,0.9,2.3v0c0,2.1-1.7,3.4-4.1,3.5l4.2,5.5h-0.5l-4.2-5.5h-4.7v5.5
		h-0.4V318.5z M363.3,325.3c2.9,0,4.3-1.4,4.3-3.2v0c0-2-1.5-3.2-4.2-3.2h-4.7v6.4H363.3z"/>
	<path d="M363.2,340h0.3l6.1,12.7h-0.4l-1.8-3.8h-8l-1.8,3.8h-0.4L363.2,340z M367.2,348.6l-3.8-8l-3.8,8H367.2z"/>
	<path d="M358.4,361.7h0.4V374h7.7v0.4h-8.1V361.7z"/>
</g>
<g>
	<path d="M182.2,236.5h1.7l-2.6,9.6h-1.7L182.2,236.5z"/>
	<path d="M184.5,244.8c0-0.3,0-0.6,0.1-0.8l1-3.7h-0.9l0.4-1.4h0.9l0.5-2h1.7l-0.5,2h1.9l-0.4,1.4h-1.9l-0.9,3.5
		c0,0.1-0.1,0.3-0.1,0.4c0,0.4,0.3,0.6,0.7,0.6c0.3,0,0.7-0.1,1.1-0.2l-0.4,1.4c-0.4,0.2-0.8,0.3-1.4,0.3
		C185.1,246.2,184.5,245.7,184.5,244.8z"/>
	<path d="M189.4,244.3c0-0.7,0.3-1.3,0.7-1.7c0.6-0.6,1.5-0.9,2.5-0.9c0.8,0,1.6,0.2,2.2,0.4l0-0.1c0-0.2,0.1-0.4,0.1-0.6
		c0-0.7-0.5-1.1-1.6-1.1c-0.7,0-1.4,0.2-2,0.4l-0.3-1.3c0.7-0.3,1.6-0.5,2.6-0.5c1.9,0,2.9,0.8,2.9,2.2c0,0.4-0.1,0.7-0.2,1.1
		l-1.1,4h-1.6l0.2-1c-0.6,0.7-1.4,1.1-2.4,1.1C190.3,246.3,189.4,245.5,189.4,244.3z M194.5,243.4l0.1-0.3c-0.5-0.2-1.1-0.3-1.8-0.3
		c-0.6,0-1.1,0.2-1.4,0.5c-0.2,0.2-0.4,0.5-0.4,0.9c0,0.6,0.5,1,1.2,1C193.2,245.1,194.2,244.3,194.5,243.4z"/>
	<path d="M200.1,236.1h1.7l-2.7,10h-1.7L200.1,236.1z"/>
	<path d="M203.2,238.9h1.7l-1.9,7.2h-1.7L203.2,238.9z M203.9,236.2h1.8l-0.4,1.6h-1.8L203.9,236.2z"/>
	<path d="M205.6,243.1c0-1.2,0.5-2.3,1.3-3.1c0.8-0.8,1.8-1.3,3-1.3c1.5,0,2.4,0.8,2.9,1.6l-1.3,0.9c-0.4-0.6-0.8-1.1-1.8-1.1
		c-0.6,0-1.2,0.3-1.6,0.7c-0.5,0.5-0.9,1.3-0.9,2.2c0,1.1,0.8,1.8,1.7,1.8c0.7,0,1.3-0.3,1.9-0.8l0.9,1.1c-0.8,0.7-1.6,1.2-2.8,1.2
		C207.1,246.3,205.6,245,205.6,243.1z"/>
</g>
<g>
	<path d="M183,264.2v1h-2.1V255h2.1v3.8c0.5-0.7,1.2-1.2,2.3-1.2c1.7,0,3.4,1.4,3.4,3.9v0c0,2.5-1.6,3.9-3.4,3.9
		C184.2,265.3,183.5,264.8,183,264.2z M186.6,261.4L186.6,261.4c0-1.3-0.8-2.1-1.8-2.1s-1.8,0.8-1.8,2.1v0c0,1.2,0.8,2.1,1.8,2.1
		S186.6,262.7,186.6,261.4z"/>
	<path d="M189.9,261.5L189.9,261.5c0-2.2,1.7-3.9,4-3.9c2.3,0,4,1.7,4,3.9v0c0,2.1-1.7,3.9-4,3.9
		C191.6,265.3,189.9,263.6,189.9,261.5z M195.8,261.5L195.8,261.5c0-1.1-0.8-2.1-2-2.1c-1.2,0-1.9,0.9-1.9,2v0c0,1.1,0.8,2.1,2,2.1
		C195.1,263.5,195.8,262.6,195.8,261.5z"/>
	<path d="M199.6,255h2.1v10.1h-2.1V255z"/>
	<path d="M203.3,261.4L203.3,261.4c0-2.5,1.6-3.9,3.4-3.9c1.1,0,1.8,0.5,2.3,1.1V255h2.1v10.1H209v-1.1c-0.5,0.7-1.2,1.2-2.3,1.2
		C205,265.3,203.3,263.9,203.3,261.4z M209.1,261.4L209.1,261.4c0-1.3-0.8-2.1-1.8-2.1c-1,0-1.8,0.8-1.8,2.1v0
		c0,1.2,0.8,2.1,1.8,2.1C208.2,263.5,209.1,262.7,209.1,261.4z"/>
</g>
<g>
	<path d="M183.3,272.6H180v-0.3h6.9v0.3h-3.3v8.8h-0.3V272.6z"/>
	<path d="M188.6,272.4h0.3v4.4h6.5v-4.4h0.3v9.1h-0.3V277h-6.5v4.5h-0.3V272.4z"/>
	<path d="M198.5,272.4h0.3v9.1h-0.3V272.4z"/>
	<path d="M201.5,272.4h0.2l6.9,8.6v-8.6h0.3v9.1h-0.2l-6.9-8.6v8.6h-0.3V272.4z"/>
</g>
<g>
	<path d="M179.7,293.6v-4.7h3v3.7c0,0.6,0.4,1,0.8,1c0.4,0,0.8-0.4,0.8-1v-3.7h3v7.1h-3V295c-0.5,0.6-1.2,1.1-2.2,1.1
		C180.7,296.2,179.7,295.2,179.7,293.6z"/>
	<path d="M188.2,286.5h3v9.5h-3V286.5z"/>
	<path d="M192.6,293.6v-2.4h-0.8v-2.3h0.8v-1.8h3v1.8h1.6v2.3h-1.6v1.8c0,0.5,0.2,0.7,0.7,0.7c0.3,0,0.6-0.1,0.9-0.2v2.3
		c-0.5,0.2-1.2,0.4-1.9,0.4C193.5,296.1,192.6,295.3,192.6,293.6z"/>
	<path d="M197.9,288.9h3v1.4c0.4-1,1.1-1.6,2.2-1.5v3.1h-0.3c-1.2,0-1.9,0.7-1.9,2.3v1.8h-3V288.9z"/>
	<path d="M202.9,294L202.9,294c0-1.4,1.1-2.2,2.7-2.2c0.6,0,1.4,0.1,1.7,0.3v-0.1c0-0.7-0.4-1-1.3-1c-0.7,0-1.3,0.2-2,0.4l-0.5-2
		c0.8-0.3,1.8-0.5,3-0.5c1.4,0,2.4,0.3,3,0.9c0.5,0.5,0.7,1.2,0.7,2.3v4h-3v-0.7c-0.5,0.5-1.2,0.9-2,0.9
		C203.9,296.2,202.9,295.4,202.9,294z M207.4,293.4v-0.3c-0.2-0.1-0.4-0.1-0.7-0.1c-0.6,0-0.9,0.4-0.9,0.8v0c0,0.4,0.3,0.7,0.7,0.7
		C207,294.5,207.4,294,207.4,293.4z"/>
</g>
<g>
	<path d="M321,406.2v-0.1c0-12.9,9.9-23.9,23.8-23.9c8.1,0,13,2.2,17.8,6.3l-5.1,6.1c-3.6-3-7.1-4.9-12.9-4.9c-8.5,0-15,7.5-15,16.3
		v0.1c0,9.5,6.3,16.5,15.7,16.5c4.4,0,8.3-1.4,11.2-3.5v-8.6h-11.8v-7.1h19.7v19.4c-4.6,3.9-11.1,7.2-19.3,7.2
		C330.6,430,321,419.7,321,406.2z"/>
	<path d="M372.8,406.2v-0.1c0-13,10-23.9,24.2-23.9c14.2,0,24.1,10.8,24.1,23.8v0.1c0,13-10,23.9-24.2,23.9
		C382.7,430,372.8,419.2,372.8,406.2z M412.6,406.2v-0.1c0-9-6.5-16.4-15.7-16.4c-9.2,0-15.6,7.3-15.6,16.3v0.1
		c0,9,6.5,16.4,15.7,16.4C406.2,422.4,412.6,415.2,412.6,406.2z"/>
	<path d="M439.8,390.5h-14.7V383h37.5v7.5H448v38.7h-8.2V390.5z"/>
	<path d="M471.2,383h8.1v19.2h22V383h8.1v46.2h-8.1v-19.5h-22v19.5h-8.1V383z"/>
	<path d="M537.7,382.7h7.5l20.3,46.5H557l-4.7-11.2h-21.8l-4.8,11.2h-8.3L537.7,382.7z M549.3,410.8l-8-18.5l-7.9,18.5H549.3z"/>
	<path d="M573.5,383h8.6l14.1,21.8l14.1-21.8h8.6v46.2h-8.1v-33.1l-14.6,21.8h-0.3l-14.5-21.6v33h-8V383z"/>
</g>
<g>
	<path d="M180,301.8h1.4l2.3,3.6l2.3-3.6h1.4v7.7h-1.4V304l-2.4,3.6h0l-2.4-3.6v5.5H180V301.8z"/>
	<path d="M189.5,301.8h5.7v1.2h-4.4v2h3.9v1.2h-3.9v2.1h4.4v1.2h-5.8V301.8z"/>
	<path d="M196.9,301.8h2.9c2.4,0,4.1,1.7,4.1,3.8v0c0,2.2-1.7,3.8-4.1,3.8h-2.9V301.8z M198.3,303.1v5.2h1.5c1.6,0,2.7-1.1,2.7-2.6
		v0c0-1.5-1.1-2.6-2.7-2.6H198.3z"/>
	<path d="M205.6,301.8h1.4v7.7h-1.4V301.8z"/>
	<path d="M208.9,306.3v-4.4h1.4v4.4c0,1.4,0.7,2.2,1.9,2.2c1.2,0,1.9-0.7,1.9-2.1v-4.4h1.4v4.4c0,2.3-1.3,3.5-3.3,3.5
		C210.2,309.7,208.9,308.5,208.9,306.3z"/>
	<path d="M217.3,301.8h1.4l2.3,3.6l2.3-3.6h1.4v7.7h-1.4V304l-2.4,3.6h0l-2.4-3.6v5.5h-1.3V301.8z"/>
</g>
<g>
	<path d="M187.5,230.5L187.5,230.5c0-0.8,0.5-1.2,1.3-1.2c0.4,0,0.6,0.1,0.9,0.1v-0.2c0-0.5-0.3-0.8-0.8-0.8c-0.4,0-0.7,0.1-0.9,0.2
		l-0.2-0.6c0.4-0.2,0.7-0.3,1.2-0.3c0.5,0,0.9,0.1,1.1,0.4c0.2,0.2,0.4,0.6,0.4,1.1v2.3h-0.8v-0.5c-0.2,0.3-0.5,0.5-1,0.5
		C188,231.6,187.5,231.2,187.5,230.5z M189.7,230.3v-0.4c-0.2-0.1-0.4-0.1-0.7-0.1c-0.5,0-0.7,0.2-0.7,0.6v0c0,0.4,0.3,0.6,0.6,0.6
		C189.3,231,189.7,230.7,189.7,230.3z"/>
	<path d="M192.1,231v0.6h-0.8v-5.1h0.8v1.9c0.2-0.4,0.6-0.7,1.1-0.7c0.7,0,1.4,0.6,1.4,1.9v0.1c0,1.2-0.7,1.9-1.4,1.9
		C192.6,231.6,192.3,231.3,192.1,231z M193.8,229.7L193.8,229.7c0-0.8-0.4-1.3-0.9-1.3c-0.5,0-0.9,0.5-0.9,1.2v0.1
		c0,0.7,0.4,1.2,0.9,1.2C193.4,230.9,193.8,230.5,193.8,229.7z"/>
	<path d="M195.2,229.7L195.2,229.7c0-1.2,0.7-2,1.7-2c0.5,0,0.9,0.2,1.2,0.5l-0.4,0.6c-0.2-0.2-0.4-0.4-0.7-0.4
		c-0.5,0-0.9,0.5-0.9,1.2v0c0,0.7,0.4,1.2,0.9,1.2c0.3,0,0.5-0.2,0.8-0.4l0.4,0.5c-0.3,0.3-0.7,0.6-1.2,0.6
		C195.9,231.6,195.2,230.9,195.2,229.7z"/>
	<path d="M198.5,229.7L198.5,229.7c0-1.3,0.7-2,1.4-2c0.5,0,0.9,0.3,1.1,0.6v-1.9h0.8v5.1H201V231c-0.2,0.4-0.6,0.7-1.1,0.7
		C199.2,231.6,198.5,231,198.5,229.7z M201,229.7L201,229.7c0-0.8-0.4-1.3-0.9-1.3c-0.5,0-0.9,0.4-0.9,1.2v0.1
		c0,0.7,0.4,1.2,0.9,1.2S201,230.5,201,229.7z"/>
</g>
<g>
	<path d="M373.3,342.6h1.4v1.3h-1.4V342.6z M373.3,344.7h1.3v5.8h-1.3V344.7z"/>
	<path d="M376.4,344.7h1.3v0.9c0.4-0.5,0.9-1,1.8-1c1.3,0,2.1,0.9,2.1,2.2v3.7h-1.3v-3.3c0-0.9-0.5-1.4-1.2-1.4
		c-0.8,0-1.3,0.5-1.3,1.4v3.3h-1.3V344.7z"/>
	<path d="M382.9,347.6L382.9,347.6c0-1.9,1.3-3,2.7-3c1,0,1.6,0.5,2,1v-3.1h1.3v8h-1.3v-1c-0.4,0.6-1,1.1-2,1.1
		C384.2,350.7,382.9,349.6,382.9,347.6z M387.6,347.6L387.6,347.6c0-1.1-0.8-1.9-1.7-1.9c-0.9,0-1.7,0.7-1.7,1.9v0
		c0,1.1,0.8,1.9,1.7,1.9C386.8,349.5,387.6,348.7,387.6,347.6z"/>
	<path d="M390.3,347.6L390.3,347.6c0-1.7,1.2-3,2.8-3c1.8,0,2.8,1.5,2.8,3.1c0,0.1,0,0.2,0,0.4h-4.3c0.1,0.9,0.8,1.5,1.7,1.5
		c0.6,0,1.1-0.2,1.6-0.7l0.8,0.7c-0.5,0.7-1.3,1.1-2.4,1.1C391.6,350.7,390.3,349.4,390.3,347.6z M394.6,347.2
		c-0.1-0.9-0.6-1.5-1.5-1.5c-0.8,0-1.4,0.6-1.5,1.5H394.6z"/>
	<path d="M397.2,344.7h1.3v1c0.4-0.6,1-1.1,2-1.1c1.4,0,2.7,1.1,2.7,3v0c0,1.9-1.3,3-2.7,3c-1,0-1.6-0.5-2-1v2.7h-1.3V344.7z
		 M401.9,347.6L401.9,347.6c0-1.1-0.8-1.9-1.7-1.9c-0.9,0-1.7,0.7-1.7,1.9v0c0,1.1,0.8,1.9,1.7,1.9
		C401.1,349.5,401.9,348.8,401.9,347.6z"/>
	<path d="M404.3,347.6L404.3,347.6c0-1.7,1.2-3,2.8-3c1.8,0,2.8,1.5,2.8,3.1c0,0.1,0,0.2,0,0.4h-4.3c0.1,0.9,0.8,1.5,1.7,1.5
		c0.6,0,1.1-0.2,1.6-0.7l0.8,0.7c-0.5,0.7-1.3,1.1-2.4,1.1C405.6,350.7,404.3,349.4,404.3,347.6z M408.6,347.2
		c-0.1-0.9-0.6-1.5-1.5-1.5c-0.8,0-1.4,0.6-1.5,1.5H408.6z"/>
	<path d="M411.3,344.7h1.3v0.9c0.4-0.5,0.9-1,1.8-1c1.3,0,2.1,0.9,2.1,2.2v3.7h-1.3v-3.3c0-0.9-0.5-1.4-1.2-1.4
		c-0.8,0-1.3,0.5-1.3,1.4v3.3h-1.3V344.7z"/>
	<path d="M417.8,347.6L417.8,347.6c0-1.9,1.3-3,2.7-3c1,0,1.6,0.5,2,1v-3.1h1.3v8h-1.3v-1c-0.4,0.6-1,1.1-2,1.1
		C419.1,350.7,417.8,349.6,417.8,347.6z M422.5,347.6L422.5,347.6c0-1.1-0.8-1.9-1.7-1.9c-0.9,0-1.7,0.7-1.7,1.9v0
		c0,1.1,0.8,1.9,1.7,1.9C421.7,349.5,422.5,348.7,422.5,347.6z"/>
	<path d="M425.1,347.6L425.1,347.6c0-1.7,1.2-3,2.8-3c1.8,0,2.8,1.5,2.8,3.1c0,0.1,0,0.2,0,0.4h-4.3c0.1,0.9,0.8,1.5,1.7,1.5
		c0.6,0,1.1-0.2,1.6-0.7l0.8,0.7c-0.5,0.7-1.3,1.1-2.4,1.1C426.4,350.7,425.1,349.4,425.1,347.6z M429.4,347.2
		c-0.1-0.9-0.6-1.5-1.5-1.5c-0.8,0-1.4,0.6-1.5,1.5H429.4z"/>
	<path d="M432.1,344.7h1.3v0.9c0.4-0.5,0.9-1,1.8-1c1.3,0,2.1,0.9,2.1,2.2v3.7H436v-3.3c0-0.9-0.5-1.4-1.2-1.4
		c-0.8,0-1.3,0.5-1.3,1.4v3.3h-1.3V344.7z"/>
	<path d="M439.2,348.9v-3.1h-0.7v-1.1h0.7v-1.6h1.3v1.6h1.6v1.1h-1.6v2.8c0,0.5,0.3,0.7,0.7,0.7c0.3,0,0.6-0.1,0.8-0.2v1.1
		c-0.3,0.2-0.7,0.3-1.2,0.3C439.9,350.6,439.2,350.2,439.2,348.9z"/>
</g>
<g>
	<path d="M181,313.8h4.4v0.3h-4.1v2.7h3.7v0.3h-3.7v2.8h4.2v0.3H181V313.8z"/>
	<path d="M188.6,317.6l1.7-2h0.3l-1.9,2.2l1.9,2.3h-0.4l-1.8-2.1l-1.8,2.1h-0.3l1.9-2.3l-1.9-2.2h0.4L188.6,317.6z"/>
	<path d="M192.1,318.9v-3.1h-0.7v-0.3h0.7V314h0.3v1.5h1.6v0.3h-1.6v3.1c0,0.7,0.4,1,0.9,1c0.2,0,0.5-0.1,0.7-0.2v0.3
		c-0.2,0.1-0.5,0.2-0.7,0.2C192.6,320.2,192.1,319.7,192.1,318.9z"/>
	<path d="M195.3,315.5h0.3v1.4c0.3-0.8,1-1.5,1.9-1.5v0.3h0c-1.1,0-1.9,1.1-1.9,2.2v2.2h-0.3V315.5z"/>
	<path d="M198,318.8L198,318.8c0-1,0.9-1.5,2-1.5c0.6,0,1.2,0.1,1.6,0.3v-0.3c0-1-0.6-1.5-1.6-1.5c-0.6,0-1,0.2-1.5,0.4l-0.1-0.3
		c0.5-0.2,1-0.4,1.6-0.4c0.6,0,1.1,0.2,1.4,0.5c0.3,0.3,0.5,0.7,0.5,1.3v2.8h-0.3v-0.9c-0.2,0.5-0.9,1.1-1.9,1.1
		C198.8,320.2,198,319.7,198,318.8z M201.6,318.4v-0.6c-0.4-0.1-1-0.3-1.6-0.3c-1,0-1.7,0.4-1.7,1.2v0c0,0.7,0.7,1.1,1.4,1.1
		C200.8,319.9,201.6,319.2,201.6,318.4z"/>
	<path d="M203.5,313.8h0.3v6h3.8v0.3h-4.1V313.8z"/>
	<path d="M208.8,313.7h0.4v0.5h-0.4V313.7z M208.9,315.5h0.3v4.5h-0.3V315.5z"/>
	<path d="M210.8,320.8l0.2-0.2c0.6,0.4,1.2,0.7,1.9,0.7c1.1,0,1.9-0.6,1.9-1.9v-0.8c-0.4,0.7-1.1,1.2-2,1.2c-1.2,0-2.2-0.9-2.2-2.1
		v0c0-1.2,1-2.2,2.2-2.2c0.9,0,1.6,0.5,2,1.2v-1.1h0.3v3.8c0,0.7-0.2,1.2-0.6,1.6c-0.4,0.4-1,0.6-1.6,0.6
		C212.1,321.5,211.4,321.3,210.8,320.8z M214.8,317.6L214.8,317.6c0-1.1-0.9-1.9-2-1.9c-1.1,0-1.9,0.8-1.9,1.9v0
		c0,1.1,0.9,1.9,1.9,1.9S214.8,318.6,214.8,317.6z"/>
	<path d="M216.8,313.5h0.3v3.1c0.2-0.5,0.8-1.2,1.7-1.2c1.2,0,1.9,0.8,1.9,2v2.7h-0.3v-2.6c0-1.1-0.6-1.8-1.6-1.8
		c-1,0-1.7,0.8-1.7,1.8v2.6h-0.3V313.5z"/>
	<path d="M222.5,318.9v-3.1h-0.7v-0.3h0.7V314h0.3v1.5h1.6v0.3h-1.6v3.1c0,0.7,0.4,1,0.9,1c0.2,0,0.5-0.1,0.7-0.2v0.3
		c-0.2,0.1-0.5,0.2-0.7,0.2C223,320.2,222.5,319.7,222.5,318.9z"/>
</g>
<g>
	<path d="M756.7,263.9h2.6l5.4,12.7h-2.9l-1.2-2.8h-5.3l-1.2,2.8h-2.8L756.7,263.9z M759.6,271.4l-1.7-4.1l-1.7,4.1H759.6z"/>
	<path d="M751.7,285.6h3l3.3,5.3l3.3-5.3h3v12.6h-2.8V290l-3.5,5.4h-0.1l-3.5-5.3v8.2h-2.7V285.6z"/>
	<path d="M753.5,307.2h9.5v2.5h-6.8v2.6h5.9v2.5h-5.9v2.6h6.8v2.5h-9.6V307.2z"/>
	<path d="M753,328.8h5.8c1.6,0,2.8,0.5,3.7,1.3c0.7,0.7,1.1,1.7,1.1,2.9v0c0,2-1.1,3.3-2.7,3.9l3.1,4.5h-3.2l-2.7-4h-2.2v4H753
		V328.8z M758.6,335c1.4,0,2.1-0.7,2.1-1.8v0c0-1.2-0.8-1.8-2.2-1.8h-2.8v3.6H758.6z"/>
	<path d="M756.6,350.4h2.8V363h-2.8V350.4z"/>
	<path d="M752.3,378.4L752.3,378.4c0-3.6,2.7-6.6,6.6-6.6c2.4,0,3.8,0.8,5,1.9l-1.8,2c-1-0.9-2-1.4-3.2-1.4c-2.1,0-3.7,1.8-3.7,3.9
		v0c0,2.2,1.5,4,3.7,4c1.4,0,2.3-0.6,3.3-1.5l1.8,1.8c-1.3,1.4-2.7,2.3-5.2,2.3C755.1,384.9,752.3,382,752.3,378.4z"/>
	<path d="M756.7,393.5h2.6l5.4,12.7h-2.9l-1.2-2.8h-5.3l-1.2,2.8h-2.8L756.7,393.5z M759.6,401l-1.7-4.1l-1.7,4.1H759.6z"/>
	<path d="M752.4,415.2h2.6l5.9,7.8v-7.8h2.7v12.6h-2.4l-6.1-8v8h-2.7V415.2z"/>
</g>
<g>
	<path d="M580.4,185.9l1.9-1.5c0.7-0.6,1-0.9,1-1.3c0-0.5-0.3-0.7-0.8-0.7c-0.4,0-0.7,0.2-1.1,0.8l-0.9-0.7c0.6-0.8,1.1-1.2,2.1-1.2
		c1.2,0,1.9,0.7,1.9,1.7v0c0,0.9-0.5,1.4-1.5,2.2l-0.9,0.7h2.4v1.1h-4.1V185.9z"/>
	<path d="M580,193.7L580,193.7c0-1.6,1-2.9,2.5-2.9c1.5,0,2.5,1.3,2.5,2.9v0c0,1.6-1,2.9-2.5,2.9S580,195.3,580,193.7z M583.7,193.7
		L583.7,193.7c0-1-0.5-1.8-1.2-1.8c-0.7,0-1.2,0.7-1.2,1.8v0c0,1,0.5,1.8,1.2,1.8C583.3,195.4,583.7,194.7,583.7,193.7z"/>
	<path d="M580,203.3L580,203.3c0-1.6,1-2.9,2.5-2.9c1.5,0,2.5,1.3,2.5,2.9v0c0,1.6-1,2.9-2.5,2.9S580,204.9,580,203.3z M583.7,203.3
		L583.7,203.3c0-1-0.5-1.8-1.2-1.8c-0.7,0-1.2,0.7-1.2,1.8v0c0,1,0.5,1.8,1.2,1.8C583.3,205,583.7,204.3,583.7,203.3z"/>
	<path d="M580,212.9L580,212.9c0-1.6,1-2.9,2.5-2.9c1.5,0,2.5,1.3,2.5,2.9v0c0,1.6-1,2.9-2.5,2.9S580,214.5,580,212.9z M583.7,212.9
		L583.7,212.9c0-1-0.5-1.8-1.2-1.8c-0.7,0-1.2,0.7-1.2,1.8v0c0,1,0.5,1.8,1.2,1.8C583.3,214.6,583.7,213.9,583.7,212.9z"/>
</g>
<g>
	<path d="M519.1,259.9l1.5-1.3c0.7,0.8,1.5,1.2,2.5,1.2c0.8,0,1.4-0.4,1.4-0.9c0-0.4-0.3-0.7-1.5-1.2c-1.2-0.5-2.2-1.1-2.2-2.5
		c0-0.8,0.3-1.5,0.8-2c0.7-0.7,1.7-1,2.8-1c1.6,0,2.6,0.5,3.4,1.4l-1.4,1.4c-0.7-0.6-1.3-1-2.2-1c-0.8,0-1.3,0.5-1.3,0.9
		c0,0.5,0.4,0.7,1.6,1.2c1.2,0.5,2.2,1.1,2.2,2.5c0,0.8-0.3,1.5-0.8,2c-0.7,0.7-1.7,1-2.8,1C521.4,261.6,520,261,519.1,259.9z"/>
	<path d="M527.6,259.7c0-0.7,0.2-1.3,0.7-1.7c0.5-0.5,1.4-0.8,2.3-0.8c0.8,0,1.4,0.1,2,0.3l0-0.1c0-0.2,0.1-0.3,0.1-0.5
		c0-0.5-0.3-0.8-1.3-0.8c-0.7,0-1.4,0.2-1.9,0.4l-0.3-1.6c0.7-0.3,1.6-0.5,2.6-0.5c1.9,0,2.8,0.8,2.8,2.1c0,0.4-0.1,0.7-0.2,1.1
		l-1,3.8h-1.9l0.2-0.8c-0.6,0.6-1.3,0.9-2.1,0.9C528.4,261.6,527.6,260.8,527.6,259.7z M532.3,258.9l0.1-0.2
		c-0.3-0.1-0.8-0.2-1.3-0.2c-0.5,0-0.9,0.1-1.1,0.4c-0.2,0.2-0.3,0.4-0.3,0.7c0,0.4,0.4,0.7,0.9,0.7
		C531.3,260.3,532,259.6,532.3,258.9z"/>
	<path d="M537,254.5h2l-0.2,0.7c0.5-0.4,1.1-0.9,1.9-0.9c1.2,0,2.1,0.8,2.1,2c0,0.4-0.1,0.9-0.2,1.3l-1,3.7h-2l1-3.8
		c0.1-0.2,0.1-0.5,0.1-0.6c0-0.6-0.4-0.9-1-0.9c-0.8,0-1.3,0.6-1.5,1.4l-1.1,3.9h-2L537,254.5z"/>
	<path d="M542.9,260.4l1.1-1.2c0.7,0.7,1.5,0.9,2.1,0.9c0.5,0,0.8-0.2,0.8-0.6c0-0.3-0.3-0.4-0.8-0.7c-1.1-0.5-2-0.9-2-2
		c0-1.4,1.1-2.4,2.8-2.4c1.1,0,2.2,0.5,2.7,1l-1.1,1.2c-0.7-0.5-1.2-0.7-1.8-0.7c-0.5,0-0.8,0.2-0.8,0.6c0,0.3,0.3,0.5,0.9,0.7
		c0.9,0.4,1.9,0.9,1.9,2c0,1.5-1.2,2.5-2.9,2.5C545,261.6,543.7,261.2,542.9,260.4z"/>
	<path d="M518.9,275.5l1.5-1.3c0.7,0.8,1.5,1.2,2.5,1.2c0.8,0,1.4-0.4,1.4-0.9c0-0.4-0.3-0.7-1.5-1.2c-1.2-0.5-2.2-1.1-2.2-2.5
		c0-0.8,0.3-1.5,0.8-2c0.7-0.7,1.7-1,2.8-1c1.6,0,2.6,0.5,3.4,1.4l-1.4,1.4c-0.7-0.6-1.3-1-2.2-1c-0.8,0-1.3,0.5-1.3,0.9
		c0,0.5,0.4,0.7,1.6,1.2c1.2,0.5,2.2,1.1,2.2,2.5c0,0.8-0.3,1.5-0.8,2c-0.7,0.7-1.7,1-2.8,1C521.1,277.2,519.7,276.6,518.9,275.5z"
		/>
	<path d="M529.6,274.3c0.1,0.8,0.6,1.4,1.6,1.4c0.5,0,1-0.2,1.5-0.6l0.9,1.2c-0.6,0.5-1.5,0.9-2.7,0.9c-2,0-3.2-1.2-3.2-3.1
		c0-1.1,0.5-2.2,1.3-3c0.7-0.7,1.7-1.2,2.9-1.2c1.8,0,2.8,1.2,2.8,2.7c0,0.5-0.1,1.1-0.4,1.6H529.6z M529.8,273.1h3
		c0-0.1,0.1-0.3,0.1-0.5c0-0.6-0.3-1-1.1-1c-0.5,0-1,0.2-1.4,0.6C530.1,272.4,530,272.7,529.8,273.1z"/>
	<path d="M537,270.1h2l-0.4,1.4c0.7-1,1.5-1.6,2.7-1.5l-0.6,2.1h-0.1c-1.3,0-2.3,0.8-2.8,2.6l-0.7,2.5h-2L537,270.1z"/>
	<path d="M542.5,270.1h2l-1.9,7h-2L542.5,270.1z M543.2,267.6h2.1l-0.5,1.8h-2.1L543.2,267.6z"/>
	<path d="M546.3,271.8h-0.8l0.5-1.7h0.8l0.1-0.3c0.2-0.8,0.5-1.3,0.8-1.6c0.5-0.5,1.2-0.7,2-0.7c0.6,0,1,0.1,1.4,0.2l-0.4,1.6
		c-0.3-0.1-0.6-0.2-0.9-0.2c-0.5,0-0.8,0.2-1,0.8l-0.1,0.2h1.7l-0.5,1.7h-1.6l-1.4,5.3h-2L546.3,271.8z"/>
</g>
<g>
	<path d="M646.7,255.6h2.2l7.1,9.2v-9.2h2.3v13.3h-2l-7.3-9.5v9.5h-2.3V255.6z"/>
	<path d="M647.8,278.4h9.9v2.1h-7.5v3.5h6.7v2.1h-6.7v3.6h7.6v2.1h-10V278.4z"/>
	<path d="M642.6,301.2h2.5l3.2,9.9l3.3-9.9h2l3.3,9.9l3.2-9.9h2.5l-4.6,13.4h-2l-3.3-9.6l-3.3,9.6h-2L642.6,301.2z"/>
	<path d="M651.3,354.8l-5.3-8.1h2.8l3.7,5.9l3.8-5.9h2.7l-5.3,8v5.3h-2.4V354.8z"/>
	<path d="M645.5,376.3L645.5,376.3c0-3.8,2.9-6.9,7-6.9c4.1,0,6.9,3.1,6.9,6.8v0c0,3.7-2.9,6.9-7,6.9
		C648.4,383.1,645.5,380,645.5,376.3z M657,376.3L657,376.3c0-2.6-1.9-4.8-4.5-4.8s-4.5,2.1-4.5,4.7v0c0,2.6,1.9,4.7,4.5,4.7
		S657,378.8,657,376.3z"/>
	<path d="M647.3,392.4h5.9c1.7,0,3,0.5,3.8,1.3c0.7,0.7,1.1,1.7,1.1,2.9v0c0,2.2-1.3,3.5-3.2,4l3.6,5h-2.8l-3.3-4.6h-2.9v4.6h-2.3
		V392.4z M653.1,399c1.7,0,2.7-0.9,2.7-2.2v0c0-1.4-1-2.2-2.8-2.2h-3.4v4.5H653.1z"/>
	<path d="M647.3,415.2h2.3v6.7l6.3-6.7h2.9l-5.5,5.7l5.8,7.6h-2.8l-4.5-6l-2.1,2.1v3.9h-2.3V415.2z"/>
</g>
<g>
	<path d="M627.6,329.5c0-2.4,1-4.8,2.7-6.4c1.5-1.5,3.5-2.4,5.7-2.4c2.3,0,4.1,1.2,5,3l-0.4,0.2c-0.8-1.6-2.4-2.8-4.6-2.8
		c-2.1,0-4,0.9-5.3,2.3c-1.6,1.6-2.6,3.9-2.6,6.2c0,3.3,2.3,5.2,5.1,5.2c2.4,0,4-1,5.3-2.3l0.3,0.3c-1.3,1.3-3.1,2.4-5.6,2.4
		C630.1,335.1,627.6,333,627.6,329.5z"/>
	<path d="M643.6,324.8h0.4l-2.7,10h-0.4L643.6,324.8z M644.5,320.8h0.6l-0.3,1.1h-0.6L644.5,320.8z"/>
	<path d="M646.3,333.2c0-0.3,0.1-0.6,0.2-1l1.9-6.9h-1.6l0.1-0.4h1.6l0.9-3.5h0.4l-0.9,3.5h3.7l-0.1,0.4h-3.7l-1.9,6.9
		c-0.1,0.4-0.2,0.7-0.2,1c0,1,0.6,1.5,1.8,1.5c0.5,0,0.9-0.1,1.4-0.3l-0.1,0.5c-0.4,0.2-0.8,0.2-1.4,0.2
		C647,335,646.3,334.4,646.3,333.2z"/>
	<path d="M653.8,324.8h0.4l2.1,9.7l6.8-9.7h0.5l-7.1,10.1c-2,2.8-3,3.2-4.1,3.2c-0.9,0-1.5-0.3-1.9-0.5l0.2-0.3
		c0.5,0.3,1,0.5,1.7,0.5c1,0,2-0.4,3.7-2.8L653.8,324.8z"/>
</g>
<g>
	<path d="M477.7,324.7v-8.1h5v8c0,1.8,0.9,2.6,2.3,2.6c1.3,0,2.3-0.7,2.3-2.5v-8.1h5v8c0,5-2.9,7-7.3,7
		C480.6,331.6,477.7,329.6,477.7,324.7z"/>
	<path d="M477.7,354.3l2.6-3.1c1.6,1.2,3.4,1.7,5.1,1.7c0.9,0,1.3-0.2,1.3-0.6v0c0-0.4-0.5-0.7-2-1c-3.3-0.7-6.2-1.6-6.2-4.7v0
		c0-2.8,2.2-5,6.2-5c2.8,0,4.9,0.7,6.6,2l-2.4,3.3c-1.4-1-3-1.4-4.4-1.4c-0.7,0-1.1,0.3-1.1,0.6v0c0,0.4,0.4,0.7,2,0.9
		c3.8,0.7,6.3,1.8,6.3,4.7v0c0,3.1-2.5,5-6.5,5C482.2,356.8,479.5,356,477.7,354.3z"/>
	<path d="M482.6,366.9h4.9l6.2,14.8h-5.3l-0.8-2h-5.1l-0.8,2h-5.2L482.6,366.9z M486.3,376.3l-1.3-3.6l-1.3,3.6H486.3z"/>
</g>
<g>
	<path d="M309.8,341.2h1.3v1c0.4-0.6,1-1.1,2-1.1c1.4,0,2.7,1.1,2.7,3v0c0,1.9-1.3,3-2.7,3c-1,0-1.6-0.5-2-1v2.7h-1.3V341.2z
		 M314.5,344.1L314.5,344.1c0-1.1-0.8-1.9-1.7-1.9c-0.9,0-1.7,0.7-1.7,1.9v0c0,1.1,0.8,1.9,1.7,1.9
		C313.7,346,314.5,345.3,314.5,344.1z"/>
	<path d="M317.2,341.2h1.3v1.3c0.4-0.9,1-1.5,2.1-1.4v1.4h-0.1c-1.2,0-2,0.8-2,2.3v2.2h-1.3V341.2z"/>
	<path d="M321.2,344.2L321.2,344.2c0-1.7,1.3-3.1,3.1-3.1s3.1,1.4,3.1,3v0c0,1.7-1.3,3-3.1,3C322.6,347.2,321.2,345.8,321.2,344.2z
		 M326.1,344.2L326.1,344.2c0-1-0.7-1.9-1.8-1.9c-1.1,0-1.7,0.8-1.7,1.8v0c0,1,0.7,1.9,1.8,1.9C325.4,346,326.1,345.2,326.1,344.2z"
		/>
	<path d="M330.8,343.2l1.3-1.9h1.4l-2,2.8l2.1,3h-1.5l-1.4-2.1l-1.4,2.1h-1.4l2.1-3l-2-2.8h1.5L330.8,343.2z"/>
	<path d="M334.8,339.1h1.4v1.3h-1.4V339.1z M334.9,341.2h1.3v5.8h-1.3V341.2z"/>
	<path d="M337.9,341.2h1.3v0.9c0.4-0.5,0.9-1,1.8-1c0.8,0,1.4,0.4,1.7,1c0.5-0.6,1.1-1,2-1c1.3,0,2,0.8,2,2.2v3.7h-1.3v-3.3
		c0-0.9-0.4-1.4-1.2-1.4c-0.7,0-1.2,0.5-1.2,1.4v3.3h-1.3v-3.3c0-0.9-0.4-1.4-1.2-1.4c-0.7,0-1.2,0.5-1.2,1.4v3.3h-1.3V341.2z"/>
	<path d="M348,345.4L348,345.4c0-1.3,1-1.9,2.4-1.9c0.6,0,1.1,0.1,1.6,0.2v-0.1c0-0.8-0.5-1.3-1.4-1.3c-0.6,0-1.1,0.1-1.7,0.4
		l-0.4-1c0.6-0.3,1.3-0.5,2.2-0.5c0.9,0,1.5,0.2,1.9,0.6c0.4,0.4,0.6,1,0.6,1.8v3.4h-1.3v-0.7c-0.4,0.5-1,0.8-1.9,0.8
		C349,347.2,348,346.5,348,345.4z M352,344.9v-0.4c-0.3-0.1-0.8-0.2-1.3-0.2c-0.9,0-1.4,0.4-1.4,1v0c0,0.6,0.5,0.9,1.1,0.9
		C351.3,346.2,352,345.7,352,344.9z"/>
	<path d="M310.3,354h1.6l5.3,6.8V354h1.7v9.8h-1.4l-5.4-7v7h-1.7V354z"/>
	<path d="M320.9,359L320.9,359c0-2.8,2.1-5.1,5.1-5.1s5.1,2.3,5.1,5v0c0,2.8-2.1,5.1-5.1,5.1C323,364,320.9,361.7,320.9,359z
		 M329.3,359L329.3,359c0-1.9-1.4-3.5-3.3-3.5c-1.9,0-3.3,1.6-3.3,3.5v0c0,1.9,1.4,3.5,3.3,3.5C328,362.4,329.3,360.9,329.3,359z"/>
	<path d="M331.8,354h1.9l3,7.5l2.9-7.5h1.9l-4.1,9.9h-1.5L331.8,354z"/>
	<path d="M345.2,354h1.6l4.3,9.9h-1.8l-1-2.4h-4.6l-1,2.4h-1.8L345.2,354z M347.6,359.9l-1.7-3.9l-1.7,3.9H347.6z"/>
</g>
<g>
	<path d="M250.9,235l-0.5,1.9h-0.2l2.2-8h0.2l-1.1,3.9c0.3-0.6,1.3-1.5,2.7-1.5c1.3,0,2.3,1,2.3,2.3c0,0.9-0.4,1.9-1.1,2.6
		c-0.5,0.5-1.2,0.9-2,0.9C251.9,237,251.1,235.9,250.9,235z M255.2,236c0.6-0.6,1-1.5,1-2.4c0-1.2-0.8-2.2-2-2.2
		c-0.8,0-1.5,0.4-2.1,0.9c-0.6,0.6-1,1.5-1,2.1c0,1.3,0.9,2.3,2.2,2.3C254.1,236.8,254.7,236.5,255.2,236z"/>
	<path d="M250.9,248.4c0-0.3,0.1-0.6,0.1-1l0.8-2.9h0.2l-0.8,2.9c-0.1,0.3-0.1,0.6-0.1,0.9c0,0.9,0.5,1.6,1.7,1.6
		c1.1,0,2.3-0.9,2.7-2.4l0.8-3h0.2l-1.5,5.5h-0.2l0.4-1.4c-0.4,0.8-1.2,1.6-2.4,1.6C251.5,250.2,250.9,249.5,250.9,248.4z"/>
	<path d="M250.8,262.5l0.2-0.2c0.6,0.5,1.3,0.8,2.1,0.8c1.2,0,1.8-0.7,1.8-1.3c0-0.7-0.5-1-1.5-1.3c-0.8-0.3-1.6-0.7-1.6-1.4
		c0-0.7,0.7-1.5,2-1.5c0.5,0,1.4,0.2,1.9,0.7l-0.2,0.2c-0.6-0.5-1.3-0.7-1.8-0.7c-1.1,0-1.7,0.6-1.7,1.2c0,0.7,0.6,0.9,1.5,1.3
		c0.9,0.4,1.6,0.7,1.6,1.5c0,0.7-0.7,1.5-2,1.5C252.3,263.4,251.4,263,250.8,262.5z"/>
	<path d="M252.3,288.7c0-0.2,0-0.4,0.1-0.6l1-3.8h-0.9l0.1-0.2h0.9l0.5-1.9h0.2l-0.5,1.9h2l-0.1,0.2h-2l-1,3.8
		c-0.1,0.2-0.1,0.4-0.1,0.5c0,0.6,0.4,0.8,1,0.8c0.3,0,0.5,0,0.8-0.2l-0.1,0.3c-0.2,0.1-0.5,0.1-0.7,0.1
		C252.7,289.8,252.3,289.4,252.3,288.7z"/>
	<path d="M251.1,300.2c0,0.2,0,0.3,0,0.5c0,1.3,0.8,2.1,2.2,2.1c0.6,0,1.4-0.2,2-0.8l0.1,0.2c-0.7,0.6-1.5,0.8-2.2,0.8
		c-1.5,0-2.5-0.9-2.5-2.3c0-1,0.4-1.9,1.1-2.6c0.6-0.6,1.3-0.9,2.1-0.9c1.6,0,2.1,1.1,2.1,2.2c0,0.3,0,0.5-0.1,0.8H251.1z
		 M251.1,300h4.7c0-0.2,0.1-0.4,0.1-0.6c0-1-0.5-1.9-1.9-1.9c-0.7,0-1.4,0.3-1.9,0.8C251.6,298.8,251.3,299.3,251.1,300z"/>
	<path d="M253.4,310.6h0.2l-0.5,1.7c0.7-1.2,1.8-1.8,2.8-1.8l-0.1,0.2h0c-1,0-2.6,1.2-2.9,2.6l-0.7,2.8h-0.2L253.4,310.6z"/>
	<path d="M250.2,323.8h0.2l-0.4,1.4c0.4-0.7,1.1-1.6,2.2-1.6c1.1,0,1.7,0.7,1.7,1.7c0.4-0.8,1.2-1.7,2.3-1.7c1.1,0,1.7,0.7,1.7,1.7
		c0,0.3-0.1,0.7-0.2,1.1l-0.8,2.9h-0.2l0.8-2.9c0.1-0.4,0.2-0.7,0.2-1.1c0-0.9-0.5-1.5-1.5-1.5c-1.1,0-2.1,1.1-2.4,2.4l-0.8,3h-0.2
		l0.8-2.9c0.1-0.4,0.2-0.7,0.2-1.1c0-0.9-0.5-1.5-1.5-1.5c-1.1,0-2.1,1.1-2.4,2.4l-0.8,3h-0.2L250.2,323.8z"/>
	<path d="M254.1,337h0.2l-1.5,5.5h-0.2L254.1,337z M254.6,334.8h0.3l-0.2,0.6h-0.3L254.6,334.8z"/>
	<path d="M251.9,350.2h0.2l-0.4,1.4c0.4-0.8,1.2-1.6,2.4-1.6c1.3,0,1.9,0.7,1.9,1.8c0,0.3-0.1,0.6-0.1,1l-0.8,2.9h-0.2l0.8-2.9
		c0.1-0.3,0.1-0.6,0.1-0.9c0-0.9-0.5-1.6-1.7-1.6c-1.1,0-2.3,0.9-2.7,2.4l-0.8,3h-0.2L251.9,350.2z"/>
	<path d="M250.7,367.5c0-0.5,0.2-0.9,0.5-1.3c0.4-0.4,1.1-0.7,2-0.7c0.8,0,1.6,0.1,2.3,0.3l0.1-0.3c0.1-0.2,0.1-0.5,0.1-0.7
		c0-1-0.8-1.5-2-1.5c-0.6,0-1.2,0.1-1.5,0.3l-0.1-0.2c0.4-0.1,1-0.3,1.6-0.3c1.3,0,2.2,0.5,2.2,1.7c0,0.2,0,0.5-0.1,0.7l-0.8,3.2
		h-0.2l0.4-1.3c-0.5,0.8-1.3,1.4-2.6,1.4C251.6,369,250.7,368.5,250.7,367.5z M255.3,366.6l0.1-0.5c-0.7-0.2-1.5-0.3-2.3-0.3
		c-0.8,0-1.4,0.2-1.8,0.6c-0.3,0.3-0.4,0.6-0.4,1.1c0,0.9,0.8,1.3,1.6,1.3C253.9,368.8,255,367.8,255.3,366.6z"/>
	<path d="M254.8,374h0.2l-2.2,8h-0.2L254.8,374z"/>
</g>
<g>
	<path d="M267.5,284.8h-0.9l0.4-1.4h0.9l0.1-0.5c0.2-0.7,0.4-1.2,0.8-1.5c0.5-0.5,1.1-0.7,1.8-0.7c0.5,0,1,0.1,1.4,0.2l-0.4,1.3
		c-0.3-0.1-0.6-0.2-1-0.2c-0.6,0-0.9,0.3-1.1,1l-0.1,0.4h1.9l-0.4,1.4H269l-1.5,5.5H266L267.5,284.8z M272.7,283.5h1.6l-1.8,6.9
		h-1.6L272.7,283.5z M273.3,280.9h1.7l-0.4,1.5h-1.7L273.3,280.9z"/>
	<path d="M277.1,280.8h1.6l-2.5,9.5h-1.6L277.1,280.8z"/>
	<path d="M280,283.5h1.6l-0.2,0.9c0.5-0.5,1.1-1,2-1c1,0,1.6,0.6,1.9,1.4c0.6-0.8,1.5-1.4,2.6-1.4c1.2,0,2,0.8,2,2.1
		c0,0.4-0.1,0.8-0.2,1.2l-1,3.7h-1.6l1-3.8c0.1-0.2,0.1-0.5,0.1-0.7c0-0.7-0.4-1.1-1.1-1.1c-0.9,0-1.6,0.7-1.8,1.7l-1,3.9h-1.6
		l1-3.8c0.1-0.2,0.1-0.5,0.1-0.7c0-0.7-0.4-1.1-1.1-1.1c-0.9,0-1.6,0.7-1.8,1.7l-1,3.9h-1.6L280,283.5z"/>
	<path d="M265.5,304.7c0-0.3,0-0.5,0.1-0.8l0.9-3.5h-0.9l0.4-1.4h0.9l0.5-1.9h1.6l-0.5,1.9h1.8l-0.4,1.4h-1.8l-0.9,3.3
		c0,0.1-0.1,0.3-0.1,0.4c0,0.4,0.2,0.5,0.7,0.5c0.3,0,0.7-0.1,1-0.2l-0.4,1.4c-0.4,0.2-0.8,0.2-1.3,0.2
		C266.1,306,265.5,305.5,265.5,304.7z"/>
	<path d="M271.9,299.1h1.6l-1.8,6.9h-1.6L271.9,299.1z M272.6,296.5h1.7l-0.4,1.5h-1.7L272.6,296.5z"/>
	<path d="M274.5,304.7c0-0.3,0-0.5,0.1-0.8l0.9-3.5h-0.9l0.4-1.4h0.9l0.5-1.9h1.6l-0.5,1.9h1.8l-0.4,1.4h-1.8l-0.9,3.3
		c0,0.1-0.1,0.3-0.1,0.4c0,0.4,0.2,0.5,0.7,0.5c0.3,0,0.7-0.1,1-0.2l-0.4,1.4c-0.4,0.2-0.8,0.2-1.3,0.2
		C275.1,306,274.5,305.5,274.5,304.7z"/>
	<path d="M281.7,296.4h1.6l-2.5,9.5h-1.6L281.7,296.4z"/>
	<path d="M284.8,303c0,1,0.6,1.8,1.8,1.8c0.7,0,1.2-0.2,1.8-0.7l0.8,1c-0.6,0.5-1.5,0.9-2.7,0.9c-1.9,0-3.1-1.2-3.1-3
		c0-1.1,0.5-2.2,1.3-3c0.7-0.7,1.7-1.2,2.8-1.2c1.8,0,2.7,1.2,2.7,2.7c0,0.5-0.1,1-0.3,1.5H284.8z M284.9,302h3.6
		c0-0.1,0.1-0.3,0.1-0.5c0-0.7-0.4-1.3-1.4-1.3c-0.6,0-1.2,0.3-1.6,0.7C285.3,301.2,285.1,301.6,284.9,302z"/>
	<path d="M262.2,318.6c0-1.1,0.5-2.2,1.2-2.9c0.7-0.7,1.8-1.2,2.8-1.2c1.5,0,2.3,0.7,2.8,1.6l-1.2,0.8c-0.4-0.6-0.8-1-1.7-1
		c-0.5,0-1.1,0.3-1.5,0.7c-0.5,0.5-0.8,1.3-0.8,2.1c0,1.1,0.7,1.7,1.6,1.7c0.7,0,1.2-0.3,1.8-0.8l0.8,1c-0.7,0.7-1.5,1.1-2.6,1.1
		C263.6,321.7,262.2,320.5,262.2,318.6z"/>
	<path d="M269.1,319.8c0-0.7,0.2-1.2,0.6-1.7c0.5-0.5,1.4-0.8,2.4-0.8c0.8,0,1.5,0.2,2.1,0.3l0-0.1c0-0.2,0.1-0.4,0.1-0.6
		c0-0.6-0.4-1-1.5-1c-0.7,0-1.3,0.2-1.9,0.4l-0.3-1.3c0.7-0.3,1.5-0.5,2.4-0.5c1.8,0,2.7,0.8,2.7,2.1c0,0.3-0.1,0.7-0.1,1l-1,3.8
		h-1.5l0.2-0.9c-0.6,0.7-1.3,1.1-2.3,1.1C270,321.7,269.1,320.9,269.1,319.8z M273.9,318.9l0.1-0.3c-0.4-0.1-1-0.3-1.7-0.3
		c-0.6,0-1,0.2-1.3,0.5c-0.2,0.2-0.3,0.5-0.3,0.8c0,0.5,0.4,0.9,1.1,0.9C272.7,320.5,273.7,319.8,273.9,318.9z"/>
	<path d="M278.4,314.7h1.6l-0.4,1.5c0.8-1.1,1.7-1.8,2.9-1.7l-0.4,1.7h-0.1c-1.4,0-2.6,0.9-3.1,2.8l-0.7,2.5h-1.6L278.4,314.7z"/>
	<path d="M287.3,320.6c-0.6,0.6-1.3,1.1-2.2,1.1c-1.5,0-2.7-1.1-2.7-2.9c0-1.3,0.5-2.3,1.2-3.1c0.7-0.7,1.6-1.1,2.6-1.1
		c1.2,0,1.9,0.6,2.3,1.4l1-3.8h1.6l-2.5,9.5H287L287.3,320.6z M287.3,319.6c0.5-0.5,0.9-1.2,0.9-2c0-1-0.7-1.7-1.7-1.7
		c-0.6,0-1.1,0.2-1.5,0.7c-0.5,0.5-0.8,1.2-0.8,2.1c0,1,0.7,1.7,1.6,1.7C286.2,320.3,286.8,320,287.3,319.6z"/>
</g>
<g>
	<path d="M265.8,128.5l2.9-2.8c1-0.9,1.1-1.4,1.1-1.9c0-0.8-0.7-1.4-1.7-1.4c-0.9,0-1.6,0.5-2,1.3l-0.2-0.1c0.4-0.8,1.1-1.4,2.1-1.4
		c1.1,0,1.9,0.7,1.9,1.6v0c0,0.5-0.2,1-1.2,2.1l-2.6,2.6h3.9v0.2h-4.3V128.5z"/>
	<path d="M265.4,136.2L265.4,136.2c0-1.7,0.9-3.3,2.6-3.3c1.6,0,2.6,1.5,2.6,3.3v0c0,1.7-0.9,3.3-2.6,3.3
		C266.4,139.5,265.4,138,265.4,136.2z M270.4,136.2L270.4,136.2c0-1.6-0.9-3.1-2.4-3.1s-2.4,1.4-2.4,3.1v0c0,1.6,0.9,3.1,2.4,3.1
		S270.4,137.8,270.4,136.2z"/>
	<path d="M268.1,144l-1.2,0.5l-0.1-0.2l1.3-0.6h0.2v6.3h-0.2V144z"/>
	<path d="M265.8,160.1l0.2-0.1c0.4,0.5,1.2,1,2,1c1.2,0,2-0.7,2-1.8v0c0-1-0.8-1.7-1.9-1.7c-0.5,0-1.1,0.1-1.7,0.4l-0.1-0.1l0.2-3.1
		h3.4v0.2h-3.2l-0.2,2.7c0.5-0.2,1-0.4,1.6-0.4c1.2,0,2.1,0.7,2.1,1.9v0c0,1.2-0.9,2-2.2,2C267.1,161.1,266.3,160.6,265.8,160.1z"/>
</g>
<g>
	<path d="M775.9,290.4h1.8l-0.9,3.3h3.4l0.9-3.3h1.8l-2.3,8.4h-1.8l0.9-3.4h-3.4l-0.9,3.4h-1.8L775.9,290.4z"/>
	<path d="M781.4,309.6c0,1-0.4,1.9-1.1,2.6c-0.7,0.7-1.6,1.1-2.6,1.1c-1.9,0-3.1-1.3-3.1-3c0-1,0.4-1.9,1.1-2.6
		c0.7-0.7,1.6-1.1,2.6-1.1C780.2,306.6,781.4,307.9,781.4,309.6z M778.9,311.2c0.4-0.4,0.7-1.1,0.7-1.6c0-0.9-0.6-1.5-1.4-1.5
		c-0.5,0-0.9,0.2-1.2,0.5c-0.4,0.4-0.7,1.1-0.7,1.6c0,0.9,0.6,1.5,1.4,1.5C778.2,311.7,778.6,311.5,778.9,311.2z"/>
	<path d="M776.6,325c0.1,0.8,0.5,1.3,1.5,1.3c0.5,0,0.9-0.1,1.4-0.5l0.8,1.1c-0.6,0.5-1.4,0.9-2.5,0.9c-1.8,0-3-1.1-3-2.9
		c0-1,0.4-2,1.2-2.7c0.7-0.7,1.6-1.1,2.7-1.1c1.7,0,2.6,1.1,2.6,2.5c0,0.5-0.1,1-0.3,1.5H776.6z M776.7,323.8h2.8
		c0-0.1,0.1-0.3,0.1-0.4c0-0.5-0.3-0.9-1.1-0.9c-0.5,0-0.9,0.2-1.3,0.5C777,323.2,776.8,323.5,776.7,323.8z"/>
	<path d="M777.1,337.1h-0.8l0.4-1.6h0.8l0.1-0.3c0.2-0.7,0.4-1.2,0.8-1.5c0.5-0.5,1.1-0.7,1.9-0.7c0.5,0,0.9,0.1,1.2,0.2l-0.4,1.5
		c-0.2-0.1-0.5-0.2-0.8-0.2c-0.5,0-0.8,0.2-0.9,0.7l0,0.2h1.5l-0.4,1.6H779l-1.3,4.9h-1.8L777.1,337.1z"/>
	<path d="M778.6,347.6h1.8l-2.4,8.8h-1.8L778.6,347.6z"/>
	<path d="M776.6,368.2c0.1,0.8,0.5,1.3,1.5,1.3c0.5,0,0.9-0.1,1.4-0.5l0.8,1.1c-0.6,0.5-1.4,0.9-2.5,0.9c-1.8,0-3-1.1-3-2.9
		c0-1,0.4-2,1.2-2.7c0.7-0.7,1.6-1.1,2.7-1.1c1.7,0,2.6,1.1,2.6,2.5c0,0.5-0.1,1-0.3,1.5H776.6z M776.7,367h2.8
		c0-0.1,0.1-0.3,0.1-0.4c0-0.5-0.3-0.9-1.1-0.9c-0.5,0-0.9,0.2-1.3,0.5C777,366.4,776.8,366.7,776.7,367z"/>
	<path d="M777.2,378.7h1.8l-0.3,1.3c0.6-0.9,1.4-1.5,2.4-1.4l-0.5,1.9h-0.1c-1.2,0-2.1,0.7-2.6,2.4l-0.6,2.3h-1.8L777.2,378.7z"/>
	<path d="M783.6,396.1c-0.4,0.6-0.9,1.2-1.3,1.7l0.8,1.1l-1.4,0.9l-0.7-0.9c-0.8,0.6-1.7,0.9-2.6,0.9c-1.6,0-2.7-0.8-2.7-2.3
		c0-1,0.7-2.1,2.4-2.6c-0.3-0.5-0.4-1-0.4-1.5c0-1.2,1-2.3,2.7-2.3c1.4,0,2.3,0.9,2.3,2c0,0.8-0.5,1.7-2.3,2.3l0.9,1.3
		c0.4-0.4,0.7-0.8,1-1.4L783.6,396.1z M780.3,397.7l-1.3-1.8c-1,0.4-1.4,0.9-1.4,1.4c0,0.5,0.4,0.9,1.1,0.9
		C779.2,398.2,779.8,398,780.3,397.7z M779.8,394.3c1.1-0.4,1.4-0.7,1.4-1.2c0-0.3-0.3-0.7-0.8-0.7c-0.6,0-1,0.4-1,0.9
		C779.5,393.6,779.5,393.9,779.8,394.3z"/>
	<path d="M774.4,410.4c0-1.3,0.6-2.6,1.5-3.5c0.9-0.9,2.2-1.5,3.6-1.5c1.6,0,2.7,0.7,3.4,1.8l-1.5,1.1c-0.5-0.7-1.1-1.2-2.1-1.2
		c-0.7,0-1.4,0.3-2,0.9c-0.6,0.6-1,1.5-1,2.4c0,1.2,0.9,2,2.1,2c0.8,0,1.3-0.3,2-0.8l1.2,1.2c-0.8,0.7-1.8,1.3-3.2,1.3
		C776.1,414.1,774.4,412.7,774.4,410.4z"/>
	<path d="M781.4,424.8c0,1-0.4,1.9-1.1,2.6c-0.7,0.7-1.6,1.1-2.6,1.1c-1.9,0-3.1-1.3-3.1-3c0-1,0.4-1.9,1.1-2.6
		c0.7-0.7,1.6-1.1,2.6-1.1C780.2,421.8,781.4,423.1,781.4,424.8z M778.9,426.4c0.4-0.4,0.7-1.1,0.7-1.6c0-0.9-0.6-1.5-1.4-1.5
		c-0.5,0-0.9,0.2-1.2,0.5c-0.4,0.4-0.7,1.1-0.7,1.6c0,0.9,0.6,1.5,1.4,1.5C778.2,426.9,778.6,426.7,778.9,426.4z"/>
</g>
<g>
	<path d="M178.9,417h6.7c1.6,0,2.7,0.4,3.4,1.1c0.4,0.4,0.7,1,0.7,1.9v0c0,1.4-0.9,2.3-2.1,2.7c1.5,0.4,2.5,1.3,2.5,2.9v0
		c0,1.9-1.6,3.3-4.6,3.3h-6.6V417z M185.8,420.8c0-0.5-0.4-0.8-1.3-0.8h-1.7v1.7h1.7C185.4,421.7,185.8,421.4,185.8,420.8
		L185.8,420.8z M184.8,424.1h-2v1.8h2c0.9,0,1.3-0.4,1.3-0.9v0C186.1,424.5,185.7,424.1,184.8,424.1z"/>
	<path d="M190.5,426.3L190.5,426.3c0-1.9,1.4-2.9,3.5-2.9c0.8,0,1.8,0.2,2.2,0.3v-0.2c0-0.9-0.5-1.3-1.7-1.3c-1,0-1.8,0.2-2.6,0.5
		l-0.7-2.6c1.1-0.4,2.3-0.7,3.9-0.7c1.9,0,3.1,0.4,3.9,1.2c0.7,0.7,1,1.6,1,2.9v5.3h-3.9V428c-0.6,0.7-1.5,1.2-2.7,1.2
		C191.8,429.1,190.5,428.1,190.5,426.3z M196.3,425.5v-0.4c-0.2-0.1-0.6-0.2-0.9-0.2c-0.8,0-1.2,0.5-1.2,1v0c0,0.5,0.4,0.9,0.9,0.9
		C195.8,426.9,196.3,426.4,196.3,425.5z"/>
	<path d="M201.2,419.6h3.9v1.9c0.5-1.3,1.4-2.1,2.9-2v4.1h-0.4c-1.6,0-2.5,0.9-2.5,3v2.4h-3.9V419.6z"/>
	<path d="M208.6,419.6h3.9v1.9c0.5-1.3,1.4-2.1,2.9-2v4.1H215c-1.6,0-2.5,0.9-2.5,3v2.4h-3.9V419.6z"/>
	<path d="M215.3,426.3L215.3,426.3c0-1.9,1.4-2.9,3.5-2.9c0.8,0,1.8,0.2,2.2,0.3v-0.2c0-0.9-0.5-1.3-1.7-1.3c-1,0-1.8,0.2-2.6,0.5
		l-0.7-2.6c1.1-0.4,2.3-0.7,3.9-0.7c1.9,0,3.1,0.4,3.9,1.2c0.7,0.7,1,1.6,1,2.9v5.3H221V428c-0.6,0.7-1.5,1.2-2.7,1.2
		C216.5,429.1,215.3,428.1,215.3,426.3z M221,425.5v-0.4c-0.2-0.1-0.6-0.2-0.9-0.2c-0.8,0-1.2,0.5-1.2,1v0c0,0.5,0.4,0.9,0.9,0.9
		C220.5,426.9,221,426.4,221,425.5z"/>
	<path d="M225.6,424.3L225.6,424.3c0-2.6,2-4.9,5.1-4.9c2,0,3.5,1.1,4.2,2.6l-2.8,1.6c-0.3-0.6-0.7-0.9-1.4-0.9
		c-0.8,0-1.4,0.7-1.4,1.6v0c0,1,0.6,1.7,1.4,1.7c0.7,0,1.1-0.3,1.4-0.9l2.8,1.6c-0.8,1.5-2.2,2.5-4.5,2.5
		C227.7,429.1,225.6,426.9,225.6,424.3z"/>
	<path d="M235.6,416.5h3.9v6l2-2.9h4.2l-2.9,3.8l3,5.5h-4.1l-1.3-2.5l-0.8,1v1.6h-3.9V416.5z"/>
	<path d="M250.1,423L250.1,423c0-3.5,2.8-6.2,6.5-6.2c3.7,0,6.5,2.7,6.5,6.2v0c0,3.5-2.8,6.2-6.5,6.2
		C252.9,429.2,250.1,426.4,250.1,423z M259.1,423L259.1,423c0-1.4-1-2.7-2.5-2.7c-1.5,0-2.5,1.3-2.5,2.7v0c0,1.4,1,2.7,2.5,2.7
		C258.2,425.6,259.1,424.4,259.1,423z"/>
	<path d="M268,427.9v1.1h-3.9v-12.4h3.9v4.3c0.6-0.7,1.3-1.4,2.8-1.4c2.2,0,4,2,4,4.8v0c0,2.9-1.8,4.9-4,4.9
		C269.4,429.1,268.6,428.5,268,427.9z M271,424.3L271,424.3c0-1-0.7-1.7-1.5-1.7s-1.5,0.7-1.5,1.7v0c0,0.9,0.7,1.7,1.5,1.7
		S271,425.2,271,424.3z"/>
	<path d="M275.3,426.3L275.3,426.3c0-1.9,1.4-2.9,3.5-2.9c0.8,0,1.8,0.2,2.2,0.3v-0.2c0-0.9-0.5-1.3-1.7-1.3c-1,0-1.8,0.2-2.6,0.5
		l-0.7-2.6c1.1-0.4,2.3-0.7,3.9-0.7c1.9,0,3.1,0.4,3.9,1.2c0.7,0.7,1,1.6,1,2.9v5.3H281V428c-0.6,0.7-1.5,1.2-2.7,1.2
		C276.5,429.1,275.3,428.1,275.3,426.3z M281,425.5v-0.4c-0.2-0.1-0.6-0.2-0.9-0.2c-0.8,0-1.2,0.5-1.2,1v0c0,0.5,0.4,0.9,0.9,0.9
		C280.5,426.9,281,426.4,281,425.5z"/>
	<path d="M285.9,419.6h3.9v1.2c0.6-0.8,1.5-1.5,2.8-1.5c1.3,0,2.2,0.5,2.7,1.5c0.8-0.9,1.7-1.5,3.1-1.5c2,0,3.2,1.3,3.2,3.4v6.1
		h-3.9V424c0-0.8-0.5-1.2-1-1.2c-0.6,0-1.1,0.4-1.1,1.2v4.9h-3.9V424c0-0.8-0.5-1.2-1-1.2s-1.1,0.4-1.1,1.2v4.9h-3.9V419.6z"/>
	<path d="M302.4,426.3L302.4,426.3c0-1.9,1.4-2.9,3.5-2.9c0.8,0,1.8,0.2,2.2,0.3v-0.2c0-0.9-0.5-1.3-1.7-1.3c-1,0-1.8,0.2-2.6,0.5
		l-0.7-2.6c1.1-0.4,2.3-0.7,3.9-0.7c1.9,0,3.1,0.4,3.9,1.2c0.7,0.7,1,1.6,1,2.9v5.3h-3.9V428c-0.6,0.7-1.5,1.2-2.7,1.2
		C303.7,429.1,302.4,428.1,302.4,426.3z M308.2,425.5v-0.4c-0.2-0.1-0.6-0.2-0.9-0.2c-0.8,0-1.2,0.5-1.2,1v0c0,0.5,0.4,0.9,0.9,0.9
		C307.7,426.9,308.2,426.4,308.2,425.5z"/>
</g>
<g>
	<path d="M179.9,325.5h6.1c1.5,0,2.5,0.4,3.2,1.1c0.5,0.5,0.8,1.1,0.8,1.9v0c0,1.4-0.8,2.2-1.8,2.7c1.4,0.5,2.4,1.3,2.4,2.9v0
		c0,2-1.7,3.3-4.5,3.3h-6.1V325.5z M186.7,329.2c0-0.7-0.5-1-1.5-1h-2.2v2.1h2.1C186.2,330.3,186.7,329.9,186.7,329.2L186.7,329.2z
		 M185.6,332.6h-2.5v2.2h2.5c1,0,1.6-0.4,1.6-1.1v0C187.2,333,186.7,332.6,185.6,332.6z"/>
	<path d="M191.9,325h3.2v12.4h-3.2V325z"/>
	<path d="M196.5,334.8L196.5,334.8c0-2,1.4-2.9,3.6-2.9c0.8,0,1.7,0.2,2.2,0.4v-0.2c0-1-0.6-1.5-1.8-1.5c-1,0-1.7,0.2-2.5,0.5
		l-0.7-2.3c1-0.4,2.1-0.7,3.7-0.7c1.6,0,2.8,0.4,3.5,1.1c0.7,0.7,1,1.6,1,2.9v5.3h-3.2v-1c-0.6,0.7-1.5,1.2-2.7,1.2
		C197.8,337.6,196.5,336.6,196.5,334.8z M202.4,334.1v-0.4c-0.3-0.1-0.8-0.2-1.3-0.2c-0.9,0-1.5,0.4-1.5,1.1v0c0,0.6,0.5,1,1.1,1
		C201.7,335.6,202.4,335,202.4,334.1z"/>
	<path d="M206.8,332.9L206.8,332.9c0-2.6,2-4.8,4.9-4.8c1.9,0,3.1,0.8,3.9,2l-2.2,1.6c-0.5-0.6-1-1-1.7-1c-1.1,0-1.8,0.9-1.8,2.1v0
		c0,1.2,0.7,2.1,1.8,2.1c0.8,0,1.3-0.4,1.8-1l2.2,1.6c-0.8,1.3-2.1,2.1-4.1,2.1C208.8,337.6,206.8,335.5,206.8,332.9z"/>
	<path d="M216.8,325h3.2v6.3l2.5-3.1h3.7l-3.2,3.7l3.3,5.5h-3.6l-1.8-3.1l-0.8,1v2.2h-3.2V325z"/>
</g>
<g>
	<path d="M181.8,341h1v15.3h-1V341z"/>
	<path d="M186.9,341.4h1.3v1.4h-1.3V341.4z M187,345.6h1v10.7h-1V345.6z"/>
	<path d="M191.9,358.1l0.6-0.8c1.3,1,2.8,1.5,4.3,1.5c2.5,0,4.2-1.4,4.2-4.2v-1.6c-0.9,1.3-2.4,2.5-4.5,2.5c-2.6,0-5.1-2-5.1-5v0
		c0-3.1,2.6-5.1,5.1-5.1c2.1,0,3.6,1.1,4.5,2.4v-2.1h1v9c0,1.6-0.5,2.8-1.4,3.6c-0.9,0.9-2.3,1.4-3.9,1.4
		C195,359.7,193.4,359.2,191.9,358.1z M201.1,350.5L201.1,350.5c0-2.5-2.2-4.1-4.4-4.1c-2.2,0-4.1,1.6-4.1,4.1v0
		c0,2.4,1.9,4.1,4.1,4.1C198.9,354.5,201.1,352.9,201.1,350.5z"/>
	<path d="M206,341h1v6.6c0.7-1.3,1.9-2.2,3.9-2.2c2.7,0,4.3,1.8,4.3,4.4v6.6h-1V350c0-2.2-1.2-3.7-3.4-3.7c-2.1,0-3.7,1.6-3.7,3.8
		v6.2h-1V341z"/>
	<path d="M219.4,353.6v-7h-1.6v-0.9h1.6v-3.4h1v3.4h3.8v0.9h-3.8v6.9c0,1.5,0.9,2.1,2.1,2.1c0.5,0,1-0.1,1.6-0.4v1
		c-0.5,0.3-1.1,0.4-1.7,0.4C220.8,356.5,219.4,355.6,219.4,353.6z"/>
</g>
<g>
	<path d="M179.5,361.5h3.5v7.5h4.9v3h-8.4V361.5z"/>
	<path d="M192.4,361.4h3.5l4.4,10.6h-3.8l-0.6-1.4h-3.7l-0.5,1.4h-3.8L192.4,361.4z M195,368l-1-2.5l-1,2.5H195z"/>
	<path d="M200.7,361.5h5.1c1.9,0,3,0.5,3.8,1.2c0.6,0.6,1,1.4,1,2.5v0c0,1.5-0.8,2.6-2.1,3.2l2.4,3.6h-4l-2-3h-0.8v3h-3.5V361.5z
		 M205.7,366.4c0.8,0,1.3-0.4,1.3-1v0c0-0.7-0.5-1-1.3-1h-1.5v2.1H205.7z"/>
	<path d="M211.2,366.7L211.2,366.7c0-3.2,2.5-5.5,5.8-5.5c1.8,0,3.3,0.6,4.4,1.6l-2,2.4c-0.7-0.6-1.5-0.9-2.3-0.9
		c-1.4,0-2.4,1.1-2.4,2.5v0c0,1.5,1,2.5,2.5,2.5c0.6,0,0.9-0.1,1.2-0.2v-1h-1.8v-2.3h5.1v4.9c-1.1,0.9-2.7,1.6-4.6,1.6
		C213.8,372.2,211.2,370,211.2,366.7z"/>
	<path d="M222.7,361.5h9v2.9h-5.5v1.1h5.1v2.5h-5.1v1.1h5.6v2.9h-9V361.5z"/>
</g>
<g>
	<path d="M247.4,267.4h7v2.4h-4.2v1.1h3.9v2.2h-3.9v2.7h-2.8V267.4z"/>
	<path d="M255.1,267.4h2.8v6h3.9v2.4h-6.8V267.4z"/>
	<path d="M262.5,267.4h2.8v8.4h-2.8V267.4z"/>
	<path d="M266.1,271.6L266.1,271.6c0-2.5,2-4.4,4.6-4.4c1.4,0,2.6,0.5,3.5,1.3l-1.6,1.9c-0.6-0.5-1.2-0.7-1.9-0.7
		c-1.1,0-1.9,0.8-1.9,2v0c0,1.2,0.8,2,2,2c0.5,0,0.7-0.1,1-0.2v-0.8h-1.4v-1.8h4.1v3.9c-0.9,0.7-2.2,1.3-3.7,1.3
		C268.2,275.9,266.1,274.2,266.1,271.6z"/>
	<path d="M275.3,267.4h2.8v3h2.6v-3h2.8v8.4h-2.8v-3h-2.6v3h-2.8V267.4z"/>
	<path d="M286.6,269.7h-2.5v-2.4h7.7v2.4h-2.5v6h-2.8V269.7z"/>
</g>
<g>
	<path d="M311.6,365.9h0.3l4.3,6.1l4.3-6.1h0.3v9.8h-0.3v-9.3l-4.2,6.1h0l-4.2-6.1v9.3h-0.3V365.9z"/>
	<path d="M323.6,365.9h3.4c2.4,0,3.8,1.1,3.8,2.9v0c0,1.9-1.5,3-3.8,3h-3.1v3.9h-0.3V365.9z M327,371.6c2.2,0,3.5-1,3.5-2.7v0
		c0-1.7-1.3-2.7-3.5-2.7h-3.1v5.4H327z"/>
	<path d="M335.8,365.8h0.3l4.7,9.9h-0.3l-1.4-2.9h-6.2l-1.4,2.9H331L335.8,365.8z M338.9,372.5l-3-6.2l-3,6.2H338.9z"/>
	<path d="M346.5,365.8h0.3l4.7,9.9h-0.3l-1.4-2.9h-6.2l-1.4,2.9h-0.3L346.5,365.8z M349.6,372.5l-3-6.2l-3,6.2H349.6z"/>
</g>
<g>
	<path d="M571.8,218h-1.1v-0.3h1.1v-1c0-0.8,0.2-1.4,0.6-1.8c0.3-0.3,0.8-0.5,1.3-0.5c0.4,0,0.7,0.1,1,0.2v0.3
		c-0.3-0.1-0.6-0.2-1-0.2c-1,0-1.6,0.6-1.6,2v1h2.6v0.3h-2.6v6.7h-0.3V218z"/>
	<path d="M575.1,221.2L575.1,221.2c0-2,1.4-3.7,3.6-3.7c2.2,0,3.6,1.7,3.6,3.6v0c0,2-1.4,3.7-3.6,3.7
		C576.6,224.9,575.1,223.2,575.1,221.2z M582.1,221.2L582.1,221.2c0-1.9-1.4-3.4-3.3-3.4c-2,0-3.3,1.5-3.3,3.4v0
		c0,1.8,1.4,3.4,3.3,3.4C580.8,224.6,582.1,223.1,582.1,221.2z"/>
	<path d="M584.5,217.7h0.3v1.9c0.2-0.9,1.1-2.1,2.8-2.1c1.9,0,2.9,1.3,2.9,3.2v4h-0.3v-3.9c0-1.8-0.9-3-2.7-3c-1.6,0-2.8,1.3-2.8,3
		v3.9h-0.3V217.7z"/>
	<path d="M593.4,222.9V218h-1.1v-0.3h1.1v-2.4h0.3v2.4h2.6v0.3h-2.6v4.9c0,1.1,0.5,1.7,1.5,1.7c0.4,0,0.7-0.1,1.1-0.3v0.3
		c-0.3,0.2-0.7,0.2-1.1,0.2C594,224.8,593.4,224.1,593.4,222.9z"/>
</g>
<g>
	<path d="M374.9,359.3l0.2-0.2c1,1,2.3,1.5,3.7,1.5c1.8,0,3-1,3-2.3v0c0-1.2-0.7-1.8-3.2-2.4c-2.4-0.5-3.3-1.2-3.3-2.6v0
		c0-1.4,1.3-2.5,3.2-2.5c1.3,0,2.4,0.4,3.3,1.1l-0.2,0.3c-0.9-0.7-2-1.1-3.2-1.1c-1.7,0-2.9,1.1-2.9,2.2v0c0,1.2,0.8,1.8,3.2,2.3
		c2.5,0.5,3.4,1.3,3.4,2.6v0c0,1.5-1.3,2.6-3.3,2.6C377.3,360.9,376,360.3,374.9,359.3z"/>
	<path d="M384.3,357.7v-4h0.3v3.9c0,1.8,0.9,3,2.7,3c1.6,0,2.8-1.3,2.8-3v-3.9h0.3v7H390v-1.9c-0.2,0.9-1.1,2.1-2.8,2.1
		C385.3,360.9,384.3,359.6,384.3,357.7z"/>
	<path d="M392.9,353.7h0.3v2.2c0.4-1.3,1.6-2.3,3.2-2.3c2,0,3.5,1.6,3.5,3.7v0c0,2-1.5,3.7-3.5,3.7c-1.6,0-2.8-1-3.2-2.3v4.4h-0.3
		V353.7z M399.6,357.2L399.6,357.2c0-1.9-1.3-3.4-3.2-3.4c-1.9,0-3.2,1.6-3.2,3.4v0c0,1.8,1.3,3.4,3.2,3.4
		C398.4,360.6,399.6,359.1,399.6,357.2z"/>
	<path d="M401.6,357.2L401.6,357.2c0-2.1,1.4-3.7,3.4-3.7c2.2,0,3.2,1.9,3.2,3.7v0.1h-6.3c0.1,2,1.5,3.3,3.2,3.3
		c1.1,0,2-0.6,2.6-1.4l0.2,0.2c-0.6,0.9-1.6,1.5-2.8,1.5C403.2,360.9,401.6,359.5,401.6,357.2z M407.9,357c-0.1-1.6-1.1-3.2-2.9-3.2
		c-1.7,0-3,1.4-3,3.2H407.9z"/>
	<path d="M410.3,353.7h0.3v2.2c0.3-1.2,1.3-2.4,2.9-2.4v0.3h-0.1c-1.8,0-2.8,1.9-2.8,3.3v3.6h-0.3V353.7z"/>
	<path d="M414.9,353.7h0.3v1.8c0.2-0.9,1.2-2,2.4-2c1.5,0,2.3,1,2.5,2.1c0.3-1,1.2-2.1,2.5-2.1c1.6,0,2.6,1,2.6,3v4.1h-0.3v-4.1
		c0-1.8-1-2.8-2.4-2.8c-1.2,0-2.4,1.2-2.4,2.8v4.1H420v-4.1c0-1.8-1-2.8-2.4-2.8c-1.2,0-2.4,1.2-2.4,2.8v4.1h-0.3V353.7z"/>
	<path d="M427.3,358.8L427.3,358.8c0-1.5,1.4-2.3,3.1-2.3c1,0,1.9,0.2,2.6,0.4v-0.6c0-1.7-1-2.5-2.6-2.5c-0.9,0-1.6,0.2-2.3,0.6
		l-0.1-0.3c0.8-0.4,1.5-0.6,2.5-0.6c1,0,1.7,0.3,2.2,0.8c0.4,0.4,0.7,1.1,0.7,2v4.4H433v-1.7c-0.3,0.8-1.3,1.8-3.1,1.8
		C428.5,360.9,427.3,360.2,427.3,358.8z M433,358.2v-0.9c-0.7-0.3-1.6-0.4-2.6-0.4c-1.6,0-2.8,0.6-2.8,1.9v0c0,1.2,1.1,1.8,2.3,1.8
		C431.8,360.6,433,359.4,433,358.2z"/>
	<path d="M435.8,353.7h0.3v1.9c0.2-0.9,1.1-2.1,2.8-2.1c1.9,0,2.9,1.3,2.9,3.2v4h-0.3v-3.9c0-1.8-0.9-3-2.7-3c-1.6,0-2.8,1.3-2.8,3
		v3.9h-0.3V353.7z"/>
	<path d="M392.5,367.7h4c1.3,0,2.2,0.3,2.8,0.9c0.4,0.4,0.7,1.1,0.7,1.8v0c0,1.7-1.3,2.6-3.2,2.7l3.3,4.3h-0.4l-3.3-4.3h-3.6v4.3
		h-0.3V367.7z M396.4,373c2.3,0,3.4-1.1,3.4-2.5v0c0-1.6-1.2-2.5-3.2-2.5h-3.7v5H396.4z"/>
	<path d="M401.9,374L401.9,374c0-2.1,1.4-3.7,3.4-3.7c2.2,0,3.2,1.9,3.2,3.7v0.1h-6.3c0.1,2,1.5,3.3,3.2,3.3c1.1,0,2-0.6,2.6-1.4
		l0.2,0.2c-0.6,0.9-1.6,1.5-2.8,1.5C403.4,377.7,401.9,376.3,401.9,374z M408.1,373.8c-0.1-1.6-1.1-3.2-2.9-3.2c-1.7,0-3,1.4-3,3.2
		H408.1z"/>
	<path d="M410.9,375.7v-4.9h-1.1v-0.3h1.1v-2.4h0.3v2.4h2.6v0.3h-2.6v4.9c0,1.1,0.5,1.7,1.5,1.7c0.4,0,0.7-0.1,1.1-0.3v0.3
		c-0.3,0.2-0.7,0.2-1.1,0.2C411.5,377.6,410.9,376.9,410.9,375.7z"/>
	<path d="M415.6,374.5v-4h0.3v3.9c0,1.8,0.9,3,2.7,3c1.6,0,2.8-1.3,2.8-3v-3.9h0.3v7h-0.3v-1.9c-0.2,0.9-1.1,2.1-2.8,2.1
		C416.6,377.7,415.6,376.4,415.6,374.5z"/>
	<path d="M424.2,370.5h0.3v2.2c0.3-1.2,1.3-2.4,2.9-2.4v0.3h-0.1c-1.8,0-2.8,1.9-2.8,3.3v3.6h-0.3V370.5z"/>
	<path d="M428.9,370.5h0.3v1.9c0.2-0.9,1.1-2.1,2.8-2.1c1.9,0,2.9,1.3,2.9,3.2v4h-0.3v-3.9c0-1.8-0.9-3-2.7-3c-1.6,0-2.8,1.3-2.8,3
		v3.9h-0.3V370.5z"/>
	<path d="M436.8,376.6l0.2-0.2c0.8,0.6,1.8,1,2.7,1c1.3,0,2.2-0.6,2.2-1.6v0c0-1.1-1.2-1.4-2.3-1.7c-1.4-0.4-2.5-0.8-2.5-1.9v0
		c0-1,1-1.8,2.4-1.8c0.8,0,1.7,0.3,2.4,0.8l-0.2,0.3c-0.7-0.5-1.5-0.8-2.3-0.8c-1.3,0-2.1,0.7-2.1,1.5v0c0,0.9,1,1.3,2.2,1.6
		c1.4,0.4,2.5,0.8,2.5,2v0c0,1.1-1.1,1.8-2.5,1.8C438.6,377.6,437.5,377.3,436.8,376.6z"/>
</g>
<g>
	<path d="M187.5,224.2L187.5,224.2c0-0.8,0.5-1.2,1.3-1.2c0.4,0,0.6,0.1,0.9,0.1V223c0-0.5-0.3-0.8-0.8-0.8c-0.4,0-0.7,0.1-0.9,0.2
		l-0.2-0.6c0.4-0.2,0.7-0.3,1.2-0.3c0.5,0,0.9,0.1,1.1,0.4c0.2,0.2,0.4,0.6,0.4,1.1v2.3h-0.8v-0.5c-0.2,0.3-0.5,0.5-1,0.5
		C188,225.4,187.5,225,187.5,224.2z M189.7,224.1v-0.4c-0.2-0.1-0.4-0.1-0.7-0.1c-0.5,0-0.7,0.2-0.7,0.6v0c0,0.4,0.3,0.6,0.6,0.6
		C189.3,224.8,189.7,224.5,189.7,224.1z"/>
	<path d="M192.1,224.7v0.6h-0.8v-5.1h0.8v1.9c0.2-0.4,0.6-0.7,1.1-0.7c0.7,0,1.4,0.6,1.4,1.9v0.1c0,1.2-0.7,1.9-1.4,1.9
		C192.6,225.4,192.3,225.1,192.1,224.7z M193.8,223.5L193.8,223.5c0-0.8-0.4-1.3-0.9-1.3c-0.5,0-0.9,0.5-0.9,1.2v0.1
		c0,0.7,0.4,1.2,0.9,1.2C193.4,224.7,193.8,224.2,193.8,223.5z"/>
	<path d="M195.2,223.5L195.2,223.5c0-1.2,0.7-2,1.7-2c0.5,0,0.9,0.2,1.2,0.5l-0.4,0.6c-0.2-0.2-0.4-0.4-0.7-0.4
		c-0.5,0-0.9,0.5-0.9,1.2v0c0,0.7,0.4,1.2,0.9,1.2c0.3,0,0.5-0.2,0.8-0.4l0.4,0.5c-0.3,0.3-0.7,0.6-1.2,0.6
		C195.9,225.4,195.2,224.6,195.2,223.5z"/>
	<path d="M198.5,223.5L198.5,223.5c0-1.3,0.7-2,1.4-2c0.5,0,0.9,0.3,1.1,0.6v-1.9h0.8v5.1H201v-0.6c-0.2,0.4-0.6,0.7-1.1,0.7
		C199.2,225.4,198.5,224.8,198.5,223.5z M201,223.5L201,223.5c0-0.8-0.4-1.3-0.9-1.3c-0.5,0-0.9,0.4-0.9,1.2v0.1
		c0,0.7,0.4,1.2,0.9,1.2S201,224.2,201,223.5z"/>
</g>
<g>
	<path d="M177.6,378.1h2.1v1.5c0.6-0.9,1.4-1.7,2.8-1.7c1.9,0,3.1,1.4,3.1,3.5v6.7h-2.1v-6.1c0-1.4-0.7-2.2-1.8-2.2
		c-1.1,0-1.9,0.8-1.9,2.2v6.1h-2.1V378.1z"/>
	<path d="M187.4,385.3L187.4,385.3c0-2.3,1.4-3.3,3.6-3.3c1,0,1.6,0.2,2.3,0.4V382c0-1.3-0.8-2.1-2.2-2.1c-1,0-1.8,0.3-2.4,0.6
		l-0.6-1.7c1-0.5,2-0.8,3.3-0.8c1.3,0,2.3,0.4,3,1c0.7,0.7,1,1.7,1,2.9v6.3h-2.1V387c-0.6,0.9-1.5,1.4-2.8,1.4
		C188.8,388.4,187.4,387.3,187.4,385.3z M193.3,384.8v-1c-0.5-0.2-1.1-0.4-1.9-0.4c-1.2,0-2,0.6-2,1.7v0c0,1,0.7,1.6,1.6,1.6
		C192.4,386.8,193.3,386,193.3,384.8z"/>
	<path d="M197.7,378.1h2.1v2c0.5-1.3,1.5-2.2,3-2.1v2.3h-0.1c-1.7,0-2.9,1.1-2.9,3.4v4.4h-2.1V378.1z"/>
	<path d="M204.5,378.1h2.1v2c0.5-1.3,1.5-2.2,3-2.1v2.3h-0.1c-1.7,0-2.9,1.1-2.9,3.4v4.4h-2.1V378.1z"/>
	<path d="M210.6,383.3v-0.2c0-3,2-5.2,4.7-5.2c2.7,0,4.6,2.2,4.6,5.1v0.2c0,3-2,5.1-4.7,5.1C212.5,388.4,210.6,386.3,210.6,383.3z
		 M217.7,383.3v-0.1c0-1.9-1-3.3-2.5-3.3c-1.5,0-2.5,1.4-2.5,3.3v0.1c0,1.9,1,3.3,2.5,3.3C216.7,386.5,217.7,385.1,217.7,383.3z"/>
	<path d="M220.7,378.1h2.2l1.7,6.8l1.9-6.8h1.8l1.9,6.8l1.7-6.8h2.2l-2.8,10.1h-2l-1.9-6.7l-1.9,6.7h-2L220.7,378.1z"/>
</g>
<g>
	<path d="M756.4,235.9l1.5-1.6c0.6-0.6,0.8-0.9,0.8-1.3c0-0.4-0.3-0.7-0.7-0.7c-0.4,0-0.7,0.2-1,0.6l-0.5-0.5
		c0.4-0.6,0.9-0.9,1.6-0.9c0.9,0,1.5,0.5,1.5,1.4v0c0,0.7-0.3,1.1-1,1.8l-1,1.1h2v0.7h-3.1V235.9z"/>
	<path d="M756.1,242.5L756.1,242.5c0-1.6,0.7-2.6,1.9-2.6c1.1,0,1.8,1,1.8,2.5v0.1c0,1.5-0.7,2.5-1.9,2.5S756.1,244,756.1,242.5z
		 M759,242.5L759,242.5c0-1.1-0.4-1.8-1-1.8s-1,0.7-1,1.8v0.1c0,1.1,0.4,1.8,1,1.8C758.6,244.3,759,243.6,759,242.5z"/>
	<path d="M756.1,250.9L756.1,250.9c0-1.6,0.7-2.6,1.9-2.6c1.1,0,1.8,1,1.8,2.5v0.1c0,1.5-0.7,2.5-1.9,2.5S756.1,252.4,756.1,250.9z
		 M759,250.9L759,250.9c0-1.1-0.4-1.8-1-1.8s-1,0.7-1,1.8v0.1c0,1.1,0.4,1.8,1,1.8C758.6,252.7,759,252,759,250.9z"/>
	<path d="M756.1,259.3L756.1,259.3c0-1.6,0.7-2.6,1.9-2.6c1.1,0,1.8,1,1.8,2.5v0.1c0,1.5-0.7,2.5-1.9,2.5S756.1,260.8,756.1,259.3z
		 M759,259.3L759,259.3c0-1.1-0.4-1.8-1-1.8s-1,0.7-1,1.8v0.1c0,1.1,0.4,1.8,1,1.8C758.6,261.1,759,260.4,759,259.3z"/>
</g>
<g>
	<path d="M737.5,310.3l1-1.2c0.7,0.7,1.5,1.2,2.6,1.2c0.9,0,1.5-0.5,1.5-1.2v0c0-0.6-0.3-1-1.9-1.6c-1.9-0.7-2.8-1.4-2.8-3v0
		c0-1.6,1.3-2.7,3.1-2.7c1.1,0,2.2,0.4,3.1,1.1l-0.9,1.2c-0.7-0.5-1.4-0.9-2.2-0.9c-0.9,0-1.4,0.5-1.4,1.1v0c0,0.7,0.4,1,2,1.7
		c1.8,0.7,2.7,1.5,2.7,2.9v0c0,1.7-1.3,2.8-3.2,2.8C739.8,311.7,738.6,311.3,737.5,310.3z"/>
	<path d="M740.2,318.5h1.6l3.6,9.9h-1.7l-0.8-2.3h-3.8l-0.8,2.3h-1.6L740.2,318.5z M742.4,324.7l-1.4-3.9l-1.4,3.9H742.4z"/>
	<path d="M740.2,336.9h-2.6v-1.5h6.8v1.5h-2.6v8.3h-1.6V336.9z"/>
	<path d="M737.4,358.3v-6.1h1.6v6.1c0,1.6,0.8,2.4,2,2.4c1.2,0,2-0.8,2-2.4v-6.1h1.6v6c0,2.6-1.4,4-3.7,4
		C738.8,362.2,737.4,360.8,737.4,358.3z"/>
	<path d="M737.7,369h3.5c1.1,0,2,0.3,2.6,0.9c0.5,0.5,0.8,1.3,0.8,2.2v0.1c0,1.5-0.8,2.5-2,2.9l2.3,3.8h-1.9l-2.1-3.5
		c0,0-0.1,0-0.1,0h-1.6v3.5h-1.6V369z M741.1,373.9c1.3,0,2-0.7,2-1.7v0c0-1.1-0.7-1.7-1.9-1.7h-1.8v3.4H741.1z"/>
	<path d="M737.4,385.8h3c2.8,0,4.7,2,4.7,4.8v0.1c0,2.9-1.8,4.9-4.7,4.9h-3V385.8z M739,387.3v6.9h1.4c1.8,0,3-1.3,3-3.4v-0.1
		c0-2.1-1.2-3.4-3-3.4H739z"/>
	<path d="M740.2,402.5h1.6l3.6,9.9h-1.7l-0.8-2.3h-3.8l-0.8,2.3h-1.6L740.2,402.5z M742.4,408.7l-1.4-3.9l-1.4,3.9H742.4z"/>
	<path d="M740.2,425.3l-3.3-5.9h1.9l2.3,4.2l2.3-4.2h1.8l-3.3,5.9v3.9h-1.6V425.3z"/>
</g>
<g>
	<path d="M720.5,329.5h2.1l6.8,8.7v-8.7h2.2v12.6h-1.9l-7-9v9h-2.2V329.5z"/>
	<path d="M724.9,351.1h2.2v12.6h-2.2V351.1z"/>
	<path d="M721.3,387.1l0.8-1.6c1,0.6,2.1,1,3.4,1c1.9,0,3-1,3-2.9v-0.7c-0.8,1-1.8,1.7-3.3,1.7c-2.2,0-4.3-1.7-4.3-4.4v0
		c0-2.8,2.1-4.5,4.3-4.5c1.6,0,2.6,0.7,3.3,1.6v-1.4h2.2v7.6c0,1.6-0.4,2.8-1.2,3.6c-0.9,0.9-2.2,1.3-3.9,1.3
		C724,388.3,722.5,387.9,721.3,387.1z M728.5,380.1L728.5,380.1c0-1.6-1.3-2.6-2.8-2.6c-1.5,0-2.7,1-2.7,2.6v0
		c0,1.5,1.2,2.6,2.7,2.6C727.3,382.7,728.5,381.7,728.5,380.1z"/>
	<path d="M721.8,393.8h2.2v5.1c0.6-0.9,1.5-1.7,3-1.7c2.1,0,3.4,1.4,3.4,3.6v6.1h-2.2v-5.4c0-1.5-0.7-2.3-2-2.3
		c-1.3,0-2.1,0.9-2.1,2.4v5.4h-2.2V393.8z"/>
	<path d="M724.1,425.9v-5h-1.2V419h1.2v-2.6h2.2v2.6h2.6v1.9h-2.6v4.7c0,0.8,0.4,1.2,1.2,1.2c0.5,0,0.9-0.1,1.3-0.3v1.8
		c-0.5,0.3-1.1,0.5-2,0.5C725.3,428.7,724.1,428,724.1,425.9z"/>
</g>
<g>
	<path d="M707.9,364h2.3v10.9h-2.3V364z"/>
	<path d="M707.8,382h2.4v2h-2.4V382z M707.9,384.9h2.3v8h-2.3V384.9z"/>
	<path d="M704.8,402.9h2.4l1.8,5.4l1.8-5.4h2.4L710,411H708L704.8,402.9z"/>
	<path d="M705,425L705,425c0-2.3,1.6-4.2,4-4.2c2.7,0,3.9,2.1,3.9,4.4c0,0.2,0,0.4,0,0.6h-5.6c0.2,1,0.9,1.6,2,1.6
		c0.8,0,1.3-0.2,2-0.8l1.3,1.2c-0.8,0.9-1.8,1.5-3.3,1.5C706.8,429.1,705,427.4,705,425z M710.7,424.3c-0.1-1-0.7-1.7-1.7-1.7
		c-0.9,0-1.6,0.7-1.7,1.7H710.7z"/>
</g>
<g>
	<path d="M666.7,351.4h-3.5v-0.3h7.4v0.3H667v9.5h-0.3V351.4z"/>
	<path d="M670.2,357.4L670.2,357.4c0-2.1,1.4-3.7,3.4-3.7c2.2,0,3.2,1.9,3.2,3.7v0.1h-6.3c0.1,2,1.5,3.3,3.2,3.3
		c1.1,0,2-0.6,2.6-1.4l0.2,0.2c-0.6,0.9-1.6,1.5-2.8,1.5C671.8,361.1,670.2,359.7,670.2,357.4z M676.4,357.2
		c-0.1-1.6-1.1-3.2-2.9-3.2c-1.7,0-3,1.4-3,3.2H676.4z"/>
	<path d="M678.1,360l0.2-0.2c0.8,0.6,1.8,1,2.7,1c1.3,0,2.2-0.6,2.2-1.6v0c0-1.1-1.2-1.4-2.3-1.7c-1.4-0.4-2.5-0.8-2.5-1.9v0
		c0-1,1-1.8,2.4-1.8c0.8,0,1.7,0.3,2.4,0.8l-0.2,0.3c-0.7-0.5-1.5-0.8-2.3-0.8c-1.3,0-2.1,0.7-2.1,1.5v0c0,0.9,1,1.3,2.2,1.6
		c1.4,0.4,2.5,0.8,2.5,2v0c0,1.1-1.1,1.8-2.5,1.8C680,361,678.9,360.6,678.1,360z"/>
	<path d="M685.8,350.7h0.3v10.2h-0.3V350.7z"/>
	<path d="M688.2,359L688.2,359c0-1.5,1.4-2.3,3.1-2.3c1,0,1.9,0.2,2.6,0.4v-0.6c0-1.7-1-2.5-2.6-2.5c-0.9,0-1.6,0.2-2.3,0.6
		l-0.1-0.3c0.8-0.4,1.5-0.6,2.5-0.6c1,0,1.7,0.3,2.2,0.8c0.4,0.4,0.7,1.1,0.7,2v4.4h-0.3v-1.7c-0.3,0.8-1.3,1.8-3.1,1.8
		C689.4,361.1,688.2,360.4,688.2,359z M693.9,358.3v-0.9c-0.7-0.3-1.6-0.4-2.6-0.4c-1.6,0-2.8,0.6-2.8,1.9v0c0,1.2,1.1,1.8,2.3,1.8
		C692.7,360.8,693.9,359.6,693.9,358.3z"/>
</g>
<g>
	<path d="M664.8,423.5l6.5-7.7c4,3,8.5,4.3,12.7,4.3c2.2,0,3.1-0.6,3.1-1.6v-0.1c0-1-1.1-1.6-5-2.4c-8.2-1.7-15.3-4-15.3-11.7v-0.1
		c0-6.9,5.4-12.3,15.4-12.3c7,0,12.2,1.7,16.4,5l-5.9,8.2c-3.4-2.5-7.5-3.6-10.9-3.6c-1.8,0-2.7,0.6-2.7,1.5v0.1c0,1,1,1.6,4.8,2.3
		c9.3,1.7,15.5,4.4,15.5,11.8v0.1c0,7.6-6.3,12.3-16.1,12.3C676.1,429.6,669.4,427.6,664.8,423.5z"/>
</g>
<g>
	<path d="M666.2,366.4h0.2l2.3,5.2l5-5.2h0.3l-2.3,8.4h-0.3l2.1-8l-5,5.2h0l-2.2-5.2l-2.1,8h-0.3L666.2,366.4z"/>
	<path d="M680.7,371.3c0,0.9-0.4,1.9-1.1,2.6c-0.6,0.6-1.4,1-2.4,1c-1.6,0-2.7-1.1-2.7-2.7c0-0.9,0.4-1.9,1.1-2.6
		c0.6-0.6,1.4-1,2.4-1C679.5,368.6,680.7,369.8,680.7,371.3z M679.4,373.7c0.6-0.6,1-1.5,1-2.4c0-1.4-1-2.5-2.5-2.5
		c-0.9,0-1.7,0.4-2.2,0.9c-0.6,0.6-1,1.5-1,2.4c0,1.4,1,2.5,2.5,2.5C678.1,374.7,678.8,374.3,679.4,373.7z"/>
	<path d="M687.3,373.2c-0.3,0.6-1.5,1.7-2.9,1.7c-1.5,0-2.5-1.1-2.5-2.6c0-1,0.4-2.1,1.2-2.8c0.6-0.6,1.3-0.9,2.2-0.9
		c1.6,0,2.5,1.2,2.6,2.2l1.3-4.8h0.3l-2.4,8.8h-0.3L687.3,373.2z M686.6,373.7c0.7-0.7,1.1-1.6,1.1-2.3c0-1.4-1-2.5-2.4-2.5
		c-0.8,0-1.5,0.3-2,0.9c-0.7,0.7-1.1,1.7-1.1,2.6c0,1.3,0.9,2.4,2.2,2.4C685.3,374.7,686.1,374.3,686.6,373.7z"/>
	<path d="M690,371.8c0,0.2,0,0.4,0,0.6c0,1.4,0.9,2.3,2.4,2.3c0.7,0,1.5-0.2,2.2-0.9l0.2,0.2c-0.8,0.6-1.6,0.9-2.4,0.9
		c-1.6,0-2.7-1-2.7-2.5c0-1.1,0.5-2.1,1.2-2.8c0.6-0.6,1.4-1,2.3-1c1.7,0,2.3,1.2,2.3,2.4c0,0.3,0,0.6-0.1,0.9H690z M690,371.6h5.1
		c0-0.2,0.1-0.4,0.1-0.6c0-1.1-0.6-2.1-2.1-2.1c-0.8,0-1.5,0.4-2.1,0.9C690.5,370.3,690.2,370.9,690,371.6z"/>
	<path d="M698.8,366h0.3l-2.4,8.8h-0.3L698.8,366z"/>
</g>
<g>
	<path d="M573,227.4h-4.5l0.1-0.4h9.5l-0.1,0.4h-4.6l-3.3,12.2h-0.4L573,227.4z"/>
	<path d="M580.1,226.5h0.4l-1.7,6.5c0.7-1.3,2-2.5,4-2.5c2.1,0,3.1,1.2,3.1,2.9c0,0.5-0.1,1-0.2,1.6l-1.3,4.7h-0.4l1.3-4.7
		c0.1-0.5,0.2-1.1,0.2-1.5c0-1.5-0.8-2.6-2.7-2.6c-1.9,0-3.7,1.4-4.4,3.9l-1.3,5h-0.4L580.1,226.5z"/>
	<path d="M588.3,235.2c0,0.3-0.1,0.6-0.1,0.8c0,2.1,1.4,3.4,3.6,3.4c1,0,2.3-0.4,3.3-1.3l0.2,0.3c-1.1,1-2.5,1.4-3.6,1.4
		c-2.4,0-4-1.5-4-3.7c0-1.6,0.7-3.1,1.7-4.2c0.9-0.9,2.1-1.5,3.5-1.5c2.5,0,3.5,1.8,3.5,3.5c0,0.5-0.1,0.9-0.2,1.3H588.3z
		 M588.4,234.9h7.7c0.1-0.3,0.1-0.6,0.1-1c0-1.6-0.9-3.2-3.1-3.2c-1.2,0-2.3,0.5-3.2,1.4C589.2,232.9,588.6,233.9,588.4,234.9z"/>
	<path d="M566.7,252.6c0-1.1,0.5-2.2,1.2-3c0.6-0.6,1.4-1,2.4-1c1.8,0,2.7,1.2,2.9,2.4l0.6-2.2h0.3l-2.3,8.6h-0.3l1-3.7
		c-0.4,0.7-1.6,1.8-3.1,1.8C567.8,255.4,566.7,254.2,566.7,252.6z M571.8,254.1c0.8-0.8,1.2-1.7,1.2-2.5c0-1.6-1-2.7-2.7-2.7
		c-0.9,0-1.6,0.4-2.2,0.9c-0.8,0.8-1.2,1.8-1.2,2.8c0,1.4,1,2.5,2.4,2.5C570.4,255.1,571.2,254.7,571.8,254.1z"/>
	<path d="M575.3,253.3c0-0.4,0.1-0.7,0.2-1.1l0.9-3.4h0.3l-0.9,3.4c-0.1,0.4-0.2,0.8-0.2,1.1c0,1.1,0.6,1.9,2,1.9
		c1.3,0,2.7-1,3.2-2.8l1-3.6h0.3l-1.7,6.5H580l0.5-1.7c-0.5,0.9-1.4,1.8-2.9,1.8C576.1,255.4,575.3,254.5,575.3,253.3z"/>
	<path d="M584.5,248.7h0.3l-1.7,6.5h-0.3L584.5,248.7z M585.1,246.1h0.4l-0.2,0.7h-0.4L585.1,246.1z"/>
	<path d="M585.8,252.6c0-1.1,0.5-2.1,1.2-2.9c0.7-0.7,1.6-1.1,2.6-1.1c1.3,0,2.2,0.8,2.6,1.5l-0.2,0.1c-0.4-0.7-1.1-1.4-2.3-1.4
		c-0.9,0-1.8,0.4-2.4,1.1c-0.7,0.7-1.1,1.6-1.1,2.7c0,1.6,1.3,2.6,2.6,2.6c1,0,1.7-0.4,2.3-1l0.2,0.2c-0.7,0.6-1.5,1.1-2.5,1.1
		C587.3,255.4,585.8,254.4,585.8,252.6z"/>
	<path d="M595.2,245.7h0.3l-2,7.4l5.6-4.4h0.4l-3.7,2.9l2.1,3.6h-0.3l-2-3.5l-2.2,1.7l-0.5,1.8h-0.3L595.2,245.7z"/>
	<path d="M568.4,267.7v0.8h-1.7v-8h1.7v3c0.4-0.5,1-1,1.8-1c1.4,0,2.7,1.1,2.7,3v0c0,2-1.3,3-2.7,3
		C569.4,268.5,568.8,268.1,568.4,267.7z M571.3,265.5L571.3,265.5c0-1-0.7-1.7-1.4-1.7c-0.8,0-1.4,0.6-1.4,1.6v0
		c0,1,0.6,1.6,1.4,1.6C570.6,267.1,571.3,266.5,571.3,265.5z"/>
	<path d="M574.2,262.5h1.7v1.2c0.3-0.8,0.9-1.3,1.9-1.3v1.7h-0.1c-1.1,0-1.8,0.7-1.8,2.1v2.2h-1.7V262.5z"/>
	<path d="M578.3,265.5L578.3,265.5c0-1.7,1.4-3.1,3.2-3.1c1.8,0,3.2,1.4,3.2,3v0c0,1.7-1.4,3.1-3.2,3.1
		C579.7,268.6,578.3,267.2,578.3,265.5z M583,265.5L583,265.5c0-0.9-0.6-1.6-1.6-1.6c-1,0-1.5,0.7-1.5,1.6v0c0,0.9,0.6,1.6,1.6,1.6
		C582.5,267.1,583,266.4,583,265.5z"/>
	<path d="M585.2,262.5h1.7l0.9,3.6l1.1-3.6h1.4l1.1,3.6l1-3.6h1.7l-1.8,5.9h-1.5l-1.1-3.6l-1.2,3.6H587L585.2,262.5z"/>
	<path d="M595.1,262.5h1.7v0.8c0.4-0.5,0.9-0.9,1.7-0.9c1.3,0,2,0.8,2,2.2v3.8h-1.7v-3.3c0-0.8-0.4-1.2-1-1.2c-0.6,0-1,0.4-1,1.2
		v3.3h-1.7V262.5z"/>
	<path d="M569.7,283.5H568l0.1-0.4h1.7l0.5-1.7c0.3-1.2,0.7-1.8,1.2-2.3c0.6-0.6,1.4-0.8,2.1-0.8c0.7,0,1.3,0.2,1.8,0.5l-0.1,0.4
		c-0.5-0.3-1.1-0.4-1.7-0.4c-1.1,0-2.2,0.5-2.8,2.6l-0.5,1.8h3.8l-0.1,0.4h-3.8l-2.7,10.1H567L569.7,283.5z"/>
	<path d="M584.6,287.6c0,1.6-0.7,3.3-1.9,4.6c-1,1-2.5,1.8-4.2,1.8c-2.8,0-4.8-2-4.8-4.7c0-1.6,0.7-3.3,1.9-4.6c1-1,2.5-1.8,4.2-1.8
		C582.6,282.9,584.6,284.9,584.6,287.6z M582.4,291.8c1.1-1.1,1.8-2.7,1.8-4.2c0-2.4-1.7-4.3-4.4-4.3c-1.6,0-2.9,0.7-3.9,1.7
		c-1.1,1.1-1.8,2.7-1.8,4.2c0,2.4,1.7,4.3,4.4,4.3C580,293.5,581.4,292.8,582.4,291.8z"/>
	<path d="M590.6,288l5.3-4.8h0.6l-5.7,5.2l3,5.3h-0.5l-2.9-5.1l-5.5,5.1h-0.6l5.9-5.4l-2.9-5.1h0.5L590.6,288z"/>
	<path d="M564.5,310l0.1-0.2c0.1,0,0.3,0.1,0.4,0.1c0.6,0,1-0.3,1.2-1.1l1.8-6.7h0.3l-1.8,6.7c-0.3,1-0.8,1.3-1.5,1.3
		C564.8,310,564.6,310,564.5,310z M568.6,299.6h0.4l-0.2,0.7h-0.4L568.6,299.6z"/>
	<path d="M569.5,306.2c0-0.3,0.1-0.7,0.2-1.1l0.8-3.1h0.3l-0.8,3.1c-0.1,0.4-0.1,0.7-0.1,1c0,1,0.5,1.7,1.8,1.7c1.2,0,2.5-1,2.9-2.6
		l0.9-3.3h0.3l-1.6,6h-0.3l0.4-1.5c-0.4,0.9-1.3,1.7-2.7,1.7C570.1,308.2,569.5,307.4,569.5,306.2z"/>
	<path d="M577.8,302h0.3l-0.4,1.5c0.4-0.8,1.2-1.7,2.4-1.7c1.2,0,1.8,0.7,1.8,1.9c0.5-0.9,1.3-1.9,2.5-1.9c1.2,0,1.8,0.8,1.8,1.8
		c0,0.3-0.1,0.7-0.2,1.2l-0.8,3.1h-0.3l0.8-3.1c0.1-0.4,0.2-0.8,0.2-1.2c0-0.9-0.5-1.6-1.6-1.6c-1.2,0-2.3,1.2-2.7,2.7l-0.9,3.2
		h-0.3l0.8-3.1c0.1-0.4,0.2-0.8,0.2-1.2c0-0.9-0.5-1.6-1.6-1.6c-1.2,0-2.3,1.2-2.7,2.7l-0.9,3.2h-0.3L577.8,302z"/>
	<path d="M588.1,306l-1.1,4h-0.3l2.1-7.9h0.3l-0.4,1.5c0.3-0.6,1.5-1.7,2.9-1.7c1.5,0,2.5,1.1,2.5,2.6c0,1-0.4,2.1-1.2,2.8
		c-0.6,0.6-1.3,0.9-2.2,0.9C589.1,308.2,588.2,307,588.1,306z M592.7,307.1c0.7-0.7,1.1-1.7,1.1-2.6c0-1.3-0.9-2.4-2.2-2.4
		c-0.9,0-1.7,0.4-2.3,1c-0.7,0.7-1.1,1.6-1.1,2.3c0,1.4,1,2.5,2.4,2.5C591.5,307.9,592.2,307.6,592.7,307.1z"/>
	<path d="M594.7,307.2l0.2-0.2c0.6,0.6,1.4,0.9,2.3,0.9c1.3,0,2-0.7,2-1.4c0-0.8-0.6-1.1-1.6-1.5c-0.9-0.4-1.7-0.7-1.7-1.5
		c0-0.8,0.8-1.6,2.2-1.6c0.6,0,1.5,0.2,2.1,0.8l-0.2,0.2c-0.6-0.5-1.4-0.7-2-0.7c-1.2,0-1.9,0.7-1.9,1.3c0,0.7,0.7,1,1.6,1.4
		c1,0.4,1.7,0.7,1.7,1.6c0,0.8-0.8,1.6-2.2,1.6C596.3,308.1,595.3,307.8,594.7,307.2z"/>
	<path d="M574.6,321.7c0,1.2-0.5,2.3-1.4,3.3c-0.7,0.7-1.8,1.3-3,1.3c-2,0-3.4-1.4-3.4-3.3c0-1.2,0.5-2.3,1.4-3.3
		c0.7-0.7,1.8-1.3,3-1.3C573.1,318.4,574.6,319.8,574.6,321.7z M573,324.7c0.8-0.8,1.3-1.9,1.3-3c0-1.7-1.2-3.1-3.1-3.1
		c-1.1,0-2.1,0.5-2.8,1.2c-0.8,0.8-1.3,1.9-1.3,3c0,1.7,1.2,3.1,3.1,3.1C571.3,325.9,572.3,325.4,573,324.7z"/>
	<path d="M576.3,318.5h0.3l1.3,7.1l5.1-7.1h0.4l-5.4,7.6h-0.2L576.3,318.5z"/>
	<path d="M583.9,322.4c0,0.2,0,0.5,0,0.7c0,1.7,1.1,2.8,3,2.8c0.8,0,1.9-0.3,2.8-1.1l0.2,0.2c-0.9,0.8-2.1,1.1-3,1.1
		c-2,0-3.3-1.2-3.3-3.1c0-1.3,0.6-2.6,1.5-3.5c0.8-0.8,1.8-1.3,2.9-1.3c2.1,0,2.9,1.5,2.9,2.9c0,0.4-0.1,0.7-0.2,1.1H583.9z
		 M584,322.1h6.4c0-0.3,0.1-0.5,0.1-0.8c0-1.3-0.7-2.6-2.6-2.6c-1,0-1.9,0.5-2.6,1.2C584.6,320.4,584.2,321.2,584,322.1z"/>
	<path d="M594,318.5h0.3l-0.6,2.3c1-1.6,2.5-2.5,3.8-2.5l-0.1,0.3h0c-1.3,0-3.5,1.6-4,3.6l-1,3.8H592L594,318.5z"/>
	<path d="M567.7,349.5c0-0.3,0.1-0.7,0.2-1.1l2-7.3h-1.7l0.1-0.4h1.7l1-3.6h0.4l-1,3.6h3.9l-0.1,0.4h-3.9l-2,7.3
		c-0.1,0.4-0.2,0.7-0.2,1c0,1,0.7,1.6,1.9,1.6c0.5,0,1-0.1,1.5-0.3l-0.1,0.5c-0.5,0.2-0.9,0.3-1.4,0.3
		C568.5,351.4,567.7,350.7,567.7,349.5z"/>
	<path d="M578.5,335.9h0.4l-2,7.5c0.8-1.5,2.3-3,4.6-3c2.4,0,3.6,1.4,3.6,3.4c0,0.6-0.1,1.2-0.3,1.8l-1.5,5.5h-0.4l1.5-5.5
		c0.2-0.6,0.3-1.2,0.3-1.8c0-1.8-0.9-3-3.1-3c-2.2,0-4.4,1.7-5.1,4.5l-1.6,5.8h-0.4L578.5,335.9z"/>
	<path d="M588.1,346.1c0,0.3-0.1,0.7-0.1,1c0,2.4,1.6,4,4.2,4c1.2,0,2.6-0.4,3.9-1.5l0.3,0.3c-1.3,1.1-2.9,1.6-4.2,1.6
		c-2.9,0-4.7-1.7-4.7-4.4c0-1.8,0.8-3.6,2-4.9c1.1-1.1,2.5-1.8,4-1.8c3,0,4.1,2.1,4.1,4.1c0,0.5-0.1,1-0.2,1.5H588.1z M588.2,345.7
		h9c0.1-0.4,0.1-0.8,0.1-1.1c0-1.8-1-3.7-3.6-3.7c-1.4,0-2.7,0.6-3.7,1.6C589,343.4,588.4,344.5,588.2,345.7z"/>
	<path d="M569.5,359.2h2.1l-3.3,12.4h-2.1L569.5,359.2z"/>
	<path d="M571.1,369.4c0-0.9,0.3-1.6,0.8-2.2c0.7-0.7,1.8-1.1,3.1-1.1c1.1,0,2,0.2,2.8,0.4l0.1-0.2c0.1-0.2,0.1-0.5,0.1-0.7
		c0-0.8-0.6-1.4-2-1.4c-0.9,0-1.7,0.2-2.4,0.5l-0.3-1.7c0.9-0.4,2-0.6,3.2-0.6c2.3,0,3.6,1,3.6,2.8c0,0.4-0.1,0.9-0.2,1.3l-1.3,5h-2
		l0.3-1.2c-0.8,0.9-1.8,1.4-3,1.4C572.2,371.8,571.1,370.9,571.1,369.4z M577.4,368.2l0.1-0.4c-0.6-0.2-1.4-0.3-2.2-0.3
		c-0.7,0-1.3,0.2-1.7,0.6c-0.3,0.3-0.4,0.7-0.4,1.1c0,0.7,0.6,1.2,1.5,1.2C575.8,370.3,577,369.4,577.4,368.2z"/>
	<path d="M580.8,370.2l6.6-5.9h-4.8l0.4-1.7h7.6l-0.4,1.4l-6.6,5.9h5.1l-0.4,1.7h-7.8L580.8,370.2z"/>
	<path d="M591.7,362.7h2.1l0.7,6.6l4-6.6h2.2l-5.8,9.2c-1.2,1.8-2.2,2.5-3.7,2.5c-0.9,0-1.5-0.2-2-0.6l1.1-1.5
		c0.3,0.2,0.8,0.4,1.2,0.4c0.5,0,1-0.2,1.5-1L591.7,362.7z"/>
</g>
<g>
	<path d="M348.8,205.9c0-0.4,0.1-0.8,0.4-1c0.4-0.4,0.9-0.5,1.6-0.5c0.6,0,1.3,0.1,1.9,0.3l0.1-0.2c0.1-0.2,0.1-0.4,0.1-0.5
		c0-0.8-0.7-1.2-1.6-1.2c-0.5,0-1,0.1-1.3,0.2l-0.1-0.2c0.3-0.1,0.8-0.2,1.3-0.2c1,0,1.8,0.5,1.8,1.4c0,0.2,0,0.4-0.1,0.6l-0.7,2.6
		h-0.2l0.3-1.1c-0.4,0.6-1.1,1.2-2.1,1.2C349.5,207.2,348.8,206.7,348.8,205.9z M352.6,205.2l0.1-0.4c-0.6-0.2-1.3-0.3-1.9-0.3
		c-0.6,0-1.1,0.2-1.4,0.5c-0.2,0.2-0.4,0.5-0.4,0.9c0,0.7,0.7,1.1,1.3,1.1C351.5,207,352.3,206.2,352.6,205.2z"/>
	<path d="M354.5,205.5l-0.4,1.5h-0.2l1.8-6.6h0.2l-0.9,3.2c0.3-0.5,1.1-1.2,2.2-1.2c1.1,0,1.9,0.8,1.9,1.9c0,0.7-0.3,1.5-0.9,2.1
		c-0.4,0.4-1,0.7-1.7,0.7C355.2,207.2,354.6,206.3,354.5,205.5z M358,206.3c0.5-0.5,0.8-1.3,0.8-1.9c0-1-0.7-1.8-1.7-1.8
		c-0.7,0-1.3,0.3-1.7,0.7c-0.5,0.5-0.8,1.2-0.8,1.7c0,1.1,0.7,1.9,1.8,1.9C357,207,357.6,206.7,358,206.3z"/>
	<path d="M359.9,205.2c0-0.8,0.3-1.5,0.8-2c0.5-0.5,1.1-0.8,1.8-0.8c0.9,0,1.5,0.5,1.8,1.1l-0.2,0.1c-0.3-0.5-0.8-1-1.6-1
		c-0.6,0-1.2,0.3-1.7,0.7c-0.5,0.5-0.8,1.1-0.8,1.9c0,1.1,0.9,1.8,1.8,1.8c0.7,0,1.2-0.3,1.6-0.7l0.1,0.1c-0.5,0.4-1,0.7-1.8,0.7
		C360.9,207.2,359.9,206.5,359.9,205.2z"/>
</g>
<g>
	<path d="M521.9,286.9L521.9,286.9c0-3.6,2.6-6.6,6.2-6.6c2.4,0,3.6,0.9,4.8,2l-0.3,0.3c-1-1-2.3-1.9-4.5-1.9
		c-3.3,0-5.8,2.8-5.8,6.1v0c0,3.3,2.5,6.1,5.8,6.1c2.1,0,3.6-1,4.6-2.1l0.3,0.3c-1.1,1.2-2.7,2.1-4.9,2.1
		C524.5,293.4,521.9,290.4,521.9,286.9z"/>
	<path d="M534.6,286.9L534.6,286.9c0-3.5,2.4-6.5,6.3-6.5s6.3,3.1,6.3,6.5v0c0,3.4-2.4,6.5-6.3,6.5S534.6,290.3,534.6,286.9z
		 M546.7,286.9L546.7,286.9c0-3.3-2.4-6.2-5.9-6.2c-3.5,0-5.9,2.9-5.9,6.1v0c0,3.2,2.4,6.2,5.9,6.2
		C544.4,293,546.7,290.1,546.7,286.9z"/>
	<path d="M520.9,302.1h0.4l5.5,7.8l5.5-7.8h0.4v12.6h-0.4v-11.9l-5.5,7.8h0l-5.5-7.8v11.9h-0.4V302.1z"/>
	<path d="M536.3,302.1h0.4l5.5,7.8l5.5-7.8h0.4v12.6h-0.4v-11.9l-5.5,7.8h0l-5.5-7.8v11.9h-0.4V302.1z"/>
	<path d="M521.2,330.1L521.2,330.1c0-3.5,2.4-6.5,6.3-6.5s6.3,3.1,6.3,6.5v0c0,3.4-2.4,6.5-6.3,6.5S521.2,333.5,521.2,330.1z
		 M533.4,330.1L533.4,330.1c0-3.3-2.4-6.2-5.9-6.2c-3.5,0-5.9,2.9-5.9,6.1v0c0,3.2,2.4,6.2,5.9,6.2
		C531,336.2,533.4,333.3,533.4,330.1z"/>
	<path d="M536.9,323.7h0.3l9.6,12v-12h0.4v12.6h-0.3l-9.6-12v12h-0.4V323.7z"/>
	<path d="M523.6,352.4v-7h0.4v7c0,3.6,1.9,5.4,4.7,5.4c2.8,0,4.7-1.8,4.7-5.4v-7h0.4v7c0,3.9-2.1,5.8-5.1,5.8
		C525.7,358.1,523.6,356.2,523.6,352.4z"/>
	<path d="M536.6,356.1l0.3-0.3c1.3,1.2,2.9,1.9,4.7,1.9c2.4,0,3.9-1.3,3.9-3v0c0-1.5-0.9-2.4-4.1-3c-3.1-0.6-4.3-1.5-4.3-3.3v0
		c0-1.8,1.7-3.2,4.1-3.2c1.7,0,3.1,0.6,4.3,1.4l-0.3,0.3c-1.1-0.8-2.5-1.4-4.1-1.4c-2.2,0-3.7,1.4-3.7,2.8v0c0,1.5,1,2.3,4.1,3
		c3.3,0.7,4.4,1.7,4.4,3.4v0c0,1.9-1.6,3.3-4.3,3.3C539.6,358.1,537.9,357.4,536.6,356.1z"/>
	<path d="M530.4,366.9h8.8v0.4h-8.4v5.7h7.6v0.4h-7.6v5.8h8.5v0.4h-8.9V366.9z"/>
</g>
<g>
	<path d="M379.2,333.7c0-0.3,0.1-0.7,0.2-1.1l0.9-3.3h0.2l-0.9,3.3c-0.1,0.4-0.2,0.8-0.2,1.1c0,1.3,0.9,1.9,2,1.9
		c0.6,0,1.3-0.2,1.8-0.7c0.4-0.4,0.7-1,1-2l0.9-3.5h0.2l-1,3.6c-0.3,1-0.6,1.6-1,2.1c-0.5,0.5-1.2,0.8-1.9,0.8
		C380.2,335.7,379.2,335,379.2,333.7z"/>
	<path d="M385.3,334.5l0.2-0.1c0.5,0.7,1.4,1.1,2.4,1.1c1.3,0,2-0.8,2-1.5c0-0.9-0.8-1.2-1.7-1.5c-0.8-0.3-1.7-0.7-1.7-1.5
		c0-0.4,0.2-0.8,0.5-1.1c0.4-0.4,1-0.6,1.7-0.6c0.9,0,1.6,0.4,2.1,0.9l-0.1,0.1c-0.5-0.5-1.2-0.9-2-0.9c-1.3,0-2,0.7-2,1.5
		c0,0.8,0.8,1.1,1.6,1.4c1,0.4,1.7,0.7,1.7,1.7c0,0.4-0.2,0.8-0.5,1.1c-0.4,0.4-0.9,0.6-1.7,0.6
		C386.8,335.7,385.8,335.2,385.3,334.5z"/>
	<path d="M395.3,329.2h0.2l1.3,6.3h-0.2l-0.4-1.9h-4l-1.4,1.9h-0.2L395.3,329.2z M396.2,333.5l-0.8-4l-3,4H396.2z"/>
</g>
<g>
	<path d="M404.9,296.5c0-1.1,0.4-2.1,1.2-2.8c0.7-0.7,1.6-1.1,2.7-1.1c1.1,0,1.8,0.5,2.2,1.1l-0.2,0.1c-0.4-0.6-1-1-2.1-1
		c-1,0-1.9,0.4-2.5,1c-0.7,0.7-1.1,1.6-1.1,2.7c0,1.4,0.9,2.5,2.4,2.5c0.8,0,1.5-0.3,2-0.6l0.7-2.3H408l0.1-0.2h2.4l-0.7,2.6
		c-0.6,0.4-1.4,0.7-2.2,0.7C405.9,299.2,404.9,298,404.9,296.5z"/>
	<path d="M418.2,295.4c0,1-0.4,2-1.2,2.7c-0.6,0.6-1.5,1-2.4,1c-1.6,0-2.7-1.2-2.7-2.7c0-1,0.4-2,1.2-2.7c0.6-0.6,1.5-1,2.4-1
		C417.1,292.7,418.2,293.9,418.2,295.4z M416.9,298c0.7-0.7,1.1-1.6,1.1-2.6c0-1.4-1-2.6-2.5-2.6c-0.9,0-1.7,0.4-2.3,1
		c-0.7,0.7-1.1,1.6-1.1,2.6c0,1.4,1,2.6,2.5,2.6C415.5,299,416.3,298.6,416.9,298z"/>
	<path d="M421.4,292.9h-2.3l0-0.2h4.8l0,0.2h-2.3l-1.6,6.1h-0.2L421.4,292.9z"/>
	<path d="M406,303.6h0.2l-0.8,3h4.5l0.8-3h0.2l-1.7,6.3H409l0.8-3.1h-4.5l-0.8,3.1h-0.2L406,303.6z"/>
	<path d="M415.3,303.5h0.2l1.3,6.3h-0.2l-0.4-1.9h-4l-1.4,1.9h-0.2L415.3,303.5z M416.2,307.8l-0.8-4l-3,4H416.2z"/>
	<path d="M419.7,303.6h0.2l1.7,3.9l3.8-3.9h0.2l-1.7,6.3h-0.2l1.6-6l-3.8,3.9h0l-1.7-3.9l-1.6,6H418L419.7,303.6z"/>
</g>
<g>
	<path d="M402.9,317.4h3.5c0.9,0,1.4,0.2,1.8,0.6c0.2,0.2,0.4,0.5,0.4,1v0c0,0.7-0.5,1.2-1.1,1.4c0.8,0.2,1.3,0.7,1.3,1.5v0
		c0,1-0.8,1.7-2.4,1.7h-3.5V317.4z M406.5,319.5c0-0.3-0.2-0.4-0.7-0.4h-0.9v0.9h0.9C406.3,319.9,406.5,319.8,406.5,319.5
		L406.5,319.5z M406,321.2h-1.1v0.9h1.1c0.5,0,0.7-0.2,0.7-0.5v0C406.7,321.4,406.4,321.2,406,321.2z"/>
	<path d="M409.1,320.6L409.1,320.6c0-1.8,1.5-3.3,3.4-3.3s3.4,1.4,3.4,3.3v0c0,1.8-1.5,3.3-3.4,3.3
		C410.6,323.9,409.1,322.4,409.1,320.6z M413.8,320.6L413.8,320.6c0-0.8-0.5-1.4-1.3-1.4c-0.8,0-1.3,0.7-1.3,1.4v0
		c0,0.7,0.5,1.4,1.3,1.4C413.3,322,413.8,321.3,413.8,320.6z"/>
	<path d="M416.5,317.4h2.1v4.5h3v1.8h-5.1V317.4z"/>
	<path d="M422.1,317.4h2.4c2.5,0,3.8,1.2,3.8,3.1v0c0,1.9-1.3,3.2-3.8,3.2h-2.3V317.4z M424.2,319.3v2.6h0.4c1,0,1.6-0.4,1.6-1.3v0
		c0-0.9-0.6-1.3-1.6-1.3H424.2z"/>
	<path d="M437,323.1c-0.8,0.5-1.7,0.8-2.7,0.8c-2,0-3.4-0.9-3.4-2.6v0c0-1.1,0.6-2,1.9-2.6c-0.4-0.6-0.6-1.1-0.6-1.7v0
		c0-1.4,1.1-2.5,2.9-2.5c1.8,0,2.8,1,2.8,2.4v0c0,1-0.6,1.8-1.6,2.4l0.8,0.8c0.3-0.4,0.6-0.9,0.8-1.3l1.9,0.9
		c-0.4,0.7-0.8,1.4-1.2,1.9l1.1,1.1l-1.9,1.4L437,323.1z M435.6,321.6l-1.3-1.3c-0.3,0.2-0.5,0.5-0.5,0.8v0c0,0.4,0.3,0.7,0.9,0.7
		C435,321.8,435.3,321.7,435.6,321.6z M435.8,317L435.8,317c0-0.4-0.2-0.6-0.5-0.6c-0.3,0-0.6,0.3-0.6,0.7v0c0,0.3,0.1,0.6,0.4,0.9
		C435.5,317.7,435.8,317.4,435.8,317z"/>
	<path d="M402.8,327.7h4.8v1.5h-2.9v0.6h2.7v1.4h-2.7v0.6h3v1.5h-4.8V327.7z"/>
	<path d="M413.7,327.7l-1.8,2.7l1.9,2.9h-2.1l-0.9-1.5l-0.9,1.5h-2.1l1.9-2.8l-1.8-2.8h2.1l0.8,1.3l0.8-1.3H413.7z"/>
	<path d="M413.4,330.6L413.4,330.6c0-1.7,1.3-2.9,3-2.9c1.2,0,2.1,0.6,2.5,1.5l-1.5,0.9c-0.2-0.4-0.5-0.7-1-0.7c-0.6,0-1,0.6-1,1.2
		v0c0,0.7,0.4,1.2,1,1.2c0.5,0,0.8-0.3,1.1-0.7l1.5,0.9c-0.5,0.8-1.3,1.5-2.6,1.5C414.8,333.5,413.4,332.3,413.4,330.6z"/>
	<path d="M419.4,327.7h1.9v5.6h-1.9V327.7z"/>
	<path d="M423.3,329.3h-1.6v-1.6h5.2v1.6h-1.6v4h-1.9V329.3z"/>
	<path d="M427.3,327.7h1.9v5.6h-1.9V327.7z"/>
	<path d="M429.8,327.7h1.8l2,2.5v-2.5h1.9v5.6h-1.7l-2.1-2.6v2.6h-1.9V327.7z"/>
	<path d="M435.9,330.6L435.9,330.6c0-1.7,1.3-2.9,3.1-2.9c1,0,1.7,0.3,2.3,0.8l-1,1.3c-0.4-0.3-0.8-0.5-1.2-0.5
		c-0.7,0-1.3,0.6-1.3,1.3v0c0,0.8,0.6,1.3,1.3,1.3c0.3,0,0.5,0,0.6-0.1v-0.6h-1V330h2.7v2.6c-0.6,0.5-1.5,0.8-2.5,0.8
		C437.3,333.5,435.9,332.3,435.9,330.6z"/>
</g>
<g>
	<path d="M631.8,341.1c0-2.2,1.7-4,4-4c2.3,0,3.8,1.6,3.8,3.4c0,1.7-1.1,2.6-2,2.6c-0.8,0-1.2-0.4-1.4-0.8c-0.4,0.5-0.8,0.8-1.3,0.8
		c-1,0-1.6-0.7-1.6-1.9c0-1.3,0.9-2.4,2-2.4c0.5,0,0.9,0.3,1.2,0.7l0.1-0.6l1.7,0.3l-0.4,2.2c0,0.2,0,0.3,0,0.5
		c0,0.3,0.2,0.5,0.5,0.5c0.5,0,1-0.6,1-1.8c0-1.7-1.4-3.1-3.5-3.1c-2.2,0-3.7,1.6-3.7,3.6c0,2,1.5,3.6,3.6,3.6
		c0.9,0,1.5-0.2,2.2-0.6l0.2,0.3c-0.7,0.4-1.4,0.7-2.4,0.7C633.5,345,631.8,343.3,631.8,341.1z M636,341.4c0.1-0.1,0.2-0.4,0.2-0.6
		c0-0.3-0.2-0.5-0.5-0.5c-0.2,0-0.3,0.1-0.4,0.2c-0.1,0.1-0.2,0.4-0.2,0.6c0,0.3,0.2,0.5,0.5,0.5C635.7,341.6,635.9,341.5,636,341.4
		z"/>
	<path d="M637.4,353.3h-1.2l-0.2,1.1h-1.4l0.2-1.1h-1l-0.2,1.1h-1.4l0.2-1.1h-0.7v-1.7h1l0.1-0.7H632v-1.7h1.2l0.2-1h1.4l-0.2,1h1
		l0.2-1h1.4l-0.2,1h0.7v1.7h-1l-0.1,0.7h0.9V353.3z M634.1,351.6h1.1l0.1-0.8h-1.1L634.1,351.6z"/>
	<path d="M636.5,361c-0.4-0.3-0.9-0.5-1.3-0.5v0.7c1.5,0.3,2.4,0.8,2.4,2v0c0,1.2-0.9,1.9-2.3,2v0.9h-0.9v-0.9c-1-0.1-2-0.4-2.7-0.9
		l0.9-1.4c0.7,0.4,1.3,0.7,1.9,0.8v-0.8c-1.6-0.3-2.4-0.8-2.4-2v0c0-1.1,0.8-1.9,2.4-2v-0.5h0.9v0.5c0.8,0.1,1.5,0.3,2.1,0.7
		L636.5,361z M634.4,361.1v-0.7c-0.4,0-0.6,0.2-0.6,0.3v0C633.8,360.9,633.9,361,634.4,361.1z M635.2,363v0.7c0.4,0,0.6-0.2,0.6-0.3
		v0C635.8,363.1,635.7,363,635.2,363z"/>
	<path d="M631.7,371.4L631.7,371.4c0-1,0.7-1.8,1.7-1.8c1.1,0,1.7,0.8,1.7,1.8v0c0,1-0.7,1.8-1.7,1.8S631.7,372.3,631.7,371.4z
		 M637.6,369.7h1.4l-2.8,3.5l-2.3,2.8h-1.4l2.8-3.4L637.6,369.7z M633,371.3L633,371.3c0,0.4,0.2,0.6,0.5,0.6c0.2,0,0.5-0.2,0.5-0.6
		v0c0-0.4-0.2-0.6-0.5-0.6C633.2,370.7,633,370.9,633,371.3z M636.3,374.3L636.3,374.3c0-1,0.7-1.8,1.7-1.8c1.1,0,1.7,0.8,1.7,1.8v0
		c0,1-0.7,1.8-1.7,1.8S636.3,375.3,636.3,374.3z M638.5,374.3L638.5,374.3c0-0.4-0.2-0.6-0.5-0.6c-0.3,0-0.5,0.2-0.5,0.6v0
		c0,0.4,0.2,0.6,0.5,0.6C638.2,374.9,638.5,374.7,638.5,374.3z"/>
	<path d="M635.9,386.3c-0.6,0.4-1.2,0.6-1.9,0.6c-1.4,0-2.4-0.6-2.4-1.8v0c0-0.8,0.4-1.4,1.3-1.8c-0.3-0.4-0.4-0.8-0.4-1.2v0
		c0-1,0.8-1.7,2-1.7c1.2,0,2,0.7,2,1.6v0c0,0.7-0.4,1.3-1.1,1.6l0.6,0.5c0.2-0.3,0.4-0.6,0.6-0.9l1.3,0.6c-0.3,0.5-0.5,0.9-0.8,1.3
		l0.8,0.7l-1.3,1L635.9,386.3z M634.9,385.3l-0.9-0.9c-0.2,0.2-0.3,0.4-0.3,0.5v0c0,0.3,0.2,0.5,0.6,0.5
		C634.5,385.5,634.7,385.4,634.9,385.3z M635,382.1L635,382.1c0-0.3-0.2-0.4-0.4-0.4c-0.2,0-0.4,0.2-0.4,0.5v0
		c0,0.2,0.1,0.4,0.3,0.7C634.8,382.6,635,382.3,635,382.1z"/>
	<path d="M631.8,392.6v-1.4h2.3v1.4l-0.6,3h-1L631.8,392.6z M631.9,395.9h2.1v1.6h-2.1V395.9z"/>
	<path d="M632,403.1h4.8v1.7H632V403.1z M632,405.6h4.8v1.7H632V405.6z"/>
	<path d="M631.8,416.6c0-1.9,1-3,2.8-3.9l0.8,1.2c-1.1,0.8-1.6,1.5-1.6,2.6c0,1.1,0.5,1.9,1.6,2.6l-0.8,1.2
		C632.8,419.6,631.8,418.5,631.8,416.6z"/>
	<path d="M631.7,430c1.1-0.8,1.6-1.5,1.6-2.6s-0.5-1.9-1.6-2.6l0.8-1.2c1.7,0.9,2.8,1.9,2.8,3.9c0,1.9-1,3-2.8,3.9L631.7,430z"/>
</g>
<g>
	<g>
		<path d="M263,165.2h4.1l-0.2,0.9h-3.1l-0.4,1.5h2.8l-0.2,0.9h-2.8l-0.4,1.5h3.2l-0.2,0.9h-4.1L263,165.2z"/>
		<path d="M268.3,165.2h1l1,2.6l2.4-2.6h1.1l-1.5,5.6h-1l1.1-4l-2.5,2.6h0l-1-2.6l-1.1,4h-1L268.3,165.2z"/>
		<path d="M259.7,174.8h1.8c0.8,0,1.3,0.2,1.7,0.6c0.3,0.3,0.4,0.6,0.4,1.1c0,0.6-0.2,1-0.5,1.4c-0.5,0.5-1.3,0.8-2.2,0.8h-1.2
			l-0.5,1.8h-1L259.7,174.8z M261.4,175.7h-1l-0.5,2h1c0.6,0,1.1-0.2,1.4-0.4c0.2-0.2,0.3-0.4,0.3-0.7c0-0.2-0.1-0.4-0.2-0.6
			C262.1,175.8,261.8,175.7,261.4,175.7z"/>
		<path d="M265.1,174.8h1l-1.5,5.6h-1L265.1,174.8z"/>
		<path d="M268.8,178.5h-1.2l-0.5,2h-1l1.5-5.6h2c0.8,0,1.3,0.2,1.7,0.5c0.3,0.3,0.4,0.6,0.4,1.1c0,0.5-0.2,1-0.5,1.3
			c-0.3,0.3-0.7,0.5-1.4,0.7l1,2h-1.1L268.8,178.5z M269.1,177.6c0.6,0,1.1-0.2,1.3-0.4c0.2-0.2,0.3-0.4,0.3-0.7
			c0-0.2-0.1-0.4-0.2-0.5c-0.2-0.2-0.5-0.3-0.9-0.3h-1.2l-0.5,1.9H269.1z"/>
		<path d="M273.4,174.8h4.1l-0.2,0.9h-3.1l-0.4,1.5h2.8l-0.2,0.9h-2.8l-0.4,1.5h3.2l-0.2,0.9h-4.1L273.4,174.8z"/>
		<path d="M255.1,189.1l0.7-0.6c0.5,0.5,1,0.8,1.7,0.8c0.6,0,1.1-0.3,1.1-0.8c0-0.3-0.2-0.5-1-0.8c-0.9-0.3-1.4-0.7-1.4-1.5
			c0-0.4,0.2-0.8,0.5-1.1c0.4-0.4,1-0.6,1.7-0.6c0.9,0,1.6,0.3,2.1,0.8l-0.7,0.7c-0.4-0.4-0.9-0.6-1.4-0.6c-0.7,0-1,0.4-1,0.7
			c0,0.4,0.3,0.5,1.1,0.9c0.9,0.3,1.4,0.7,1.4,1.5c0,0.5-0.2,0.9-0.5,1.2c-0.4,0.4-1,0.6-1.7,0.6
			C256.4,190.1,255.6,189.8,255.1,189.1z"/>
		<path d="M262.6,185.4h-1.8l0.2-0.9h4.5l-0.2,0.9h-1.8l-1.3,4.7h-1L262.6,185.4z"/>
		<path d="M267.8,184.4h0.9l1,5.6h-1l-0.2-1.4h-2.6l-0.9,1.4h-1.1L267.8,184.4z M268.4,187.8l-0.4-2.3l-1.6,2.3H268.4z"/>
		<path d="M272.3,185.4h-1.8l0.2-0.9h4.5l-0.2,0.9h-1.8l-1.3,4.7h-1L272.3,185.4z"/>
		<path d="M276.3,184.4h4.1l-0.2,0.9H277l-0.4,1.5h2.8l-0.2,0.9h-2.8l-0.4,1.5h3.2l-0.2,0.9h-4.1L276.3,184.4z"/>
		<path d="M248.9,194h2.1c1.2,0,1.8,0.6,1.8,1.3s-0.5,1.3-1.3,1.4c0.5,0.2,0.9,0.5,0.9,1.1c0,1-0.9,1.7-2.4,1.7h-2.7L248.9,194z
			 M250.2,198.8c0.8,0,1.3-0.3,1.3-0.9c0-0.4-0.4-0.7-1-0.7H249l-0.4,1.5H250.2z M250.6,196.4c0.8,0,1.3-0.3,1.3-0.9
			c0-0.4-0.3-0.6-0.9-0.6h-1.3l-0.4,1.5H250.6z"/>
		<path d="M253.6,197.9c0-0.3,0-0.6,0.1-0.9l0.8-3h1l-0.8,3.1c0,0.2-0.1,0.4-0.1,0.6c0,0.6,0.4,1.1,1.2,1.1c0.4,0,0.8-0.1,1-0.4
			c0.3-0.3,0.5-0.6,0.6-1.2l0.9-3.2h1l-0.9,3.3c-0.2,0.7-0.5,1.3-0.9,1.7c-0.5,0.5-1.1,0.7-1.8,0.7
			C254.4,199.7,253.6,199,253.6,197.9z"/>
		<path d="M260.7,194h1l-1.5,5.6h-1L260.7,194z"/>
		<path d="M263.2,194h1l-1.3,4.7h2.9l-0.2,0.9h-3.9L263.2,194z"/>
		<path d="M268.2,194h1.5c1,0,1.7,0.3,2.2,0.7c0.4,0.4,0.6,0.9,0.6,1.6c0,0.8-0.3,1.6-0.9,2.2c-0.7,0.7-1.7,1-2.9,1h-2L268.2,194z
			 M269.6,194.9h-0.7l-1,3.8h0.9c0.8,0,1.6-0.3,2-0.8c0.4-0.4,0.6-0.9,0.6-1.5c0-0.4-0.1-0.8-0.4-1
			C270.8,195.1,270.3,194.9,269.6,194.9z"/>
		<path d="M274.4,194h1l-1.5,5.6h-1L274.4,194z"/>
		<path d="M276.9,194h0.9l1.9,4l1.1-4h1l-1.5,5.6h-0.8l-2-4.1l-1.1,4.1h-1L276.9,194z"/>
		<path d="M282.1,197.3c0-0.9,0.4-1.7,1-2.4c0.6-0.6,1.5-1,2.5-1c1.2,0,1.8,0.5,2.2,1l-0.7,0.6c-0.3-0.4-0.8-0.7-1.6-0.7
			c-0.6,0-1.2,0.3-1.6,0.7c-0.4,0.4-0.7,1.1-0.7,1.8c0,1,0.7,1.5,1.6,1.5c0.5,0,0.9-0.1,1.2-0.3l0.3-1.2h-1.4l0.2-0.9h2.4l-0.8,2.7
			c-0.6,0.3-1.2,0.5-2,0.5C283.4,199.7,282.1,198.9,282.1,197.3z"/>
	</g>
	<g>
		<path fill="#231F20" d="M263,165.2h4.1l-0.2,0.9h-3.1l-0.4,1.5h2.8l-0.2,0.9h-2.8l-0.4,1.5h3.2l-0.2,0.9h-4.1L263,165.2z"/>
		<path fill="#231F20" d="M268.3,165.2h1l1,2.6l2.4-2.6h1.1l-1.5,5.6h-1l1.1-4l-2.5,2.6h0l-1-2.6l-1.1,4h-1L268.3,165.2z"/>
		<path fill="#231F20" d="M259.7,174.8h1.8c0.8,0,1.3,0.2,1.7,0.6c0.3,0.3,0.4,0.6,0.4,1.1c0,0.6-0.2,1-0.5,1.4
			c-0.5,0.5-1.3,0.8-2.2,0.8h-1.2l-0.5,1.8h-1L259.7,174.8z M261.4,175.7h-1l-0.5,2h1c0.6,0,1.1-0.2,1.4-0.4
			c0.2-0.2,0.3-0.4,0.3-0.7c0-0.2-0.1-0.4-0.2-0.6C262.1,175.8,261.8,175.7,261.4,175.7z"/>
		<path fill="#231F20" d="M265.1,174.8h1l-1.5,5.6h-1L265.1,174.8z"/>
		<path fill="#231F20" d="M268.8,178.5h-1.2l-0.5,2h-1l1.5-5.6h2c0.8,0,1.3,0.2,1.7,0.5c0.3,0.3,0.4,0.6,0.4,1.1
			c0,0.5-0.2,1-0.5,1.3c-0.3,0.3-0.7,0.5-1.4,0.7l1,2h-1.1L268.8,178.5z M269.1,177.6c0.6,0,1.1-0.2,1.3-0.4
			c0.2-0.2,0.3-0.4,0.3-0.7c0-0.2-0.1-0.4-0.2-0.5c-0.2-0.2-0.5-0.3-0.9-0.3h-1.2l-0.5,1.9H269.1z"/>
		<path fill="#231F20" d="M273.4,174.8h4.1l-0.2,0.9h-3.1l-0.4,1.5h2.8l-0.2,0.9h-2.8l-0.4,1.5h3.2l-0.2,0.9h-4.1L273.4,174.8z"/>
		<path fill="#231F20" d="M255.1,189.1l0.7-0.6c0.5,0.5,1,0.8,1.7,0.8c0.6,0,1.1-0.3,1.1-0.8c0-0.3-0.2-0.5-1-0.8
			c-0.9-0.3-1.4-0.7-1.4-1.5c0-0.4,0.2-0.8,0.5-1.1c0.4-0.4,1-0.6,1.7-0.6c0.9,0,1.6,0.3,2.1,0.8l-0.7,0.7c-0.4-0.4-0.9-0.6-1.4-0.6
			c-0.7,0-1,0.4-1,0.7c0,0.4,0.3,0.5,1.1,0.9c0.9,0.3,1.4,0.7,1.4,1.5c0,0.5-0.2,0.9-0.5,1.2c-0.4,0.4-1,0.6-1.7,0.6
			C256.4,190.1,255.6,189.8,255.1,189.1z"/>
		<path fill="#231F20" d="M262.6,185.4h-1.8l0.2-0.9h4.5l-0.2,0.9h-1.8l-1.3,4.7h-1L262.6,185.4z"/>
		<path fill="#231F20" d="M267.8,184.4h0.9l1,5.6h-1l-0.2-1.4h-2.6l-0.9,1.4h-1.1L267.8,184.4z M268.4,187.8l-0.4-2.3l-1.6,2.3
			H268.4z"/>
		<path fill="#231F20" d="M272.3,185.4h-1.8l0.2-0.9h4.5l-0.2,0.9h-1.8l-1.3,4.7h-1L272.3,185.4z"/>
		<path fill="#231F20" d="M276.3,184.4h4.1l-0.2,0.9H277l-0.4,1.5h2.8l-0.2,0.9h-2.8l-0.4,1.5h3.2l-0.2,0.9h-4.1L276.3,184.4z"/>
		<path fill="#231F20" d="M248.9,194h2.1c1.2,0,1.8,0.6,1.8,1.3s-0.5,1.3-1.3,1.4c0.5,0.2,0.9,0.5,0.9,1.1c0,1-0.9,1.7-2.4,1.7h-2.7
			L248.9,194z M250.2,198.8c0.8,0,1.3-0.3,1.3-0.9c0-0.4-0.4-0.7-1-0.7H249l-0.4,1.5H250.2z M250.6,196.4c0.8,0,1.3-0.3,1.3-0.9
			c0-0.4-0.3-0.6-0.9-0.6h-1.3l-0.4,1.5H250.6z"/>
		<path fill="#231F20" d="M253.6,197.9c0-0.3,0-0.6,0.1-0.9l0.8-3h1l-0.8,3.1c0,0.2-0.1,0.4-0.1,0.6c0,0.6,0.4,1.1,1.2,1.1
			c0.4,0,0.8-0.1,1-0.4c0.3-0.3,0.5-0.6,0.6-1.2l0.9-3.2h1l-0.9,3.3c-0.2,0.7-0.5,1.3-0.9,1.7c-0.5,0.5-1.1,0.7-1.8,0.7
			C254.4,199.7,253.6,199,253.6,197.9z"/>
		<path fill="#231F20" d="M260.7,194h1l-1.5,5.6h-1L260.7,194z"/>
		<path fill="#231F20" d="M263.2,194h1l-1.3,4.7h2.9l-0.2,0.9h-3.9L263.2,194z"/>
		<path fill="#231F20" d="M268.2,194h1.5c1,0,1.7,0.3,2.2,0.7c0.4,0.4,0.6,0.9,0.6,1.6c0,0.8-0.3,1.6-0.9,2.2c-0.7,0.7-1.7,1-2.9,1
			h-2L268.2,194z M269.6,194.9h-0.7l-1,3.8h0.9c0.8,0,1.6-0.3,2-0.8c0.4-0.4,0.6-0.9,0.6-1.5c0-0.4-0.1-0.8-0.4-1
			C270.8,195.1,270.3,194.9,269.6,194.9z"/>
		<path fill="#231F20" d="M274.4,194h1l-1.5,5.6h-1L274.4,194z"/>
		<path fill="#231F20" d="M276.9,194h0.9l1.9,4l1.1-4h1l-1.5,5.6h-0.8l-2-4.1l-1.1,4.1h-1L276.9,194z"/>
		<path fill="#231F20" d="M282.1,197.3c0-0.9,0.4-1.7,1-2.4c0.6-0.6,1.5-1,2.5-1c1.2,0,1.8,0.5,2.2,1l-0.7,0.6
			c-0.3-0.4-0.8-0.7-1.6-0.7c-0.6,0-1.2,0.3-1.6,0.7c-0.4,0.4-0.7,1.1-0.7,1.8c0,1,0.7,1.5,1.6,1.5c0.5,0,0.9-0.1,1.2-0.3l0.3-1.2
			h-1.4l0.2-0.9h2.4l-0.8,2.7c-0.6,0.3-1.2,0.5-2,0.5C283.4,199.7,282.1,198.9,282.1,197.3z"/>
	</g>
	<g>
		<path fill="#231F20" d="M263,165.2h4.1l-0.2,0.9h-3.1l-0.4,1.5h2.8l-0.2,0.9h-2.8l-0.4,1.5h3.2l-0.2,0.9h-4.1L263,165.2z"/>
		<path fill="#231F20" d="M268.3,165.2h1l1,2.6l2.4-2.6h1.1l-1.5,5.6h-1l1.1-4l-2.5,2.6h0l-1-2.6l-1.1,4h-1L268.3,165.2z"/>
		<path fill="#231F20" d="M259.7,174.8h1.8c0.8,0,1.3,0.2,1.7,0.6c0.3,0.3,0.4,0.6,0.4,1.1c0,0.6-0.2,1-0.5,1.4
			c-0.5,0.5-1.3,0.8-2.2,0.8h-1.2l-0.5,1.8h-1L259.7,174.8z M261.4,175.7h-1l-0.5,2h1c0.6,0,1.1-0.2,1.4-0.4
			c0.2-0.2,0.3-0.4,0.3-0.7c0-0.2-0.1-0.4-0.2-0.6C262.1,175.8,261.8,175.7,261.4,175.7z"/>
		<path fill="#231F20" d="M265.1,174.8h1l-1.5,5.6h-1L265.1,174.8z"/>
		<path fill="#231F20" d="M268.8,178.5h-1.2l-0.5,2h-1l1.5-5.6h2c0.8,0,1.3,0.2,1.7,0.5c0.3,0.3,0.4,0.6,0.4,1.1
			c0,0.5-0.2,1-0.5,1.3c-0.3,0.3-0.7,0.5-1.4,0.7l1,2h-1.1L268.8,178.5z M269.1,177.6c0.6,0,1.1-0.2,1.3-0.4
			c0.2-0.2,0.3-0.4,0.3-0.7c0-0.2-0.1-0.4-0.2-0.5c-0.2-0.2-0.5-0.3-0.9-0.3h-1.2l-0.5,1.9H269.1z"/>
		<path fill="#231F20" d="M273.4,174.8h4.1l-0.2,0.9h-3.1l-0.4,1.5h2.8l-0.2,0.9h-2.8l-0.4,1.5h3.2l-0.2,0.9h-4.1L273.4,174.8z"/>
		<path fill="#231F20" d="M255.1,189.1l0.7-0.6c0.5,0.5,1,0.8,1.7,0.8c0.6,0,1.1-0.3,1.1-0.8c0-0.3-0.2-0.5-1-0.8
			c-0.9-0.3-1.4-0.7-1.4-1.5c0-0.4,0.2-0.8,0.5-1.1c0.4-0.4,1-0.6,1.7-0.6c0.9,0,1.6,0.3,2.1,0.8l-0.7,0.7c-0.4-0.4-0.9-0.6-1.4-0.6
			c-0.7,0-1,0.4-1,0.7c0,0.4,0.3,0.5,1.1,0.9c0.9,0.3,1.4,0.7,1.4,1.5c0,0.5-0.2,0.9-0.5,1.2c-0.4,0.4-1,0.6-1.7,0.6
			C256.4,190.1,255.6,189.8,255.1,189.1z"/>
		<path fill="#231F20" d="M262.6,185.4h-1.8l0.2-0.9h4.5l-0.2,0.9h-1.8l-1.3,4.7h-1L262.6,185.4z"/>
		<path fill="#231F20" d="M267.8,184.4h0.9l1,5.6h-1l-0.2-1.4h-2.6l-0.9,1.4h-1.1L267.8,184.4z M268.4,187.8l-0.4-2.3l-1.6,2.3
			H268.4z"/>
		<path fill="#231F20" d="M272.3,185.4h-1.8l0.2-0.9h4.5l-0.2,0.9h-1.8l-1.3,4.7h-1L272.3,185.4z"/>
		<path fill="#231F20" d="M276.3,184.4h4.1l-0.2,0.9H277l-0.4,1.5h2.8l-0.2,0.9h-2.8l-0.4,1.5h3.2l-0.2,0.9h-4.1L276.3,184.4z"/>
		<path fill="#231F20" d="M248.9,194h2.1c1.2,0,1.8,0.6,1.8,1.3s-0.5,1.3-1.3,1.4c0.5,0.2,0.9,0.5,0.9,1.1c0,1-0.9,1.7-2.4,1.7h-2.7
			L248.9,194z M250.2,198.8c0.8,0,1.3-0.3,1.3-0.9c0-0.4-0.4-0.7-1-0.7H249l-0.4,1.5H250.2z M250.6,196.4c0.8,0,1.3-0.3,1.3-0.9
			c0-0.4-0.3-0.6-0.9-0.6h-1.3l-0.4,1.5H250.6z"/>
		<path fill="#231F20" d="M253.6,197.9c0-0.3,0-0.6,0.1-0.9l0.8-3h1l-0.8,3.1c0,0.2-0.1,0.4-0.1,0.6c0,0.6,0.4,1.1,1.2,1.1
			c0.4,0,0.8-0.1,1-0.4c0.3-0.3,0.5-0.6,0.6-1.2l0.9-3.2h1l-0.9,3.3c-0.2,0.7-0.5,1.3-0.9,1.7c-0.5,0.5-1.1,0.7-1.8,0.7
			C254.4,199.7,253.6,199,253.6,197.9z"/>
		<path fill="#231F20" d="M260.7,194h1l-1.5,5.6h-1L260.7,194z"/>
		<path fill="#231F20" d="M263.2,194h1l-1.3,4.7h2.9l-0.2,0.9h-3.9L263.2,194z"/>
		<path fill="#231F20" d="M268.2,194h1.5c1,0,1.7,0.3,2.2,0.7c0.4,0.4,0.6,0.9,0.6,1.6c0,0.8-0.3,1.6-0.9,2.2c-0.7,0.7-1.7,1-2.9,1
			h-2L268.2,194z M269.6,194.9h-0.7l-1,3.8h0.9c0.8,0,1.6-0.3,2-0.8c0.4-0.4,0.6-0.9,0.6-1.5c0-0.4-0.1-0.8-0.4-1
			C270.8,195.1,270.3,194.9,269.6,194.9z"/>
		<path fill="#231F20" d="M274.4,194h1l-1.5,5.6h-1L274.4,194z"/>
		<path fill="#231F20" d="M276.9,194h0.9l1.9,4l1.1-4h1l-1.5,5.6h-0.8l-2-4.1l-1.1,4.1h-1L276.9,194z"/>
		<path fill="#231F20" d="M282.1,197.3c0-0.9,0.4-1.7,1-2.4c0.6-0.6,1.5-1,2.5-1c1.2,0,1.8,0.5,2.2,1l-0.7,0.6
			c-0.3-0.4-0.8-0.7-1.6-0.7c-0.6,0-1.2,0.3-1.6,0.7c-0.4,0.4-0.7,1.1-0.7,1.8c0,1,0.7,1.5,1.6,1.5c0.5,0,0.9-0.1,1.2-0.3l0.3-1.2
			h-1.4l0.2-0.9h2.4l-0.8,2.7c-0.6,0.3-1.2,0.5-2,0.5C283.4,199.7,282.1,198.9,282.1,197.3z"/>
	</g>
	<g>
		<path fill="#231F20" d="M263,165.2h4.1l-0.2,0.9h-3.1l-0.4,1.5h2.8l-0.2,0.9h-2.8l-0.4,1.5h3.2l-0.2,0.9h-4.1L263,165.2z"/>
		<path fill="#231F20" d="M268.3,165.2h1l1,2.6l2.4-2.6h1.1l-1.5,5.6h-1l1.1-4l-2.5,2.6h0l-1-2.6l-1.1,4h-1L268.3,165.2z"/>
		<path fill="#231F20" d="M259.7,174.8h1.8c0.8,0,1.3,0.2,1.7,0.6c0.3,0.3,0.4,0.6,0.4,1.1c0,0.6-0.2,1-0.5,1.4
			c-0.5,0.5-1.3,0.8-2.2,0.8h-1.2l-0.5,1.8h-1L259.7,174.8z M261.4,175.7h-1l-0.5,2h1c0.6,0,1.1-0.2,1.4-0.4
			c0.2-0.2,0.3-0.4,0.3-0.7c0-0.2-0.1-0.4-0.2-0.6C262.1,175.8,261.8,175.7,261.4,175.7z"/>
		<path fill="#231F20" d="M265.1,174.8h1l-1.5,5.6h-1L265.1,174.8z"/>
		<path fill="#231F20" d="M268.8,178.5h-1.2l-0.5,2h-1l1.5-5.6h2c0.8,0,1.3,0.2,1.7,0.5c0.3,0.3,0.4,0.6,0.4,1.1
			c0,0.5-0.2,1-0.5,1.3c-0.3,0.3-0.7,0.5-1.4,0.7l1,2h-1.1L268.8,178.5z M269.1,177.6c0.6,0,1.1-0.2,1.3-0.4
			c0.2-0.2,0.3-0.4,0.3-0.7c0-0.2-0.1-0.4-0.2-0.5c-0.2-0.2-0.5-0.3-0.9-0.3h-1.2l-0.5,1.9H269.1z"/>
		<path fill="#231F20" d="M273.4,174.8h4.1l-0.2,0.9h-3.1l-0.4,1.5h2.8l-0.2,0.9h-2.8l-0.4,1.5h3.2l-0.2,0.9h-4.1L273.4,174.8z"/>
		<path fill="#231F20" d="M255.1,189.1l0.7-0.6c0.5,0.5,1,0.8,1.7,0.8c0.6,0,1.1-0.3,1.1-0.8c0-0.3-0.2-0.5-1-0.8
			c-0.9-0.3-1.4-0.7-1.4-1.5c0-0.4,0.2-0.8,0.5-1.1c0.4-0.4,1-0.6,1.7-0.6c0.9,0,1.6,0.3,2.1,0.8l-0.7,0.7c-0.4-0.4-0.9-0.6-1.4-0.6
			c-0.7,0-1,0.4-1,0.7c0,0.4,0.3,0.5,1.1,0.9c0.9,0.3,1.4,0.7,1.4,1.5c0,0.5-0.2,0.9-0.5,1.2c-0.4,0.4-1,0.6-1.7,0.6
			C256.4,190.1,255.6,189.8,255.1,189.1z"/>
		<path fill="#231F20" d="M262.6,185.4h-1.8l0.2-0.9h4.5l-0.2,0.9h-1.8l-1.3,4.7h-1L262.6,185.4z"/>
		<path fill="#231F20" d="M267.8,184.4h0.9l1,5.6h-1l-0.2-1.4h-2.6l-0.9,1.4h-1.1L267.8,184.4z M268.4,187.8l-0.4-2.3l-1.6,2.3
			H268.4z"/>
		<path fill="#231F20" d="M272.3,185.4h-1.8l0.2-0.9h4.5l-0.2,0.9h-1.8l-1.3,4.7h-1L272.3,185.4z"/>
		<path fill="#231F20" d="M276.3,184.4h4.1l-0.2,0.9H277l-0.4,1.5h2.8l-0.2,0.9h-2.8l-0.4,1.5h3.2l-0.2,0.9h-4.1L276.3,184.4z"/>
		<path fill="#231F20" d="M248.9,194h2.1c1.2,0,1.8,0.6,1.8,1.3s-0.5,1.3-1.3,1.4c0.5,0.2,0.9,0.5,0.9,1.1c0,1-0.9,1.7-2.4,1.7h-2.7
			L248.9,194z M250.2,198.8c0.8,0,1.3-0.3,1.3-0.9c0-0.4-0.4-0.7-1-0.7H249l-0.4,1.5H250.2z M250.6,196.4c0.8,0,1.3-0.3,1.3-0.9
			c0-0.4-0.3-0.6-0.9-0.6h-1.3l-0.4,1.5H250.6z"/>
		<path fill="#231F20" d="M253.6,197.9c0-0.3,0-0.6,0.1-0.9l0.8-3h1l-0.8,3.1c0,0.2-0.1,0.4-0.1,0.6c0,0.6,0.4,1.1,1.2,1.1
			c0.4,0,0.8-0.1,1-0.4c0.3-0.3,0.5-0.6,0.6-1.2l0.9-3.2h1l-0.9,3.3c-0.2,0.7-0.5,1.3-0.9,1.7c-0.5,0.5-1.1,0.7-1.8,0.7
			C254.4,199.7,253.6,199,253.6,197.9z"/>
		<path fill="#231F20" d="M260.7,194h1l-1.5,5.6h-1L260.7,194z"/>
		<path fill="#231F20" d="M263.2,194h1l-1.3,4.7h2.9l-0.2,0.9h-3.9L263.2,194z"/>
		<path fill="#231F20" d="M268.2,194h1.5c1,0,1.7,0.3,2.2,0.7c0.4,0.4,0.6,0.9,0.6,1.6c0,0.8-0.3,1.6-0.9,2.2c-0.7,0.7-1.7,1-2.9,1
			h-2L268.2,194z M269.6,194.9h-0.7l-1,3.8h0.9c0.8,0,1.6-0.3,2-0.8c0.4-0.4,0.6-0.9,0.6-1.5c0-0.4-0.1-0.8-0.4-1
			C270.8,195.1,270.3,194.9,269.6,194.9z"/>
		<path fill="#231F20" d="M274.4,194h1l-1.5,5.6h-1L274.4,194z"/>
		<path fill="#231F20" d="M276.9,194h0.9l1.9,4l1.1-4h1l-1.5,5.6h-0.8l-2-4.1l-1.1,4.1h-1L276.9,194z"/>
		<path fill="#231F20" d="M282.1,197.3c0-0.9,0.4-1.7,1-2.4c0.6-0.6,1.5-1,2.5-1c1.2,0,1.8,0.5,2.2,1l-0.7,0.6
			c-0.3-0.4-0.8-0.7-1.6-0.7c-0.6,0-1.2,0.3-1.6,0.7c-0.4,0.4-0.7,1.1-0.7,1.8c0,1,0.7,1.5,1.6,1.5c0.5,0,0.9-0.1,1.2-0.3l0.3-1.2
			h-1.4l0.2-0.9h2.4l-0.8,2.7c-0.6,0.3-1.2,0.5-2,0.5C283.4,199.7,282.1,198.9,282.1,197.3z"/>
	</g>
</g>
<g>
	<path d="M243.7,211.8L243.7,211.8c0-3.5,2.7-6.1,6.1-6.1c2.5,0,4.3,1.2,5.2,3l-3.2,1.9c-0.4-0.8-1-1.4-2.1-1.4
		c-1.3,0-2.2,1.1-2.2,2.5v0c0,1.5,0.9,2.6,2.2,2.6c1.1,0,1.7-0.6,2.2-1.5l3.2,1.8c-1,1.7-2.6,3.1-5.5,3.1
		C246.5,217.8,243.7,215.4,243.7,211.8z"/>
	<path d="M255.3,211.8L255.3,211.8c0-3.4,2.8-6.1,6.3-6.1s6.3,2.6,6.3,6v0c0,3.3-2.8,6-6.3,6C258,217.8,255.3,215.2,255.3,211.8z
		 M264,211.8L264,211.8c0-1.4-0.9-2.6-2.4-2.6c-1.5,0-2.4,1.2-2.4,2.6v0c0,1.4,0.9,2.6,2.4,2.6C263.1,214.4,264,213.2,264,211.8z"/>
	<path d="M268.7,211.8L268.7,211.8c0-3.4,2.8-6.1,6.3-6.1s6.3,2.6,6.3,6v0c0,3.3-2.8,6-6.3,6C271.4,217.8,268.7,215.2,268.7,211.8z
		 M277.4,211.8L277.4,211.8c0-1.4-0.9-2.6-2.4-2.6c-1.5,0-2.4,1.2-2.4,2.6v0c0,1.4,0.9,2.6,2.4,2.6
		C276.5,214.4,277.4,213.2,277.4,211.8z"/>
	<path d="M282.4,206h3.9v8.2h5.4v3.3h-9.3V206z"/>
</g>
<g>
	<path d="M469.2,349.8l-1.2,0.3l-0.3-1.3l2-0.6h1v7h-1.5V349.8z"/>
	<path d="M466.9,366.1l2.3-1.9c0.9-0.7,1.2-1.1,1.2-1.7c0-0.6-0.4-0.9-0.9-0.9c-0.5,0-0.9,0.3-1.4,0.9l-1.1-0.9
		c0.7-0.9,1.4-1.4,2.6-1.4c1.4,0,2.4,0.8,2.4,2.2v0c0,1.2-0.6,1.7-1.8,2.7L469,366h3v1.3h-5.2V366.1z"/>
	<path d="M466.8,378.2l1.1-1c0.5,0.5,1,0.8,1.7,0.8c0.6,0,1-0.3,1-0.8v0c0-0.6-0.5-0.9-1.4-0.9h-0.6l-0.2-1l1.7-1.7h-2.7v-1.3h4.7
		v1.2l-1.8,1.7c0.9,0.2,1.9,0.7,1.9,2v0c0,1.3-1,2.3-2.5,2.3C468.2,379.4,467.4,378.9,466.8,378.2z"/>
</g>
<g>
	<path d="M272.6,227.3l-1.4,0.3l-0.5-2.1l2.5-0.7h2.1v8.5h-2.8V227.3z"/>
	<path d="M276.1,231.2l3.5-2.5c0.5-0.4,0.7-0.7,0.7-1c0-0.4-0.3-0.6-0.8-0.6c-0.5,0-0.9,0.3-1.6,1l-1.8-1.6c1-1.2,2-1.8,3.7-1.8
		c1.9,0,3.3,1.2,3.3,2.7v0c0,1.3-0.7,2-1.7,2.6l-1.5,1h3.3v2.2h-7.1V231.2z"/>
	<path d="M283.4,231.9l1.7-1.7c0.6,0.6,1.3,0.9,2,0.9c0.6,0,1-0.3,1-0.7v0c0-0.4-0.4-0.7-1.1-0.7h-1.2l-0.4-1.2l1.8-1.5H284v-2.2
		h6.5v1.9l-1.9,1.4c1.3,0.3,2.1,1.1,2.1,2.4v0c0,1.8-1.6,2.8-3.4,2.8C285.5,233.4,284.3,232.9,283.4,231.9z"/>
	<path d="M271.5,246.2h-4l-0.5-2l4.1-5h3.1v5h1v2h-1v1.5h-2.7V246.2z M271.5,244.3V242l-1.8,2.2H271.5z"/>
	<path d="M275.3,246.5l1.5-1.8c0.7,0.6,1.4,0.9,2.1,0.9c0.7,0,1.1-0.3,1.1-0.8v0c0-0.5-0.4-0.8-1-0.8c-0.5,0-0.9,0.2-1.3,0.5
		l-1.7-0.8l0.2-4.4h6.1v2.2h-4l-0.1,1.1c0.4-0.3,0.9-0.5,1.6-0.5c1.4,0,2.8,0.9,2.8,2.7v0c0,1.9-1.6,3-3.7,3
		C277.3,247.8,276.2,247.3,275.3,246.5z"/>
	<path d="M284.3,246.8c-0.6-0.6-1.1-1.6-1.1-3.1v0c0-2.6,1.4-4.6,4.1-4.6c1.2,0,2.1,0.3,3,0.9l-1.2,1.8c-0.5-0.3-1-0.6-1.6-0.6
		c-1.1,0-1.4,1-1.5,1.6c0.6-0.5,1.2-0.7,1.9-0.7c1.3,0,2.6,0.9,2.6,2.6v0c0,2-1.6,3.1-3.5,3.1C285.7,247.8,284.9,247.5,284.3,246.8z
		 M287.8,244.9L287.8,244.9c0-0.5-0.4-1-0.9-1s-0.9,0.4-0.9,0.9v0c0,0.5,0.4,0.9,0.9,0.9S287.8,245.4,287.8,244.9z"/>
	<path d="M272.3,256h-3.8v-2.3h6.9v2.1l-3.6,6.3h-3L272.3,256z"/>
	<path d="M275.5,259.7L275.5,259.7c0-1,0.6-1.7,1.5-2c-0.6-0.3-1.2-0.9-1.2-1.8v0c0-1.4,1.4-2.4,3.4-2.4c2,0,3.4,1,3.4,2.4v0
		c0,0.9-0.6,1.5-1.2,1.8c0.9,0.3,1.5,0.9,1.5,2v0c0,1.5-1.5,2.5-3.7,2.5S275.5,261.2,275.5,259.7z M280.1,259.4L280.1,259.4
		c0-0.5-0.4-0.8-1-0.8c-0.6,0-1,0.4-1,0.8v0c0,0.4,0.3,0.8,1,0.8C279.8,260.3,280.1,259.8,280.1,259.4z M280,256.2L280,256.2
		c0-0.4-0.3-0.8-0.9-0.8s-0.9,0.4-0.9,0.8v0c0,0.5,0.4,0.8,0.9,0.8S280,256.7,280,256.2z"/>
	<path d="M287.7,258.5c-0.6,0.6-1.3,0.8-1.9,0.8c-1.4,0-2.6-1-2.6-2.6v0c0-2,1.5-3.2,3.5-3.2c1.3,0,2.1,0.4,2.7,1
		c0.6,0.6,1,1.6,1,3.1v0c0,2.8-1.5,4.6-4.1,4.6c-1.3,0-2.3-0.4-3.1-1l1.2-1.8c0.6,0.4,1.1,0.6,1.8,0.6
		C287.4,260.1,287.7,259.1,287.7,258.5z M287.8,256.5L287.8,256.5c0-0.6-0.4-1-0.9-1s-0.9,0.4-0.9,1v0c0,0.5,0.4,0.9,0.9,0.9
		S287.8,257,287.8,256.5z"/>
</g>
<g>
	<path d="M604.5,369.6c-0.7,0.7-1.4,1.1-2.4,1.1c-1.6,0-2.9-1.2-2.9-3.2c0-1.4,0.5-2.5,1.3-3.3c0.8-0.8,1.8-1.2,2.8-1.2
		c1.3,0,2,0.6,2.5,1.5l1.1-4.1h1.7l-2.7,10.2h-1.7L604.5,369.6z M604.5,368.5c0.6-0.6,0.9-1.3,0.9-2.2c0-1.1-0.8-1.9-1.9-1.9
		c-0.6,0-1.2,0.3-1.7,0.7c-0.5,0.5-0.9,1.3-0.9,2.3c0,1.1,0.7,1.8,1.8,1.8C603.4,369.3,604.1,369,604.5,368.5z"/>
	<path d="M616.4,366.4c0,1.1-0.5,2.2-1.3,3c-0.8,0.8-1.8,1.3-3,1.3c-2.1,0-3.5-1.4-3.5-3.4c0-1.1,0.5-2.2,1.3-3.1
		c0.8-0.8,1.8-1.3,3-1.3C615.1,363,616.4,364.4,616.4,366.4z M613.9,368.5c0.6-0.6,0.9-1.4,0.9-2.1c0-1.3-0.8-2-1.9-2
		c-0.6,0-1.2,0.3-1.6,0.7c-0.6,0.6-0.9,1.4-0.9,2.1c0,1.3,0.8,2,1.9,2C612.9,369.3,613.4,369,613.9,368.5z"/>
	<path d="M616.7,371.7l0.9-1.2c0.8,0.6,1.8,0.9,2.8,0.9c0.8,0,1.4-0.2,1.8-0.7c0.4-0.4,0.6-0.9,0.8-1.5l0.1-0.4
		c-0.8,0.7-1.5,1.1-2.5,1.1c-1.5,0-2.8-1-2.8-2.7c0-1.2,0.5-2.3,1.3-3.1c0.8-0.8,1.8-1.2,2.8-1.2c1.4,0,2,0.7,2.4,1.5l0.4-1.3h1.7
		l-1.6,6.1c-0.4,1.3-0.7,2-1.3,2.5c-0.7,0.7-1.6,1-2.9,1C619.1,372.8,617.7,372.4,616.7,371.7z M623,367.8c0.5-0.5,0.8-1.1,0.8-1.7
		c0-0.9-0.7-1.7-1.8-1.7c-0.7,0-1.3,0.3-1.7,0.7c-0.5,0.5-0.8,1.1-0.8,1.8c0,1.1,0.8,1.6,1.7,1.6C621.9,368.6,622.6,368.3,623,367.8
		z"/>
</g>
<g>
	<path d="M182.9,392.9h5.8c2.5,0,4.2,0.6,5.3,1.7c0.8,0.8,1.2,2,1.2,3.3c0,1.6-0.6,3-1.6,4c-1.5,1.5-4,2.4-7.2,2.4h-5.9l-2,7.4h-0.6
		L182.9,392.9z M188.6,393.4h-5.3l-2.8,10.4h5.8c3.1,0,5.4-0.9,6.7-2.2c1-1,1.5-2.2,1.5-3.6c0-1.2-0.4-2.2-1.1-3
		C192.5,394,190.9,393.4,188.6,393.4z"/>
	<path d="M216.4,400.8c0,3.1-1.3,6.1-3.5,8.2c-1.9,1.9-4.4,3.1-7.3,3.1c-4.8,0-8.1-3.6-8.1-8.2c0-3.1,1.3-6.1,3.5-8.2
		c1.9-1.9,4.4-3.1,7.3-3.1C213.1,392.6,216.4,396.2,216.4,400.8z M212.5,408.7c2.1-2.1,3.3-4.9,3.3-7.9c0-4.3-3.1-7.7-7.5-7.7
		c-2.6,0-5,1.1-6.8,2.9c-2.1,2.1-3.3,4.9-3.3,7.9c0,4.3,3.1,7.7,7.5,7.7C208.4,411.6,210.7,410.5,212.5,408.7z"/>
	<path d="M223.7,392.9h5.8c2.5,0,4.2,0.6,5.3,1.7c0.8,0.8,1.2,2,1.2,3.3c0,1.6-0.6,3-1.6,4c-1.5,1.5-4,2.4-7.2,2.4h-5.9l-2,7.4h-0.6
		L223.7,392.9z M229.4,393.4h-5.3l-2.8,10.4h5.8c3.1,0,5.4-0.9,6.7-2.2c1-1,1.5-2.2,1.5-3.6c0-1.2-0.4-2.2-1.1-3
		C233.3,394,231.7,393.4,229.4,393.4z"/>
	<path d="M238.3,406c0-1,0.2-2.1,0.5-3.3l2.6-9.9h0.6l-2.7,9.9c-0.3,1.2-0.5,2.3-0.5,3.2c0,3.8,2.6,5.6,6.1,5.6
		c1.9,0,3.8-0.6,5.3-2.2c1.2-1.2,2.2-3,3-5.9l2.8-10.6h0.6l-2.9,10.7c-0.8,3-1.8,4.9-3.1,6.2c-1.6,1.6-3.6,2.3-5.8,2.3
		C241.3,412.1,238.3,410.2,238.3,406z"/>
	<path d="M262,392.9h0.6l-4.9,18.4h11.6l-0.1,0.5H257L262,392.9z"/>
	<path d="M285.3,392.8h0.5l3.9,19h-0.6l-1.2-5.7h-12l-4.2,5.7h-0.7L285.3,392.8z M287.9,405.6l-2.5-12.1l-9,12.1H287.9z"/>
	<path d="M303.4,403.6h-0.4h-6.7l-2.2,8.2h-0.6l5.1-18.9h6.7c2.3,0,3.9,0.6,5,1.6c0.8,0.8,1.2,1.9,1.2,3.1c0,1-0.3,2.6-1.5,3.8
		c-0.7,0.7-2.1,1.9-6,2.1l4.3,8.3h-0.6L303.4,403.6z M302.9,403c4,0,5.6-0.9,6.6-1.9c0.9-0.9,1.4-2.1,1.4-3.4c0-1.2-0.4-2.1-1-2.8
		c-1-1-2.5-1.5-4.6-1.5H299l-2.6,9.6H302.9z"/>
</g>
<g>
	<path d="M265.9,341.6l0.2-0.2c0.7,0.6,1.6,0.9,2.5,0.9c1.2,0,2.1-0.6,2.1-1.4v0c0-1-1.1-1.3-2.1-1.6c-1.3-0.4-2.3-0.7-2.3-1.7v0
		c0-0.9,0.9-1.7,2.3-1.7c0.7,0,1.6,0.2,2.3,0.7l-0.2,0.2c-0.6-0.5-1.4-0.7-2.1-0.7c-1.2,0-2,0.6-2,1.4v0c0,0.9,0.9,1.2,2.1,1.5
		c1.3,0.4,2.3,0.7,2.3,1.8v0c0,1-1,1.7-2.4,1.7C267.6,342.6,266.6,342.3,265.9,341.6z"/>
	<path d="M272.4,340.7L272.4,340.7c0-1.4,1.3-2.1,2.9-2.1c0.9,0,1.8,0.2,2.4,0.4v-0.5c0-1.6-0.9-2.3-2.5-2.3c-0.8,0-1.5,0.2-2.2,0.5
		l-0.1-0.2c0.7-0.4,1.4-0.6,2.3-0.6c0.9,0,1.6,0.2,2.1,0.7c0.4,0.4,0.6,1,0.6,1.8v4h-0.3V341c-0.3,0.8-1.2,1.7-2.9,1.7
		C273.5,342.6,272.4,342,272.4,340.7z M277.7,340.1v-0.8c-0.7-0.3-1.4-0.4-2.4-0.4c-1.5,0-2.6,0.6-2.6,1.8v0c0,1.1,1,1.7,2.2,1.7
		C276.5,342.4,277.7,341.3,277.7,340.1z"/>
	<path d="M280.7,336.2h-1V336h1v-0.9c0-0.7,0.2-1.3,0.5-1.6c0.3-0.3,0.7-0.5,1.2-0.5c0.4,0,0.6,0.1,0.9,0.2v0.3
		c-0.2-0.1-0.6-0.2-0.9-0.2c-0.9,0-1.5,0.6-1.5,1.9v0.9h2.4v0.2H281v6.3h-0.3V336.2z"/>
	<path d="M283.8,339.2L283.8,339.2c0-2,1.3-3.4,3.1-3.4c2.1,0,3,1.8,3,3.4v0.1h-5.8c0.1,1.9,1.4,3.1,3,3.1c1,0,1.9-0.6,2.4-1.3
		l0.2,0.2c-0.6,0.8-1.5,1.4-2.6,1.4C285.3,342.6,283.8,341.3,283.8,339.2z M289.7,339.1c-0.1-1.5-1-3-2.7-3c-1.6,0-2.7,1.3-2.8,3
		H289.7z"/>
</g>
<g>
	<path d="M292.4,337.1l0.1-0.1c0.4,0.3,0.9,0.5,1.3,0.5c0.6,0,1.1-0.3,1.1-0.8v0c0-0.5-0.6-0.7-1.1-0.9c-0.7-0.2-1.2-0.4-1.2-0.9v0
		c0-0.5,0.5-0.9,1.2-0.9c0.4,0,0.8,0.1,1.2,0.4l-0.1,0.1c-0.3-0.2-0.8-0.4-1.1-0.4c-0.6,0-1.1,0.3-1.1,0.7v0c0,0.5,0.5,0.6,1.1,0.8
		c0.7,0.2,1.3,0.4,1.3,1v0c0,0.5-0.5,0.9-1.3,0.9C293.4,337.6,292.8,337.4,292.4,337.1z"/>
	<path d="M292,344.2L292,344.2c0-1,0.7-1.8,1.8-1.8c1.1,0,1.8,0.8,1.8,1.8v0c0,1-0.7,1.8-1.8,1.8C292.7,346,292,345.2,292,344.2z
		 M295.5,344.2L295.5,344.2c0-0.9-0.7-1.7-1.7-1.7c-1,0-1.7,0.8-1.7,1.7v0c0,0.9,0.7,1.7,1.7,1.7
		C294.8,345.9,295.5,345.1,295.5,344.2z"/>
	<path d="M292,352.6L292,352.6c0-1,0.7-1.8,1.8-1.8c1.1,0,1.8,0.8,1.8,1.8v0c0,1-0.7,1.8-1.8,1.8C292.7,354.4,292,353.6,292,352.6z
		 M295.5,352.6L295.5,352.6c0-0.9-0.7-1.7-1.7-1.7c-1,0-1.7,0.8-1.7,1.7v0c0,0.9,0.7,1.7,1.7,1.7
		C294.8,354.3,295.5,353.5,295.5,352.6z"/>
	<path d="M293.4,361.8v-2.5h-0.6v-0.1h0.6V358h0.1v1.2h1.3v0.1h-1.3v2.5c0,0.5,0.3,0.8,0.7,0.8c0.2,0,0.4,0,0.5-0.1v0.2
		c-0.2,0.1-0.4,0.1-0.5,0.1C293.7,362.8,293.4,362.4,293.4,361.8z"/>
	<path d="M292.4,366h0.1v2.6c0.1-0.4,0.6-1,1.4-1c0.9,0,1.5,0.6,1.5,1.6v2h-0.1v-2c0-0.9-0.5-1.5-1.3-1.5c-0.8,0-1.4,0.7-1.4,1.5
		v1.9h-0.1V366z"/>
	<path d="M293.7,374.6h0.2v0.4h-0.2V374.6z M293.8,376h0.1v3.5h-0.1V376z"/>
	<path d="M292.4,384.4h0.1v1c0.1-0.4,0.6-1,1.4-1c0.9,0,1.5,0.6,1.5,1.6v2h-0.1v-2c0-0.9-0.5-1.5-1.3-1.5c-0.8,0-1.4,0.7-1.4,1.5
		v1.9h-0.1V384.4z"/>
	<path d="M292.2,396.9l0.1-0.1c0.4,0.3,0.9,0.5,1.5,0.5c0.9,0,1.6-0.5,1.6-1.6v-0.7c-0.3,0.6-0.9,1-1.6,1c-1,0-1.7-0.7-1.7-1.7v0
		c0-0.9,0.8-1.7,1.7-1.7c0.7,0,1.3,0.4,1.6,1v-0.9h0.1v3c0,0.5-0.2,0.9-0.4,1.2c-0.3,0.3-0.7,0.4-1.3,0.4
		C293.2,397.5,292.6,397.3,292.2,396.9z M295.3,394.4L295.3,394.4c0-0.8-0.7-1.5-1.6-1.5s-1.6,0.7-1.6,1.5v0c0,0.8,0.7,1.5,1.6,1.5
		S295.3,395.2,295.3,394.4z"/>
</g>
</svg>
