<?xml version="1.0" encoding="utf-8"?>
<!-- Generator: Adobe Illustrator 18.1.1, SVG Export Plug-In . SVG Version: 6.00 Build 0)  -->
<svg version="1.1" id="Layer_1" xmlns="http://www.w3.org/2000/svg" xmlns:xlink="http://www.w3.org/1999/xlink" x="0px" y="0px"
	 viewBox="0 0 618.7 343" enable-background="new 0 0 618.7 343" xml:space="preserve">
<image overflow="visible" width="800" height="405" xlink:href="../../../../Desktop/tilraun.png"  transform="matrix(0.7733 0 0 0.8469 0 0)">
</image>
<g>
	<g>
		<path fill="#CCCCCC" d="M141.2,318v-0.1c0-13.5,10.4-25,24.9-25c8.4,0,13.6,2.3,18.6,6.6l-5.4,6.4c-3.7-3.2-7.4-5.2-13.5-5.2
			c-8.9,0-15.7,7.8-15.7,17v0.1c0,9.9,6.6,17.3,16.4,17.3c4.6,0,8.7-1.4,11.7-3.7v-9h-12.4v-7.4h20.6v20.3
			c-4.8,4.1-11.6,7.5-20.1,7.5C151.2,342.9,141.2,332.1,141.2,318z"/>
		<path fill="#CCCCCC" d="M195.3,318v-0.1c0-13.6,10.5-25,25.3-25s25.2,11.2,25.2,24.8v0.1c0,13.6-10.5,25-25.3,25
			C205.7,342.9,195.3,331.6,195.3,318z M236.9,318v-0.1c0-9.4-6.8-17.2-16.4-17.2c-9.6,0-16.3,7.7-16.3,17v0.1
			c0,9.4,6.8,17.1,16.4,17.1C230.2,335,236.9,327.4,236.9,318z"/>
		<path fill="#CCCCCC" d="M265.4,301.6H250v-7.9h39.2v7.9h-15.3V342h-8.6V301.6z"/>
		<path fill="#CCCCCC" d="M298.2,293.7h8.5v20.1h23v-20.1h8.5V342h-8.5v-20.4h-23V342h-8.5V293.7z"/>
		<path fill="#CCCCCC" d="M367.8,293.4h7.9l21.3,48.6h-9l-4.9-11.7h-22.8l-5,11.7h-8.7L367.8,293.4z M379.9,322.9l-8.3-19.3
			l-8.3,19.3H379.9z"/>
		<path fill="#CCCCCC" d="M405.2,293.7h9l14.7,22.8l14.7-22.8h9V342h-8.5v-34.6l-15.2,22.8h-0.3l-15.1-22.6V342h-8.3V293.7z"/>
	</g>
</g>
</svg>
