<?xml version="1.0" encoding="utf-8"?>
<!-- Generator: Adobe Illustrator 19.1.0, SVG Export Plug-In . SVG Version: 6.00 Build 0)  -->
<svg version="1.1" id="Lager_1" xmlns="http://www.w3.org/2000/svg" xmlns:xlink="http://www.w3.org/1999/xlink" x="0px" y="0px"
	 viewBox="0 0 348.9 158.8" style="enable-background:new 0 0 348.9 158.8;" xml:space="preserve">
<style type="text/css">
	.st0{fill:#FFFFFF;}
	.st1{fill:#FF5326;}
	.st2{fill:#FFF000;}
	.st3{fill:#00D2FF;}
	.st4{fill:#50D9AF;}
	.st5{fill:#00005E;}
	.st6{fill:#FF9D6E;}
</style>
<path class="st0" d="M9.3,150.8c-0.7,0-0.4-0.7-0.2-1.3l7.7-24.5c0.1-0.2,0.3-0.8,0.7-0.8h1.6c0.4,0,0.6,0.5,0.7,0.8l7.7,24.5
	c0.2,0.6,0.5,1.3-0.2,1.3h-1.6c-0.6,0-0.7-0.3-0.8-0.9l-2.7-7.6h-7.7l-2.7,7.6c-0.2,0.6-0.2,0.9-0.8,0.9H9.3z M21.4,139.8l-3.1-10.6
	h-0.1l-3.1,10.6H21.4z"/>
<path class="st0" d="M44.4,138.8c0-2.7-1.6-4.4-4.5-4.4c-2.9,0-5,3.3-5.2,4.9v10.4c0,0.4,0,1.1-0.7,1.1h-1.3c-0.7,0-0.6-0.7-0.6-1.1
	v-16.5c0-0.4,0-1.1,0.6-1.1h1.3c0.7,0,0.7,0.8,0.7,1.1v1.4c1.1-1.5,2.9-2.7,5.3-2.7c4.6,0,6.9,2.7,6.9,6.5v11.3c0,0.4,0,1.1-0.7,1.1
	H45c-0.7,0-0.6-0.7-0.6-1.1V138.8z"/>
<path class="st0" d="M53.2,158.8c-1.2,0-1.3-0.6-1.2-1.3c0-0.7,0-1.3,1.3-1.3c3.3,0.1,4.3-1.8,5-3.2l0,0.2l0.8-2.1
	c0-0.1,0-0.2-0.1-0.3l-7-17.7c-0.2-0.4,0.1-1,0.7-1h0.7c0.4,0,1,0,1.3,0.7l5.8,14.8h0.1l5.7-14.8c0.3-0.7,0.8-0.7,1.3-0.7h0.7
	c0.6,0,0.9,0.6,0.7,1l-5.1,13l-3.1,8c0,0,0,0.1,0,0.2C59.5,156.3,58.1,159,53.2,158.8"/>
<path class="st0" d="M83.3,135.9l2.4,9.8l3.1-12.8c0.1-0.5,0.4-0.8,1.2-0.8h0.7c0.6,0,0.8,0.4,0.7,0.8l-4.2,16.7
	c-0.1,0.4-0.3,1.1-0.6,1.1h-1c-0.4,0-0.6,0-0.8-1l-2.3-9.6c0-0.2-0.1-0.2-0.3-0.2c-0.1,0-0.2,0-0.3,0.2l-2.3,9.6
	c-0.2,0.9-0.4,1-0.8,1h-1c-0.3,0-0.5-0.8-0.6-1.1l-4.2-16.7c-0.1-0.4,0.1-0.8,0.7-0.8h0.7c0.8,0,1.1,0.2,1.2,0.8l3.1,12.8l2.4-9.8
	c0.1-0.5,0.3-0.5,0.6-0.5h1.3C83,135.4,83.2,135.4,83.3,135.9"/>
<path class="st0" d="M108.6,138.8c0-2.7-1.6-4.4-4.5-4.4c-2.9,0-5,3.3-5.2,4.9v10.4c0,0.4,0,1.1-0.7,1.1H97c-0.7,0-0.6-0.7-0.6-1.1
	v-24.3c0-0.4,0-1.1,0.6-1.1h1.3c0.7,0,0.7,0.8,0.7,1.1v9.2c1.1-1.5,2.9-2.7,5.3-2.7c4.6,0,6.9,2.7,6.9,6.5v11.3c0,0.4,0,1.1-0.7,1.1
	h-1.3c-0.7,0-0.6-0.7-0.6-1.1V138.8z"/>
<path class="st0" d="M116.7,141.5c0-5.5,3.3-9.6,8-9.6c4.7,0,7.3,3.5,7.3,7.9c0,1.7-0.2,2-1.2,2h-11.3v0.5c0,2.8,1.9,6.2,5.3,6.2
	c2.3,0,3.5-0.8,4.3-2.3c0.3-0.5,0.4-0.4,0.9-0.4h1.2c0.5,0,0.5,0.4,0.4,0.8c-0.6,1.9-2.7,4.4-6.7,4.4
	C119.4,150.9,116.7,146.4,116.7,141.5 M119.6,139.4h9.8c0-2.5-1.3-5.2-4.6-5.2C121.7,134.2,119.6,137.3,119.6,139.4"/>
<path class="st0" d="M151.2,138c-0.4,0.1-0.7-0.2-0.8-0.5c-0.4-1.9-1.9-3.1-4.3-3.1c-2.9,0-5,3.3-5.2,4.9v10.4c0,0.4,0,1.1-0.7,1.1
	H139c-0.7,0-0.6-0.7-0.6-1.1v-16.5c0-0.4,0-1.1,0.6-1.1h1.3c0.7,0,0.7,0.8,0.7,1.1v1.4c1.1-1.5,2.9-2.7,5.3-2.7c4,0,6.2,2,6.8,5
	c0,0.2-0.1,0.6-0.4,0.7C152.1,137.8,151.6,137.9,151.2,138"/>
<path class="st0" d="M158.7,141.5c0-5.5,3.3-9.6,8-9.6c4.7,0,7.3,3.5,7.3,7.9c0,1.7-0.2,2-1.2,2h-11.3v0.5c0,2.8,1.9,6.2,5.3,6.2
	c2.3,0,3.5-0.8,4.3-2.3c0.3-0.5,0.4-0.4,0.9-0.4h1.2c0.5,0,0.5,0.4,0.4,0.8c-0.6,1.9-2.7,4.4-6.7,4.4
	C161.4,150.9,158.7,146.4,158.7,141.5 M161.5,139.4h9.8c0-2.5-1.3-5.2-4.6-5.2C163.6,134.2,161.5,137.3,161.5,139.4"/>
<path class="st0" d="M188.2,149.6c0,0.4,0,1.2-1.2,1.2h-1.9c-1.2,0-1.1-0.8-1.1-1.2v-1.8c0-0.4,0-1.2,1.1-1.2h1.9
	c1.2,0,1.2,0.8,1.2,1.2V149.6z"/>
<path class="st0" d="M216.1,144.5c0-0.6,0-1.1,0.7-1.1h1.5c0.4,0,0.5,0.3,0.5,0.8c0,2.5,1.9,4.2,6.2,4.2c3,0,5.2-2.3,5.2-4.6
	c0-3-1.8-4.6-5.7-5.8c-5.4-1.6-7.9-3.5-7.9-7.2c0-3.5,3.1-6.9,8-6.9c4.1,0,7.8,2.2,7.8,6c0,0.5-0.3,0.8-0.6,0.8h-1.5
	c-0.7,0-0.7-0.2-0.7-0.8c0-2.7-3-3.4-4.9-3.4c-3,0-5.1,1.8-5.1,4.2c0,2.6,3.2,3.8,6.1,4.8c6.1,2.1,7.2,4.4,7.2,8.3
	c0,3.2-2.7,7.2-8,7.2C218.4,151,216.1,147.8,216.1,144.5"/>
<path class="st0" d="M250.2,150.8h-10.5c-0.4,0-1.1,0-1.1-0.6v-1.1c0-0.7,0.8-0.7,1.1-0.7h4.4v-14H241c-0.4,0-1.1,0-1.1-0.6v-1.1
	c0-0.7,0.8-0.7,1.1-0.7h4.3h0.1h0.7c0.7,0,0.7,0.8,0.7,1.1v15.2h3.5c0.4,0,1.1,0,1.1,0.7v1.1C251.3,150.9,250.6,150.8,250.2,150.8
	 M246.4,127.8c0,0.4,0,0.9-0.9,0.9h-1.3c-0.9,0-0.9-0.5-0.9-0.9v-1.2c0-0.4,0-0.9,0.9-0.9h1.3c1,0,0.9,0.6,0.9,0.9V127.8z"/>
<path class="st0" d="M259.5,150.8h-1.3c-0.7,0-0.6-0.7-0.6-1.1v-16.5c0-0.4,0-1.1,0.6-1.1h1.3c0.7,0,0.7,0.8,0.7,1.1v1.4
	c0.8-1.5,1.6-2.7,3.8-2.7c1.6,0,2.7,1.1,3.3,2.9c0.8-1.4,1.9-2.9,4.3-2.9c2.5,0,3.8,2.7,3.8,6.5v11.3c0,0.4,0,1.1-0.7,1.1h-1.3
	c-0.7,0-0.6-0.7-0.6-1.1v-10.9c0-2.7-0.4-4.4-2.2-4.4c-1.5,0-2.8,1.4-2.8,4.2v11.1c0,0.4,0,1.1-0.7,1.1h-1.3c-0.7,0-0.6-0.7-0.6-1.1
	v-10.9c0-2.7-0.4-4.4-2.2-4.4c-1.5,0-2.8,1.4-2.8,4.2v11.1C260.1,150.1,260.2,150.8,259.5,150.8"/>
<path class="st0" d="M285,148.6v8.2c0,0.4,0,1.1-0.7,1.1h-1.3c-0.7,0-0.6-0.7-0.6-1.1v-23.4c0-0.7-0.1-1.2,0.8-1.2h1.1
	c0.9,0,0.8,0.6,0.8,1.2v0.8c0.8-1.1,2.7-2.3,4.8-2.3c3.8,0,6.9,2.9,7,7.4v3.5c0,3.3-2.6,8-7.1,8C286.8,150.8,285.3,149.2,285,148.6
	 M294.4,142.5v-2.4c0-3.7-2.5-5.6-4.8-5.6c-3.6,0-4.4,2.9-4.6,4c-0.2,1.3-0.2,3-0.1,4.6c0,2,1.4,5.3,4.5,5.3
	C293,148.4,294.4,144.6,294.4,142.5"/>
<path class="st0" d="M312.6,150.8h-10c-0.4,0-1.1,0-1.1-0.6v-1.1c0-0.7,0.8-0.7,1.1-0.7h4.4v-21.9h-3.1c-0.4,0-1.1,0-1.1-0.6v-1
	c0-0.7,0.8-0.7,1.1-0.7h4.3h0.1h0.7c0.7,0,0.7,0.8,0.7,1.1v23.1h3.1c0.4,0,1.1,0,1.1,0.7v1.1C313.7,150.9,313,150.8,312.6,150.8"/>
<path class="st0" d="M319.6,141.5c0-5.5,3.3-9.6,8-9.6c4.7,0,7.3,3.5,7.3,7.9c0,1.7-0.2,2-1.2,2h-11.3v0.5c0,2.8,1.9,6.2,5.3,6.2
	c2.3,0,3.5-0.8,4.3-2.3c0.3-0.5,0.4-0.4,0.9-0.4h1.2c0.5,0,0.5,0.4,0.4,0.8c-0.6,1.9-2.7,4.4-6.7,4.4
	C322.3,150.9,319.6,146.4,319.6,141.5 M322.4,139.4h9.8c0-2.5-1.3-5.2-4.6-5.2C324.5,134.2,322.4,137.3,322.4,139.4"/>
<path class="st0" d="M348.9,149.6c0,0.4,0,1.2-1.2,1.2h-1.9c-1.2,0-1.2-0.8-1.2-1.2v-1.8c0-0.4,0-1.2,1.2-1.2h1.9
	c1.2,0,1.2,0.8,1.2,1.2V149.6z"/>
<path class="st1" d="M315.4,11.5c-1.1-0.6-2.5-0.3-3.1,0.8c-1.1,1.8-10.7,17.8-10.7,25.7c0,6.9-0.3,17.7-0.3,19.4c0,0,0,0,0,0
	c0,0,0,0,0,0c0,0.1,0,0.2,0,0.2l0,0c0.1,1.2,1.1,2.1,2.3,2.1c1.3,0,2.3-1,2.3-2.3c0-0.1,0-0.2-0.1-0.3c0.1-2.5,0.3-12.6,0.3-19.1
	c0-5.6,7.2-18.8,10-23.4C316.8,13.6,316.4,12.2,315.4,11.5"/>
<g>
	<path class="st2" d="M329.4,73.1c0,14.4-52.2,14.4-52.2,0S288.9,47,303.3,47S329.4,58.7,329.4,73.1"/>
	<path class="st3" d="M345.3,86.3c-4.9,0-7.5-2.9-9.5-5.3c-2.1-2.4-3.4-3.7-6.1-3.7c-2.7,0-4.1,1.3-6.1,3.7c-2,2.4-4.6,5.3-9.5,5.3
		c-4.9,0-7.5-2.9-9.5-5.3c-2.1-2.4-3.4-3.7-6.1-3.7c-2.7,0-4,1.3-6.1,3.7c-2,2.4-4.6,5.3-9.5,5.3c-4.9,0-7.5-2.9-9.5-5.3
		c-2.1-2.4-3.4-3.7-6.1-3.7c-1.3,0-2.3-1-2.3-2.3c0-1.2,1-2.3,2.3-2.3c4.9,0,7.5,2.9,9.5,5.3c2.1,2.4,3.4,3.7,6.1,3.7
		c2.7,0,4-1.3,6.1-3.7c2-2.3,4.6-5.3,9.5-5.3c4.9,0,7.5,2.9,9.5,5.3c2.1,2.4,3.4,3.7,6.1,3.7c2.8,0,4.1-1.3,6.1-3.7
		c2-2.3,4.6-5.3,9.5-5.3c4.9,0,7.5,2.9,9.5,5.3c2.1,2.4,3.4,3.7,6.1,3.7c1.3,0,2.3,1,2.3,2.3C347.5,85.2,346.5,86.3,345.3,86.3"/>
	<path class="st4" d="M317.7,9.2c-0.1-0.1-0.1-0.1-0.2-0.2c-7.4-7.4-19.5-7.4-26.9,0c-0.7,0.7-1.3,1.5-1.9,2.3
		c0,0.2-0.1,0.4-0.1,0.6c4.2-0.6,8.6-0.1,12.5,1.6c-3.7,3.2-6.1,7.9-6.4,13.1c-0.1,1,0,2,0.1,3c0.1,0.2,0.2,0.3,0.3,0.5
		c4-4.7,9.7-7.8,16.1-8.2c3.2,4.8,4.4,10.6,3.6,16.2c0,0,0.1,0,0.1,0c0.9-0.6,1.8-1.3,2.6-2.1c3.3-3.3,5.1-7.4,5.5-11.6
		c3.7,1.9,6.8,4.6,9.1,8.1c0,0,0-0.1,0.1-0.1c0.3-1.1,0.5-2.2,0.5-3.3C333.3,19.5,326.7,11.2,317.7,9.2z"/>
</g>
<rect x="86.4" y="22.4" transform="matrix(0.9205 0.3907 -0.3907 0.9205 27.3333 -43.2337)" class="st3" width="67.1" height="46.3"/>
<path class="st2" d="M102.9,32.1l0.2,6.3l12.8-0.9l-0.2-6.3L102.9,32.1z M100.1,42.9c-0.7-0.3-1.3-1-1.3-1.9l-0.4-10.8
	c0-0.6,0.2-1.2,0.6-1.6c0.4-0.5,0.9-0.7,1.5-0.8l17.1-1.2c1.2-0.1,2.2,0.9,2.3,2.1l0.4,10.8c0,0.6-0.2,1.2-0.6,1.6
	c-0.4,0.5-0.9,0.7-1.5,0.8L101.1,43C100.7,43.1,100.4,43,100.1,42.9"/>
<path class="st5" d="M134.9,50.8c-2.8-1.2-6,0.2-7.2,3.1c-1.2,2.9,0,6.2,2.8,7.3c2.8,1.2,6-0.2,7.2-3.1
	C138.9,55.2,137.6,51.9,134.9,50.8 M128.7,65.4c-5-2.1-7.2-8-5-13.2c2.2-5.2,8-7.7,13-5.6c5,2.1,7.2,8,5,13.2
	C139.5,65,133.6,67.5,128.7,65.4"/>
<path class="st6" d="M251.8,6.1c-2.1-2.1-11.6,4.7-14.9,7.9l0,0l-17.5,17.7L179.6,4.9l-4.3,4.4l33.6,33.1l-12.6,12.8
	c-2.8,2.8-17.3-2-17.3-2l-1.8,1.9l9.8,9.7l-3.6,3.6l1.8,1.7l6.6-1.1l9.3,9.1l2.5-2.5l-4.1-7.8l0.2,0l17.3-17.6L247.2,80l4.3-4.4
	l-24.8-35.4l17.7-18c0,0,0,0,0,0c0,0,0,0,0,0l0.4-0.4l0,0C248,18.2,253.8,8.2,251.8,6.1"/>
<path class="st5" d="M237,25.1c-0.5,0-1-0.1-1.4-0.5c-0.7-0.7-0.7-1.9,0-2.6l5.2-5.3c0.7-0.7,1.9-0.7,2.6,0c0.7,0.7,0.7,1.9,0,2.6
	l-5.2,5.3C237.9,24.9,237.5,25.1,237,25.1 M226.6,35.7c-0.5,0-1-0.1-1.4-0.5c-0.7-0.7-0.7-1.9,0-2.6l5.2-5.3c0.7-0.7,1.9-0.7,2.6,0
	c0.7,0.7,0.7,1.9,0,2.6l-5.2,5.3C227.5,35.5,227.1,35.6,226.6,35.7 M216.2,46.2c-0.5,0-1-0.1-1.4-0.5c-0.7-0.7-0.7-1.9,0-2.6
	l5.2-5.3c0.7-0.7,1.9-0.7,2.6,0c0.7,0.7,0.7,1.9,0,2.6l-5.2,5.3C217.1,46,216.7,46.2,216.2,46.2 M205.8,56.8c-0.5,0-1-0.1-1.4-0.5
	c-0.7-0.7-0.7-1.9,0-2.6l5.2-5.3c0.7-0.7,1.9-0.7,2.6,0c0.7,0.7,0.7,1.9,0,2.6l-5.2,5.3C206.7,56.6,206.3,56.8,205.8,56.8"/>
<path class="st2" d="M193.7,60.4c0.1,2-1.4,3.7-3.3,3.8c-2,0.1-3.7-1.4-3.8-3.3c-0.1-2,1.4-3.7,3.3-3.8
	C191.9,57,193.6,58.5,193.7,60.4"/>
<path class="st2" d="M231.4,51.7c0.1,2-1.4,3.7-3.3,3.8c-2,0.1-3.7-1.4-3.8-3.3c-0.1-2,1.4-3.7,3.3-3.8
	C229.5,48.2,231.2,49.7,231.4,51.7"/>
<path class="st2" d="M212.3,31c0.1,2-1.4,3.7-3.3,3.8c-2,0.1-3.7-1.4-3.8-3.3c-0.1-2,1.4-3.7,3.3-3.8C210.5,27.5,212.2,29,212.3,31"
	/>
<path class="st6" d="M117.5,19.4l3.9-9.3l23,9.8l-3.9,9.3l4,1.7l4.8-11.4c0.5-1.2,0-2.5-1.1-2.9l-27-11.5c-1.1-0.5-2.4,0.1-2.9,1.2
	l-4.8,11.4L117.5,19.4z"/>
<g>
	<polygon class="st1" points="64.6,73 46.3,45.6 59.6,40.4 41.6,31.5 23.5,22.6 24.8,42.7 26.1,62.7 36.2,52.3 54.5,79.7 	"/>
	<g>
		<path class="st4" d="M36.6,22.1c-0.6,0-1.3-0.3-1.6-0.8c-0.6-0.9-0.3-2,0.5-2.6l10.6-7.3c0.9-0.6,2-0.3,2.6,0.5
			c0.6,0.9,0.3,2-0.5,2.6l-10.6,7.3C37.3,21.9,37,22.1,36.6,22.1"/>
		<path class="st4" d="M5.3,42c-0.6,0-1.3-0.3-1.6-0.8c-0.6-0.9-0.3-2,0.5-2.6l10.6-7.3c0.9-0.6,2.1-0.3,2.6,0.5
			c0.6,0.9,0.3,2-0.5,2.6L6.3,41.7C6,41.9,5.6,42,5.3,42"/>
		<path class="st4" d="M30.3,15.9c-0.4,0.5-1.1,0.7-1.8,0.6c-1-0.2-1.7-1.2-1.5-2.2l2.4-12.7c0.2-1,1.2-1.7,2.2-1.5
			c1,0.2,1.7,1.2,1.5,2.2l-2.4,12.7C30.7,15.3,30.5,15.6,30.3,15.9"/>
		<path class="st4" d="M20.6,15.1c0,0.6-0.3,1.3-0.8,1.6c-0.9,0.6-2,0.3-2.6-0.5L9.9,5.6c-0.6-0.9-0.3-2,0.5-2.6
			c0.9-0.6,2.1-0.3,2.6,0.5l7.3,10.6C20.5,14.4,20.6,14.8,20.6,15.1"/>
		<path class="st4" d="M15.9,22c0.5,0.4,0.7,1.1,0.6,1.8c-0.2,1-1.2,1.7-2.2,1.5L1.5,22.8c-1-0.2-1.7-1.2-1.5-2.2
			c0.2-1,1.2-1.7,2.2-1.5l12.7,2.4C15.3,21.6,15.6,21.7,15.9,22"/>
	</g>
</g>
</svg>
