<?xml version="1.0" encoding="UTF-8" standalone="no"?>
<svg width="729px" height="500px" viewBox="0 0 729 500" version="1.1" xmlns="http://www.w3.org/2000/svg" xmlns:xlink="http://www.w3.org/1999/xlink" xmlns:sketch="http://www.bohemiancoding.com/sketch/ns">
    <!-- Generator: Sketch 3.5.2 (25235) - http://www.bohemiancoding.com/sketch -->
    <title>iceland</title>
    <desc>Created with Sketch.</desc>
    <defs></defs>
    <g id="Page-1" stroke="none" stroke-width="1" fill="none" fill-rule="evenodd" sketch:type="MSPage">
        <path d="M634.091367,121.463833 C634.104759,120.796995 634.501722,119.769895 635.409303,118.281654 C639.410098,111.721432 631.728696,111.401437 636.68948,105.961245 C641.650411,100.521065 647.091343,94.2808736 645.97126,87.720651 C644.851018,81.1604405 640.530182,68.5200362 637.329721,70.4400904 C634.129114,72.3601445 632.528738,78.4403506 627.407859,76.2002772 C622.286981,73.9602039 623.727264,74.9202249 620.046656,74.7602275 C616.365914,74.6002301 616.045861,73.8002065 615.885913,70.4400904 C615.72582,67.0799743 617.166103,66.5999698 613.645442,66.1199533 C610.124794,65.6399367 602.763603,65.6399367 613.165308,59.079714 C623.567158,52.5195036 623.087169,48.8393926 623.087169,47.3993307 C623.087169,45.9592931 616.045861,39.8790992 620.206604,36.1989761 C624.367346,32.5188408 626.927871,32.9988696 632.36879,29.1587491 C637.809722,25.3186285 647.731584,20.5184505 643.570841,20.3584531 C639.410098,20.1984557 633.168978,21.7984907 630.448519,20.8384697 C627.727901,19.8784365 626.287776,18.5983963 619.726469,23.8785666 C613.165308,29.1587491 618.926427,30.9188058 611.885118,36.0389665 C604.843968,41.1591394 595.882242,40.9991298 595.882242,40.9991298 C595.882242,40.9991298 598.922902,57.6396764 594.922107,56.3596241 C590.921458,55.0795839 585.160339,48.039369 581.15969,48.039369 C577.159053,48.039369 573.638393,48.039369 573.478299,46.2793123 C573.318351,44.5192312 574.438435,42.599177 572.838204,42.27917 C571.237974,41.959163 567.717326,43.8792293 571.397922,34.9189359 C575.078675,25.9586304 574.598528,24.6785902 571.237974,21.1584888 C567.877274,17.6383753 557.79561,16.998337 557.79561,16.998337 C557.79561,16.998337 558.755746,3.55790903 552.83468,2.11787144 C546.913613,0.677809504 546.753519,-2.20229002 539.392316,2.91788285 C532.03082,8.03804356 535.391521,7.71804873 530.750631,6.75800338 C526.109742,5.79798238 525.949794,3.07789244 521.46901,4.8379492 C516.988226,6.59800597 517.788256,6.59800597 517.788256,8.51806014 C517.788256,10.4381387 521.148811,16.1983134 521.148811,19.7184391 C521.148811,23.2385526 521.46901,27.0786731 523.069241,32.198846 C524.669471,37.3190189 529.790495,46.1192905 523.709335,52.9995202 C517.628309,59.8797376 504.505999,66.2799507 499.865109,66.1199533 C495.224219,65.9599558 494.264083,54.2795603 486.742726,55.3996031 C479.221429,56.5196458 477.461105,52.039487 473.780351,64.9999105 C470.099755,77.9603462 471.540038,69.6400668 471.059891,72.5201541 C470.579902,75.4002537 468.499525,89.3207103 458.417715,89.0006912 C448.335906,88.6806963 448.655947,85.1605706 446.095435,78.9203672 C443.535069,72.6801637 435.533625,66.1199533 428.652423,64.6799035 C421.77122,63.2398537 410.409222,59.2397236 408.648898,62.7598371 C406.888574,66.2799507 408.008803,80.3604169 409.449086,84.8405636 C410.88921,89.3207103 415.049953,92.3608073 415.049953,98.7610082 C415.049953,105.161221 418.25056,104.2012 417.770571,102.761138 C417.290424,101.321101 418.890655,100.521065 419.690843,103.081157 C420.491031,105.641238 424.011533,110.761399 424.171639,122.121787 C424.331586,133.482139 425.451816,139.722355 424.49168,140.202371 C423.531544,140.682388 417.770571,126.281902 416.650342,120.041711 C415.5301,113.801495 415.370153,110.921408 411.849505,108.681335 C408.328856,106.441261 410.88921,100.041048 404.488155,97.160961 C398.086941,94.2808736 394.246398,93.3208283 394.246398,93.3208283 C394.246398,93.3208283 395.206534,73.0001707 388.965414,69.8000764 C382.724306,66.5999698 389.605509,68.5200362 385.284672,64.8399131 C380.963982,61.1597778 378.723584,65.9599558 378.723584,65.9599558 C378.723584,65.9599558 380.643929,61.1597778 377.923432,59.5597428 C375.20296,57.9596834 374.882895,56.1996267 371.842357,61.479797 C368.80182,66.7599673 368.321734,66.7599673 368.321734,66.7599673 C368.321734,66.7599673 369.441927,58.759707 366.881475,59.2397236 C364.321024,59.7197402 359.200109,64.5198939 358.239937,66.5999698 C357.279777,68.6800336 357.919883,76.0402677 351.038656,76.2002772 C344.157442,76.3602868 336.156022,75.8802702 335.835969,83.7205209 C335.590061,89.7442239 337.138966,89.534245 336.055495,90.4197706 L381.130089,90.4197706 L381.130089,336.4374 C381.130089,411.068782 337.377308,445.039023 273.54283,445.039023 C260.352241,445.039023 248.427837,443.476191 237.677274,440.634158 C242.516532,444.396518 246.380094,447.492304 246.380094,447.492304 L277.95546,478.729518 C277.95546,478.729518 306.018443,475.109019 329.555142,485.970526 C353.09184,496.83207 356.712851,498.642307 356.712851,498.642307 C356.712851,498.642307 373.912753,504.073079 401.070463,493.211535 C428.228209,482.350028 430.038732,486.875657 444.522788,465.152631 C459.006856,443.429616 467.154224,437.998856 492.501495,437.093738 C494.234424,437.031856 495.853108,436.978436 497.367382,436.931163 C460.529795,424.889681 435.006666,400.550997 420.274031,371.44368 L478.953425,337.47344 C494.400416,362.695914 514.476027,381.224444 549.994064,381.224444 C560.415125,381.224444 569.518407,379.406427 576.95448,376.164219 C580.860271,372.983137 584.556752,370.596734 587.855279,369.413676 C594.957919,363.263808 598.895842,355.071602 598.895842,345.708511 C598.895842,321.003296 579.336044,312.252487 546.389462,297.845295 L528.377102,290.119876 C476.38197,267.99183 441.890993,240.198273 441.890993,181.522817 C441.890993,127.479875 483.072318,86.3014742 547.421087,86.3014742 C583.840569,86.3014742 612.127601,96.3852894 634.091367,121.463833 Z M634.964968,122.473135 C636.434625,122.667218 639.513072,121.24461 642.290506,119.721692 C647.251437,117.001614 649.651855,116.361588 653.332451,115.881571 C657.013205,115.401555 663.254313,110.921408 665.014649,111.081418 C666.774815,111.241415 666.134732,112.521455 665.494638,116.521598 C664.854543,120.521728 662.61423,122.601791 672.215892,130.122035 C681.817567,137.642279 686.778498,137.642279 694.459742,136.842255 C702.141133,136.042232 698.300444,137.802288 700.70085,142.602442 C703.101269,147.402608 706.141928,148.362617 709.182441,146.762582 C712.222942,145.162522 712.703089,149.322662 715.103508,151.242716 C717.503926,153.162783 717.823968,153.642799 716.703738,155.722875 C715.583497,157.802927 716.063644,157.642929 715.423549,164.843166 C714.783467,172.043403 713.503131,174.283476 709.182441,176.043533 C704.861593,177.803577 711.742807,179.563634 711.262806,181.163693 C710.782672,182.763753 701.821092,185.64384 701.821092,185.64384 C701.821092,185.64384 709.502482,185.323833 714.623361,185.48383 C719.744239,185.64384 719.744239,187.08389 721.344628,189.64397 C722.944846,192.204063 718.944209,196.364202 717.663874,198.444254 C716.383685,200.52433 690.299,204.204453 698.300444,202.764391 C706.301876,201.324354 720.704533,202.284375 720.704533,202.284375 C720.704533,202.284375 720.064293,213.80476 722.144658,214.924803 C724.225035,216.044822 727.265694,208.52459 727.265694,208.52459 C727.265694,208.52459 729.826061,220.52498 728.545871,221.485014 C727.265694,222.445035 728.065724,221.965018 727.745683,222.605056 C727.425642,223.24507 725.345265,233.165385 717.023779,233.965408 C708.702294,234.765444 709.182441,220.845 696.38016,226.125158 C683.577891,231.405328 698.300444,232.045354 702.62128,233.645414 C706.94197,235.245461 711.742807,239.565598 714.463413,241.485664 C717.183885,243.405718 719.904345,239.565598 719.904345,244.525761 C719.904345,249.485937 699.580767,246.125821 699.580767,246.125821 C699.580767,246.125821 716.100283,251.542864 716.100283,256.068493 C716.100283,260.594122 701.616069,258.783873 701.616069,258.783873 L706.142378,260.594122 C706.142378,260.594122 713.384485,259.688991 707.04764,263.309502 C700.710807,266.93 700.710807,269.64538 701.616069,275.076139 C702.521331,280.506887 693.468846,281.412018 687.132013,282.31716 C680.795168,283.222267 684.416216,283.222267 678.079383,276.886389 C671.742538,270.55051 666.311113,268.740249 666.311113,268.740249 C666.311113,268.740249 671.742538,277.791519 675.363585,281.412018 C678.984645,285.03254 687.132013,290.463276 687.132013,290.463276 C687.132013,290.463276 674.458323,299.514546 672.6478,317.617074 C671.914594,324.94861 671.329852,328.420081 670.232071,330.135971 C664.954874,279.951144 631.305755,255.485774 575.214107,231.448985 L557.198704,223.729651 C526.315373,210.346329 512.930111,201.595519 512.930111,179.977125 C512.930111,162.48007 526.315373,149.098269 547.421087,149.098269 C568.010989,149.098269 581.391687,157.847557 593.746845,179.977125 L649.857827,143.950018 C645.252931,135.841652 640.297477,128.706664 634.964968,122.473135 Z M309.063911,105.923367 C308.21892,105.585455 307.509843,105.052227 307.03086,104.041178 C305.59059,101.001082 301.109806,91.0807549 298.709375,84.8405636 C296.308957,78.6003602 293.748493,67.3999934 287.027299,68.6800336 C280.306105,69.9600738 271.344513,71.0801044 270.544373,81.0004431 C269.744234,90.9207575 278.865859,108.36134 278.705826,123.241805 C278.545793,138.122295 280.626171,147.722603 266.063577,150.122686 C251.500997,152.522756 257.262006,147.402608 255.98178,142.602442 C254.701579,137.802288 254.8616,132.842125 243.499577,145.482542 C232.137566,158.122946 231.817501,166.123206 232.617652,172.043403 C233.417792,177.963599 236.138276,188.843947 234.698018,189.003944 C233.257759,189.163966 227.656758,172.523419 226.696598,173.003436 C225.736426,173.48344 224.936286,171.243379 224.936286,176.043533 C224.936286,180.843686 224.936286,206.924531 223.49604,207.084553 C222.055769,207.24455 220.135437,206.124507 217.895039,193.164084 C215.654629,180.203672 214.854489,172.523419 212.614091,171.083357 C210.373705,169.64332 210.693759,168.683286 207.013102,170.603341 C203.332458,172.523419 202.85236,171.723383 207.333156,165.963209 C211.813952,160.20301 213.894317,150.122686 210.373705,148.842645 C206.853082,147.562605 202.532306,152.522756 202.532306,152.522756 C202.532306,152.522756 210.133662,145.002525 203.652499,143.402466 C197.17136,141.802418 189.009908,142.682441 187.489639,133.242143 C185.96937,123.801833 191.010263,131.00207 194.930962,132.682115 C198.85165,134.362186 203.812544,134.602182 206.132952,130.762061 C208.453361,126.921941 210.533726,125.001862 205.09277,122.361783 C199.651801,119.721692 204.292618,121.56176 206.853082,119.641693 C209.413533,117.721639 213.25421,114.041504 214.13436,107.96131 C215.014522,101.881116 216.934854,98.1209942 211.973984,95.6409125 C207.013102,93.1608309 208.293328,95.3209055 205.09277,93.4008392 C201.892187,91.480785 204.212608,91.0007562 200.051865,91.4007741 C195.891135,91.8007798 200.451941,89.8807256 205.892909,88.6806963 C211.333865,87.4806427 213.574276,87.4806427 210.05364,82.8404864 C206.533016,78.2003545 205.892909,83.4005139 203.252435,82.6004781 C200.611962,81.8004667 196.451231,79.8003895 199.171715,78.2003545 C201.892187,76.6002951 201.492124,74.3602218 198.85165,72.7601624 C196.211176,71.1601152 194.0508,72.1201363 193.730747,75.5602632 C193.410681,79.0003659 192.850597,80.8404214 192.050445,80.5204265 C191.250306,80.2004074 194.0508,75.4802524 190.77022,75.7202607 C187.489639,75.9602689 186.84952,74.6802166 187.249596,73.0001707 C187.64966,71.3201248 187.569649,66.9199768 186.6895,66.4399603 C185.809338,65.9599558 186.6895,65.0799214 187.249596,63.8798799 C187.809692,62.6798263 187.64966,58.5197109 184.129048,56.3596241 C180.608425,54.1995616 179.488219,54.9995852 176.607702,51.7994787 C173.727198,48.5993722 171.486788,51.399473 171.486788,51.399473 C171.486788,51.399473 175.48751,47.5593524 174.287294,45.6392739 C173.087079,43.7192197 171.406789,42.6791879 169.006359,42.4391796 C166.605928,42.1991713 165.965821,38.9990648 165.165669,40.9191311 C164.36553,42.8391853 160.924929,45.4792765 161.084949,42.9191962 C161.24497,40.3591158 162.045122,39.4790813 159.164617,40.5991241 C156.2841,41.7191425 157.724346,37.6390137 158.204432,33.9589028 C158.684519,30.2787796 159.884746,29.8787739 157.324283,29.3987573 C154.763831,28.9187408 155.964034,28.438712 156.044057,27.3186814 C156.124152,26.1986387 153.723649,24.6785902 153.403583,23.39855 C153.08353,22.1185098 152.603443,22.5985264 151.083175,21.4784958 C149.562906,20.3584531 150.443068,17.8783836 148.762754,16.998337 C147.082465,16.1183268 144.522013,12.2781941 143.641851,15.4782885 C142.761689,18.6784072 139.961195,12.5982011 138.200883,11.4781705 C136.440571,10.3581278 133.720087,6.75800338 132.919948,10.7581457 C132.119808,14.7582758 131.159636,13.5582343 130.039431,15.0782828 C128.919238,16.5983312 127.078916,15.7983077 123.958356,12.5182024 C120.837796,9.2380972 115.47685,4.59794091 114.036603,7.63803785 C112.596345,10.6781348 112.596345,11.2381623 107.635463,11.7181788 C102.674581,12.1981833 99.7140535,11.4781705 102.194495,15.8783185 C104.674948,20.2784422 106.355237,23.1585417 104.27486,24.1985858 C102.194495,25.2386176 99.7140535,24.1985858 98.0337641,23.7985801 C96.3534626,23.39855 93.4729456,24.3585832 97.9536686,27.798698 C102.434452,31.2388006 105.39498,32.9188709 108.835593,32.4388543 C112.276206,31.9588377 119.957561,24.5185928 120.357636,25.3186285 C120.7577,26.1186521 116.356939,30.0387714 118.91739,30.7587841 C121.477842,31.4788211 122.357991,31.2388006 123.638217,30.2787796 C124.918443,29.3187465 128.279046,27.3186814 127.718937,30.9987924 C127.158841,34.6789276 126.998808,35.3189416 131.319583,35.6389486 C135.640347,35.9589678 138.920927,33.3988753 138.920927,34.7589263 C138.920927,36.1189652 134.440131,39.3990826 135.560324,39.7990883 C136.680529,40.1990941 144.521916,38.9990648 143.08167,40.1191075 C141.641423,41.2391381 137.960755,42.3591687 137.320636,43.1592045 C136.680529,43.959228 135.320281,46.5993071 134.920217,45.3192669 C134.520141,44.0392267 123.078121,39.239073 119.157433,39.6390909 C115.236734,40.0390966 113.156356,42.1191726 111.236024,42.3591687 C109.315679,42.599177 106.035099,45.2392682 108.835593,48.8393926 C111.636088,52.4394927 117.637164,57.7996739 123.638217,60.2797677 C129.639282,62.7598371 124.598389,64.5999048 127.79896,63.9598786 C130.999518,63.3198646 129.959335,65.3199175 131.87968,66.4399603 C133.800012,67.5599908 136.360476,69.7200655 138.680884,69.6400668 C141.001292,69.5599829 143.801799,68.840031 140.921282,71.0001057 C138.040777,73.1601681 137.960755,77.8003244 139.641056,78.280341 C141.321358,78.7603576 145.802142,92.2007977 144.441918,96.520947 C143.08167,100.841084 137.640701,112.201448 139.16097,105.801247 C140.681239,99.4010465 141.561401,90.0407231 137.720712,90.5207396 C133.880035,91.0007562 131.159563,96.2809387 131.559626,92.8408117 C131.95969,89.4007091 126.758777,72.920172 122.037926,74.6802166 C117.317099,76.4402734 117.317099,91.1607658 116.837013,87.1606479 C116.356939,83.1605056 116.356939,78.6003602 112.436227,83.5605235 C108.515527,88.5206746 114.436582,79.4003838 112.276206,77.3203078 C110.115819,75.2402441 107.395347,76.4402734 105.875078,77.7203257 C104.354797,79.0003659 107.155304,74.7602275 106.675205,71.9601388 C106.195119,69.1600502 106.59511,63.3998633 101.954366,65.7999341 C97.3135497,68.200017 100.274077,63.8798799 96.6734429,59.079714 C93.0727968,54.2795603 86.0315372,46.8393154 79.7904403,47.8793473 C73.5493203,48.9193792 67.5482677,50.4394276 69.4686002,54.4395699 C71.3889448,58.4397 81.7907952,58.4397 71.5489654,57.3196573 C61.3071477,56.1996267 63.147482,60.6797734 66.268042,64.5198939 C69.3885777,68.3600144 81.9508158,77.4003187 74.5094926,74.4402205 C67.0681816,71.4801222 56.1062225,63.2398537 54.18589,68.3600144 C52.2655332,73.4801873 53.4657608,80.6804239 67.3082246,93.1608309 C81.1506641,105.641238 70.2687397,97.480968 65.5479006,97.6409654 C60.8270615,97.8009872 57.7065137,89.8807256 53.305728,90.2007448 C48.9049545,90.5207396 45.7843945,89.9607365 49.3850406,99.8010522 C52.9856746,109.641356 56.1862449,112.681477 65.0678145,114.681542 C73.9493962,116.681595 86.7516664,114.361523 87.0717198,116.521598 C87.3917854,118.68166 87.0717198,119.561694 78.1901491,120.681725 C69.3085796,121.801768 68.3483951,120.201708 68.7484709,123.401827 C69.1485346,126.601922 75.6296977,129.321999 75.3096322,131.00207 C74.9895788,132.682115 75.3897277,136.762244 72.8292032,136.682258 C70.2687397,136.602174 68.7484709,133.882169 67.7082883,135.482204 C66.6681057,137.082263 66.0279989,137.322272 64.2676749,132.042101 C62.5073753,126.761919 60.2669651,124.041841 55.5461382,121.64177 C50.8252869,119.241687 35.2225234,105.161221 32.662072,106.521272 C30.1016207,107.881311 28.9814156,110.521402 30.901748,116.441587 C32.8221048,122.361783 35.0624906,126.521911 39.4632763,129.40201 C43.864062,132.28211 46.4245134,134.762191 44.8242344,135.082198 C43.2239431,135.402218 32.0219531,129.002004 31.2218136,130.922059 C30.421674,132.842125 41.0635676,144.682506 39.7833419,145.642551 C38.5031162,146.602572 35.6225993,146.762582 27.941233,140.28237 C20.2598667,133.802158 20.0998461,131.08208 15.1389639,132.602129 C10.1780818,134.122177 12.7385453,141.962428 9.77800591,143.722485 C6.81749085,145.482542 5.61726329,144.602519 4.01699639,147.00259 C2.41670515,149.402649 -0.78387733,152.202749 0.176307153,152.762765 C1.13647946,153.322792 15.4590173,152.362759 19.6197599,153.722798 C23.7804904,155.082837 34.662427,158.282955 35.4625787,159.963001 C36.262706,161.643047 34.9824803,166.683221 37.2228905,167.803252 C39.4632763,168.923295 48.824932,169.803317 50.7452888,168.363279 C52.6656213,166.92323 54.4259331,162.843101 59.9469239,161.963066 C65.4678903,161.083044 70.0286966,159.803004 71.2289242,158.682961 C72.4291274,157.562918 72.2690946,156.682896 77.8701079,158.602877 C83.4710968,160.522944 85.9515391,160.042927 86.5116355,158.762887 C87.0717198,157.482847 86.2715925,143.402393 89.3921403,146.602499 C92.5127003,149.802593 97.39356,153.16271 99.0738737,152.362686 C100.754163,151.56265 102.434452,143.562402 104.274787,144.682433 C106.115109,145.802475 105.47499,149.00257 106.755216,148.362544 C108.035454,147.72253 111.396044,144.202416 112.356229,146.202481 C113.316401,148.202546 112.196196,154.522748 115.076701,152.84269 C117.957218,151.162632 121.157776,152.362686 123.078133,154.522748 C124.998465,156.682823 132.359766,147.72253 132.839852,151.002635 C133.319926,154.28274 132.759757,160.122926 135.240283,159.242903 C137.720712,158.362869 144.681961,155.242773 143.481746,158.042874 C142.28153,160.842963 139.401025,160.762952 140.841272,163.563041 C142.28153,166.363129 149.002724,172.283326 150.603015,172.043317 C152.203295,171.803321 152.283305,171.643299 152.283305,171.643299 C152.283305,171.643299 157.324209,158.922884 161.324907,160.762952 C165.325617,162.60302 168.446177,162.763017 169.086296,167.483172 C169.726403,172.203327 165.725693,169.483237 170.526542,170.923287 C175.327392,172.363324 182.288641,170.523269 181.568512,173.163348 C180.848382,175.803439 179.328114,174.60341 173.56708,177.003481 C167.80607,179.403564 166.285801,178.843536 164.765533,181.003623 C163.245264,183.163673 157.404208,185.243749 154.523715,187.403824 C151.643198,189.563886 148.202573,192.283976 144.04183,192.843992 C139.881112,193.404019 138.200798,199.484213 135.400303,201.164271 C132.599809,202.844317 129.399251,207.164466 128.919165,208.684515 C128.439079,210.204563 126.278691,213.644678 128.99926,214.764708 C131.719732,215.884751 133.560067,213.644678 137.800807,216.204758 C142.041572,218.764851 152.283378,223.96501 159.804724,223.244985 C167.326057,222.52496 173.887218,215.004729 174.047251,213.804675 C174.207284,212.604646 177.247821,207.084467 180.208336,210.764578 C183.168876,214.444701 180.528402,217.724807 179.808273,220.764904 C179.088156,223.805013 176.047594,230.045216 176.527692,234.445352 C177.007778,238.8455 176.527692,237.725469 175.56752,237.645459 C174.607348,237.565375 155.884024,238.285473 150.523066,236.045399 C145.16212,233.805338 142.681679,231.485254 138.600959,231.805273 C134.520239,232.125268 123.158228,233.325321 122.518109,235.485384 C121.878003,237.645459 121.237884,240.525558 119.157506,239.565513 C117.077141,238.605492 115.716905,233.725327 110.756023,235.245376 C105.795153,236.765424 102.274505,239.565513 99.8740984,238.8455 C97.4736555,238.125475 97.7136986,236.445429 94.9132041,237.805456 C92.1127097,239.165507 92.3527527,238.605492 92.0326872,240.605557 C91.712646,242.60561 95.0732247,247.165779 93.2329147,245.965726 C91.3925804,244.765696 91.2325598,242.765631 89.6322686,243.325647 C88.0319895,243.885662 87.8719567,245.165702 87.3118603,246.685751 C86.7517516,248.205811 86.7517516,246.525753 86.9917947,243.965661 C87.2318378,241.40558 88.1920101,235.565395 85.711569,237.005432 C83.2311389,238.445494 80.5106426,235.405397 78.8303532,241.805598 C77.1500517,248.205811 79.3904497,249.485851 78.0302015,249.165844 C76.6699777,248.845825 75.2297071,246.045737 72.9092988,244.605687 C70.5888783,243.165637 62.6674811,242.60561 61.067202,244.28568 C59.4669108,245.965726 54.5860511,250.685893 50.1852654,250.445885 C45.7844797,250.205876 42.9039749,249.965868 39.8634374,246.365744 C36.8228999,242.765631 29.9416609,248.44582 29.3015542,249.325842 C28.6614352,250.205876 29.3816497,251.245908 27.2211889,251.565903 C25.0608134,251.885922 22.0202637,250.605882 24.6607254,257.806119 C27.3011992,265.006355 29.3015542,274.126646 37.6230272,275.886703 C45.9445125,277.64676 47.5448037,273.966649 50.9053825,270.366536 C54.2659855,266.766412 55.7062562,265.72638 60.1070175,267.326427 C64.5078032,268.926475 65.8680514,267.886443 67.7083857,266.046387 C69.5486957,264.206332 71.7090834,264.28633 85.5515484,267.246429 C99.3940123,270.206515 108.595647,270.286526 110.916043,271.886585 C113.236452,273.486632 118.197346,275.566696 120.117679,274.366654 C122.038023,273.166625 126.838873,270.766542 129.319301,271.726563 C131.799755,272.686609 131.559712,275.086679 130.999615,276.44673 C130.439507,277.806781 131.479689,282.286916 133.560067,283.326948 C135.640444,284.36698 133.96013,287.407077 132.839937,289.087135 C131.719732,290.767193 126.118743,290.847204 132.199818,297.087395 C138.280893,303.327611 134.600249,307.727734 134.680259,309.007787 C134.760355,310.287827 133.560067,314.607976 136.600604,310.767855 C139.641142,306.927723 142.361626,315.647996 143.321798,319.40813 C144.28197,323.168239 145.882262,326.208336 149.722939,323.808266 C153.563604,321.408183 152.603443,317.168056 156.524143,315.647996 C160.444843,314.127947 162.525196,314.207958 166.205864,311.24786 C169.886521,308.287762 175.64753,305.80768 173.327122,311.407869 C171.006714,317.008047 165.405713,316.208023 163.48538,319.168121 C161.565035,322.128195 156.684164,327.168357 155.884024,331.808514 C155.083872,336.44867 154.523788,336.848676 155.884024,338.448735 C157.244272,340.048782 161.565035,336.848676 158.204432,340.448788 C154.843829,344.048912 150.363045,347.489027 152.443423,349.249084 C154.523788,351.009141 157.16425,352.529189 161.645046,351.409146 C166.125842,350.289128 171.326767,344.288921 173.807208,342.928882 C176.287637,341.568831 177.567863,336.208662 188.529822,338.288725 C199.491769,340.368801 197.89149,339.728775 194.690907,341.248824 C191.490349,342.768872 192.370511,343.00888 187.569649,342.688873 C182.7688,342.368866 182.048671,344.208922 181.008488,345.168955 C179.968306,346.128976 179.56823,347.409028 175.64753,348.44906 C171.726831,349.489092 164.605573,359.969446 164.605573,360.769482 C164.605573,361.569505 163.48538,362.529539 168.206207,364.929609 C172.927058,367.329692 175.327477,372.769872 172.126907,374.129899 C168.926336,375.48995 159.964744,376.049977 159.964744,377.410029 C159.964744,378.770055 161.485013,383.090205 159.484658,383.170203 C157.484303,383.250287 155.804014,382.210182 155.003874,385.810294 C154.203723,389.410419 156.764186,390.37044 151.883314,391.410484 C147.002442,392.450516 142.681679,396.130627 140.20125,395.730621 C137.720809,395.330591 133.880132,393.330538 129.159281,398.050693 C124.438454,402.770836 121.958001,401.970812 121.157861,401.570807 C120.357722,401.170801 118.197346,402.53084 115.636883,395.250604 C113.076431,387.970357 108.515625,383.490222 106.675291,385.650285 C104.834968,387.81036 104.514915,390.690459 104.114839,395.730621 C103.714775,400.770783 100.434183,402.290832 103.39471,403.730881 C106.355237,405.170931 106.755313,406.290974 104.914979,409.571067 C103.074657,412.851172 101.474365,413.811205 102.034474,415.97128 C102.59457,418.131342 103.154679,419.251385 102.354527,422.051474 C101.554388,424.851575 98.9139139,427.011637 104.114839,427.811661 C109.315764,428.611684 118.037313,426.611619 120.357722,425.971593 C122.67813,425.331579 127.398969,420.931431 135.240356,423.411525 C143.081755,425.891606 145.96226,424.851575 148.202658,424.931573 C150.443068,425.011657 160.684886,424.931573 162.365175,423.971528 C164.045464,423.011507 167.806143,419.491393 170.046541,422.451479 C172.286939,425.41159 173.807208,429.171712 180.608425,428.291677 C187.409629,427.411655 186.369434,426.69163 191.490349,426.211613 C196.611252,425.731585 195.73109,424.371558 197.411403,422.931496 C197.875561,422.533705 198.351932,422.123702 198.963636,421.792553 C184.006436,410.251437 173.064598,395.326635 165.441281,379.15845 L165.441281,379.164535 L224.128283,343.653166 C235.450295,363.724347 245.74981,380.705664 270.454041,380.705664 C294.134254,380.705664 309.063911,371.443985 309.063911,335.418095 L309.063911,105.923366 Z" id="iceland" fill="#F3DF49" sketch:type="MSShapeGroup"></path>
    </g>
</svg>